<svg xmlns="http://www.w3.org/2000/svg" width="111.793" height="180" viewBox="0 0 111.793 180">
  <g id="Group_353" data-name="Group 353" transform="translate(-317.405 -367.49)">
    <path id="Path_12301" data-name="Path 12301" d="M373.585,547.49a6.988,6.988,0,0,1-1.53-.172c-.094-.021-.2-.05-.307-.081a6.85,6.85,0,0,1-1.007-.357l-.076-.033a4.1,4.1,0,0,1-.387-.2,7.064,7.064,0,0,1-3.722-6.191v-22.21A6.715,6.715,0,0,1,366,517.7c-1.258-1.365-2.139-3.436-2.789-6.631l-.154-.329h-4.069a4.286,4.286,0,0,1-4.286-4.286v-1.165a5.764,5.764,0,0,1-.528-3.922,4.151,4.151,0,0,1,.231-.732,6.762,6.762,0,0,1,2.942-3.3,8.292,8.292,0,0,1,.872-.478c-1.027-6.45-2.012-14.616-1.68-20.706a101.909,101.909,0,0,1-11.886-2.444c-10.057-2.829-18.2-9-22.977-17.388a31.757,31.757,0,0,1-2.957-6.806,30.6,30.6,0,0,1-1.269-7.6c-.015-.248-.021-.573-.026-.9l-.011-.5c-.007-.209-.014-.417-.012-.626.005-.693.033-1.4.084-2.113,0-.048.009-.1.014-.144,1.327-12.408,9.765-23.339,20.561-27.138l.006-.032a25.01,25.01,0,0,1,4.875-11.337,31.748,31.748,0,0,1,14.335-10.441,9.561,9.561,0,0,1,.259-1.029A24.929,24.929,0,0,1,359,383.831a28.316,28.316,0,0,1,3.227-5.172,39,39,0,0,1,13.633-10.742,4.286,4.286,0,0,1,5.977,5.065c-.347,1.185.506,2.308,3.082,4.88l.595.595c.38.383.753.768,1.108,1.157a17.155,17.155,0,0,1,2.288,3.124,17.634,17.634,0,0,1,1.531,3.517,15.059,15.059,0,0,1,.738,4.1,27.725,27.725,0,0,1,11.228,8.337,23.132,23.132,0,0,1,2.073,3.075,24.194,24.194,0,0,1,2.883,9.339,28.785,28.785,0,0,1,21.172,23.235c.23,1.171.4,2.364.514,3.549q.084.9.12,1.805c.02.467.021.94.021,1.413,0,.129.005.235,0,.339.063,11.41-7.145,21.873-19.289,27.994a43.78,43.78,0,0,1-6.4,2.611,101.517,101.517,0,0,1-12.157,3.2c1.024,5.5,1.111,13.571.271,24.4-.711,9.183-1.929,18.164-2.73,23.536a8.384,8.384,0,0,1,1.547.905,6.006,6.006,0,0,1,2.723,5.356,4.3,4.3,0,0,1-.151.91,6.357,6.357,0,0,1-1.971,3.1,4.287,4.287,0,0,1-4.237,3.632h-6.194v3.368A7.037,7.037,0,0,1,373.585,547.49Z" transform="translate(0)" fill="#fff"/>
    <g id="Group_354" data-name="Group 354" transform="translate(321.689 371.776)">
      <g id="Group_252" data-name="Group 252" transform="translate(60.178 97.877)">
        <g id="Group_251" data-name="Group 251">
          <path id="Path_6018" data-name="Path 6018" d="M393.933,487.37c7.056,6.584-.663,55.886-1.3,58.881a.849.849,0,0,0,.579,1.02.838.838,0,0,0,1.02-.579c.663-3.138,8.679-51.911,1.355-59.321-.749-.759-1.677-1.069-1.658,0Z" transform="translate(-392.61 -486.68)"/>
        </g>
      </g>
      <g id="Group_256" data-name="Group 256" transform="translate(61.002 155.799)">
        <g id="Group_255" data-name="Group 255">
          <path id="Path_6019" data-name="Path 6019" d="M393.572,556.117c1.714.321,3.912,1.47,5.314-.177a.529.529,0,0,0-.1-.649,3.143,3.143,0,0,0-3.645-.749,4.583,4.583,0,0,0-1.321,1.27Z" transform="translate(-393.572 -554.255)"/>
        </g>
      </g>
      <g id="Group_260" data-name="Group 260" transform="translate(60.178 154.955)">
        <g id="Group_259" data-name="Group 259">
          <g id="Group_258" data-name="Group 258">
            <path id="Path_6020" data-name="Path 6020" d="M393.214,556.777c1.721.334,3.619,1.259,5.306.284a2.068,2.068,0,0,0,1.109-1.316,1.687,1.687,0,0,0-.871-1.575,4.1,4.1,0,0,0-2.979-.879,4.67,4.67,0,0,0-2.93,2.1.857.857,0,0,0,0,1.173.835.835,0,0,0,1.173,0c.554-.692,1.173-1.593,2.067-1.647a2.239,2.239,0,0,1,1.141.245,3.681,3.681,0,0,1,.609.378c-.007,0,.214.2.22.2a.208.208,0,0,1-.069-.191q.206-.379.068-.22a3.8,3.8,0,0,1-.452.343,2.2,2.2,0,0,1-.445.141c-.225.054.115.007-.117.015-.116.005-.231.011-.343.009-.086,0-.177-.007-.264-.015l-.178-.018c.071.009.056.006-.049-.009-.861-.159-1.69-.449-2.55-.616a.851.851,0,0,0-1.02.579A.836.836,0,0,0,393.214,556.777Z" transform="translate(-392.611 -553.27)"/>
          </g>
        </g>
      </g>
      <g id="Group_264" data-name="Group 264" transform="translate(39.067 97.867)">
        <g id="Group_263" data-name="Group 263">
          <path id="Path_6021" data-name="Path 6021" d="M369.632,487.368c-4.1,4.222.649,29.811,1.312,32.949a.829.829,0,1,0,1.6-.441c-.633-3-4.562-28.881-1.253-32.508C372.009,486.58,369.652,486.3,369.632,487.368Z" transform="translate(-367.981 -486.669)"/>
        </g>
      </g>
      <g id="Group_268" data-name="Group 268" transform="translate(37.447 129.426)">
        <g id="Group_267" data-name="Group 267">
          <path id="Path_6022" data-name="Path 6022" d="M371.473,525.35c-1.714.321-3.912,1.47-5.314-.177a.532.532,0,0,1,.1-.649,3.144,3.144,0,0,1,3.645-.749,4.561,4.561,0,0,1,1.321,1.27Z" transform="translate(-366.09 -523.487)"/>
        </g>
      </g>
      <g id="Group_272" data-name="Group 272" transform="translate(36.64 128.584)">
        <g id="Group_271" data-name="Group 271">
          <g id="Group_270" data-name="Group 270">
            <path id="Path_6023" data-name="Path 6023" d="M371.118,524.41c-.857.167-1.689.457-2.55.616-.1.015-.12.018-.048.009-.045.005-.086.01-.134.014-.1.009-.206.016-.309.019s-.231,0-.343-.008c-.171-.007.058.026-.118-.015-.111-.027-.22-.051-.327-.086-.229-.08.1.063-.117-.053a3.9,3.9,0,0,1-.452-.343q-.138-.16.068.22a.207.207,0,0,1-.069.191c.006,0,.225-.2.22-.2a3.573,3.573,0,0,1,.609-.378,2.26,2.26,0,0,1,1.141-.245c.894.054,1.515.955,2.067,1.647a.833.833,0,0,0,1.173,0,.848.848,0,0,0,0-1.173,5.121,5.121,0,0,0-2.469-2.013,3.907,3.907,0,0,0-3.1.555,2.486,2.486,0,0,0-1.172,1.259,1.486,1.486,0,0,0,.686,1.591,3.555,3.555,0,0,0,2.7.672c1.023-.128,1.987-.483,2.995-.679a.837.837,0,0,0,.579-1.02A.846.846,0,0,0,371.118,524.41Z" transform="translate(-365.149 -522.505)"/>
          </g>
        </g>
      </g>
      <g id="Group_276" data-name="Group 276" transform="translate(0 0.004)">
        <path id="Path_6024" data-name="Path 6024" d="M342.67,414.546c-10.917,2.411-19.019,13.272-20.193,24.257a28.2,28.2,0,0,0-.027,3.661,26.342,26.342,0,0,0,1.089,6.526,27.528,27.528,0,0,0,2.578,5.923,33.642,33.642,0,0,0,20.367,15.37,98.221,98.221,0,0,0,56.439-1.6,39.325,39.325,0,0,0,5.768-2.355c9.353-4.714,17.007-13.269,16.933-24.171A29.074,29.074,0,0,0,425.5,439a31.368,31.368,0,0,0-.467-3.181,24.7,24.7,0,0,0-21.171-20.464,19.827,19.827,0,0,0-2.4-10.773,18.647,18.647,0,0,0-1.684-2.5,23.252,23.252,0,0,0-12.434-8.006,10.724,10.724,0,0,0-.269-5.8,13.216,13.216,0,0,0-1.169-2.7,12.949,12.949,0,0,0-1.726-2.356c-.319-.347-.652-.691-.993-1.034-2.722-2.747-5.955-5.571-4.745-9.7-5.942,2.871-11.884,7.695-14.859,13.908a20.755,20.755,0,0,0-1.228,3.219c-.381,1.166-.292,2.946-.826,3.124-9.171,2.671-17.092,9.793-18.514,19.138A25.25,25.25,0,0,0,342.67,414.546Z" transform="translate(-322.403 -372.495)" fill="#946037"/>
      </g>
      <g id="Group_280" data-name="Group 280">
        <g id="Group_279" data-name="Group 279">
          <path id="Path_6025" data-name="Path 6025" d="M425.033,435.818a24.694,24.694,0,0,0-21.171-20.464,19.826,19.826,0,0,0-2.4-10.773,18.643,18.643,0,0,0-1.684-2.5,23.252,23.252,0,0,0-12.434-8.006,10.725,10.725,0,0,0-.269-5.8,13.215,13.215,0,0,0-1.169-2.7,12.95,12.95,0,0,0-1.726-2.356c-.319-.347-.652-.691-.993-1.034-2.722-2.747-5.955-5.571-4.745-9.7-5.942,2.871-11.884,7.695-14.859,13.908a20.756,20.756,0,0,0-1.228,3.219c-.381,1.166-.292,2.946-.826,3.124-9.171,2.671-17.092,9.793-18.514,19.138a25.339,25.339,0,0,0-.343,2.664c-10.917,2.411-19.019,13.272-20.193,24.257a28.2,28.2,0,0,0-.027,3.661,26.3,26.3,0,0,0,1.089,6.526,27.529,27.529,0,0,0,2.578,5.923,33.642,33.642,0,0,0,20.367,15.37,98.221,98.221,0,0,0,56.439-1.6,39.321,39.321,0,0,0,5.768-2.355c9.353-4.714,17.007-13.269,16.933-24.171A29.074,29.074,0,0,0,425.5,439,31.134,31.134,0,0,0,425.033,435.818Zm-4.809,4.335c.066,9.764-6.786,17.423-15.16,21.643A35.14,35.14,0,0,1,399.9,463.9a87.942,87.942,0,0,1-50.53,1.435A31.584,31.584,0,0,1,335.89,457.7a28.252,28.252,0,0,1-2.586-2.883,26,26,0,0,1-3.555-5.925,25.234,25.234,0,0,1-1.838-6.625,22.487,22.487,0,0,1-.229-3.148c.067-8.9,5.586-18.336,14.443-21.091a13.924,13.924,0,0,1,3.625-.41c.086-.976.218-1.9.377-2.782a22.552,22.552,0,0,1,1.941-6.676,22.164,22.164,0,0,1,1.637-2.935,21.748,21.748,0,0,1,4.163-4.652q.481-.4.986-.771a28.985,28.985,0,0,1,3.976-2.457q.413-.211.831-.409c2.2-.937,4.839-1.14,5.188-4a16.548,16.548,0,0,1,.9-3.943c2.1-5.245,6.195-9.251,10.467-12.812-.89,3.917,2.582,6.857,5.057,9.288.45.442.888.885,1.3,1.337A14.019,14.019,0,0,1,383.7,388.2c.179.356.357.712.549,1.048a8.22,8.22,0,0,1,.771,2.085,5.9,5.9,0,0,1-.785,4.434,36.6,36.6,0,0,1,11.015,6.514,18.34,18.34,0,0,1,1.832,2.012,15.711,15.711,0,0,1,1.252,2.016,25.126,25.126,0,0,1,2.325,11.717c3.333-.215,4.268-.045,6.207.564a16.387,16.387,0,0,1,5.33,2.879,21.921,21.921,0,0,1,7.5,13.017,27.776,27.776,0,0,1,.417,2.848,25.954,25.954,0,0,1,.117,2.815Z" transform="translate(-322.403 -372.49)" fill="#4d352d"/>
        </g>
      </g>
      <g id="Group_283" data-name="Group 283" transform="translate(17.949 42.049)">
        <path id="Path_6026" data-name="Path 6026" d="M343.507,424.846q1.3-.129,2.6-.171c.867-.027,1.737-.035,2.6-.03,3.473.02,6.951.24,10.394.262a19.482,19.482,0,0,0-9.943-3.36,14.82,14.82,0,0,0-2.611.437,12.637,12.637,0,0,0-2.536.7c-.719.263-.834,1.342-.477,2.065Z" transform="translate(-343.343 -421.547)" fill="#4d352d"/>
      </g>
      <g id="Group_286" data-name="Group 286" transform="translate(71.849 42.688)">
        <path id="Path_6027" data-name="Path 6027" d="M419.013,424.988c-3.539-.15-7.077.285-10.605.363-.723.017-1.449.012-2.181-.025a16.212,16.212,0,0,1,2.707-1.543c2.973-1.371,5.04-2.079,8.161-.876.64.222,2.089,1.393,1.881,2" transform="translate(-406.226 -422.293)" fill="#4d352d"/>
      </g>
      <g id="Group_289" data-name="Group 289" transform="translate(53.877 20.692)">
        <path id="Path_6028" data-name="Path 6028" d="M398.685,401.4c-4.107-2.339-8.926-2.884-13.426-4.017,4.792-2.158,16.48.668,13.431,3.937" transform="translate(-385.259 -396.63)" fill="#4d352d"/>
      </g>
      <g id="Group_293" data-name="Group 293">
        <g id="Group_292" data-name="Group 292">
          <path id="Path_6029" data-name="Path 6029" d="M425.033,435.818a24.694,24.694,0,0,0-21.171-20.464,19.826,19.826,0,0,0-2.4-10.773,18.643,18.643,0,0,0-1.684-2.5,23.252,23.252,0,0,0-12.434-8.006,10.725,10.725,0,0,0-.269-5.8,13.215,13.215,0,0,0-1.169-2.7,12.95,12.95,0,0,0-1.726-2.356c-.319-.347-.652-.691-.993-1.034-2.722-2.747-5.955-5.571-4.745-9.7-5.942,2.871-11.884,7.695-14.859,13.908a20.756,20.756,0,0,0-1.228,3.219c-.381,1.166-.292,2.946-.826,3.124-9.171,2.671-17.092,9.793-18.514,19.138a25.339,25.339,0,0,0-.343,2.664c-10.917,2.411-19.019,13.272-20.193,24.257a28.2,28.2,0,0,0-.027,3.661,26.3,26.3,0,0,0,1.089,6.526,27.529,27.529,0,0,0,2.578,5.923,33.642,33.642,0,0,0,20.367,15.37,98.221,98.221,0,0,0,56.439-1.6,39.321,39.321,0,0,0,5.768-2.355c9.353-4.714,17.007-13.269,16.933-24.171A29.074,29.074,0,0,0,425.5,439,31.134,31.134,0,0,0,425.033,435.818Zm-1.114,5.7c.072,10.543-7.328,18.816-16.371,23.373a38.011,38.011,0,0,1-5.577,2.277,94.966,94.966,0,0,1-54.569,1.549,32.535,32.535,0,0,1-19.693-14.86,26.664,26.664,0,0,1-2.493-5.727,25.421,25.421,0,0,1-1.053-6.31c-.771-11.776,7.951-23.973,19.656-26.2a23.307,23.307,0,0,1,1.335-6.935,21.9,21.9,0,0,1,8.519-11,28.153,28.153,0,0,1,3.967-2.3,28.782,28.782,0,0,1,4.309-1.64c.514-.171.429-1.893.8-3.021a20,20,0,0,1,1.187-3.113,25.9,25.9,0,0,1,6.108-7.935c.628-.567,1.28-1.107,1.942-1.62,1.746-1.251,3.437-2.586,5.307-3.743a7.11,7.11,0,0,0,1.7,5.193,17.72,17.72,0,0,0,1.244,1.438c4.177,3.429,7.56,8.948,5.691,14.556a16.29,16.29,0,0,1,8.8,3.237q.885.652,1.7,1.388a22.078,22.078,0,0,1,2.274,2.37,18.816,18.816,0,0,1,1.863,2.687,16.11,16.11,0,0,1,1.61,11.328,17.421,17.421,0,0,1,6.326.866,20.1,20.1,0,0,1,5.649,2.942A23.632,23.632,0,0,1,423.34,435.4a30.242,30.242,0,0,1,.451,3.075,27.811,27.811,0,0,1,.126,3.046Z" transform="translate(-322.403 -372.49)" fill="#4d352d"/>
        </g>
      </g>
      <path id="Path_6030" data-name="Path 6030" d="M379.362,538.333a.9.9,0,0,1-1.286-.451c-.338-.526-.771-1.293-1.286-2.278-1.05-2.012-2.33-4.722-3.605-7.629a.4.4,0,0,1,.262-.5c.016-.005.033-.009.049-.012a.524.524,0,0,1,.637.225c2.794,6.375,4.746,9.409,5.257,9.907a.427.427,0,0,1,.284.229.4.4,0,0,1-.266.5A.276.276,0,0,1,379.362,538.333Zm.07-.225" transform="translate(-329.655 -394.624)" fill="#bdbdbd"/>
      <path id="Path_6031" data-name="Path 6031" d="M379.675,538.3a.427.427,0,0,0-.284-.229c-.514-.5-2.463-4.017-5.257-10.392a.523.523,0,0,0-.637-.225.4.4,0,0,0-.323.465.479.479,0,0,0,.013.05c.007.017.447-.241.79.514,1.053,2.314,3.2,7.986,5.41,10.321a.393.393,0,0,0,.3-.471C379.681,538.32,379.678,538.31,379.675,538.3Zm-.238-.193-.4-.032" transform="translate(-329.655 -394.623)" fill="#9e9e9e"/>
      <path id="Path_6032" data-name="Path 6032" d="M378.679,534.08a2.215,2.215,0,0,0,1.482-.23,1.453,1.453,0,0,0-.839-2.728c-.734-1.205-1.735-6.021-1.952-14.163-.257-9.521.692-15.933,1.532-17.333a1.452,1.452,0,0,0,.327-2.829,2.3,2.3,0,0,0-2.708,1.182c-2.207,3.472-2.118,15.564-2.078,17.953.074,4.356.5,14.769,2.9,17.372A2.478,2.478,0,0,0,378.679,534.08Z" transform="translate(-329.835 -390.235)" fill="#ff9800"/>
      <path id="Path_6033" data-name="Path 6033" d="M378.418,533.707a1.366,1.366,0,0,0,1.659.573l.091-.038a1.66,1.66,0,0,0,.786-2.089,1.452,1.452,0,0,0-1.493-.857c-.734-1.205-1.735-6.021-1.951-14.163-.257-9.521.691-15.933,1.531-17.333a1.447,1.447,0,0,0,1.266-1.9,2.359,2.359,0,0,0-2.364,1.44,56.728,56.728,0,0,0-.369,32.325,10.288,10.288,0,0,0,.786,1.942Z" transform="translate(-329.974 -390.405)" fill="#e65100"/>
      <path id="Path_6034" data-name="Path 6034" d="M386.1,534.08a2.216,2.216,0,0,1-1.482-.23,1.453,1.453,0,0,1,.84-2.728c.734-1.205,1.735-6.021,1.952-14.163.253-9.521-.691-15.933-1.532-17.333a1.452,1.452,0,0,1-.327-2.829,2.3,2.3,0,0,1,2.709,1.182c2.207,3.472,2.118,15.564,2.078,17.953-.074,4.356-.5,14.769-2.9,17.372A2.474,2.474,0,0,1,386.1,534.08Z" transform="translate(-331.18 -390.235)" fill="#e65100"/>
      <rect id="Rectangle_20" data-name="Rectangle 20" width="1.654" height="9.157" transform="translate(50.954 93.038)" fill="#bdbdbd"/>
      <path id="Path_6035" data-name="Path 6035" d="M390.026,557.857c-.534.165-.857-.263-1.286-.936-.338-.527-.771-1.293-1.286-2.277-1.049-2.012-2.33-4.722-3.605-7.629a.4.4,0,0,1,.262-.5c.016-.005.033-.009.05-.012a.525.525,0,0,1,.637.225c2.794,6.375,4.746,9.894,5.257,10.392a.428.428,0,0,1,.285.229.4.4,0,0,1-.266.5A.45.45,0,0,1,390.026,557.857Zm.07-.71-.4-.033" transform="translate(-331.178 -397.344)" fill="#bdbdbd"/>
      <path id="Path_6036" data-name="Path 6036" d="M390.34,557.338a.428.428,0,0,0-.285-.229c-.514-.5-2.463-4.017-5.257-10.392a.525.525,0,0,0-.637-.225.4.4,0,0,0-.324.464.481.481,0,0,0,.012.051c.008.017.447-.241.791.514,1.053,2.314,3.2,7.986,5.41,10.321a.393.393,0,0,0,.3-.47A.226.226,0,0,0,390.34,557.338Zm-.238-.193-.4-.032" transform="translate(-331.178 -397.343)" fill="#9e9e9e"/>
      <rect id="Rectangle_21" data-name="Rectangle 21" width="6.839" height="2.493" transform="translate(58.279 158.54)" fill="#424242"/>
      <path id="Path_6037" data-name="Path 6037" d="M397.232,557.453h-6.839v1.365c2.046-.054,4.259-.189,5.722,1.127h1.114Z" transform="translate(-332.116 -398.913)" fill="#616161"/>
      <rect id="Rectangle_22" data-name="Rectangle 22" width="6.839" height="2.493" transform="translate(37.303 132.185)" fill="#424242"/>
      <path id="Path_6038" data-name="Path 6038" d="M372.761,526.706h-6.839v1.185a9.308,9.308,0,0,1,5.786,1.307h1.053Z" transform="translate(-328.62 -394.521)" fill="#616161"/>
      <path id="Rectangle_23" data-name="Rectangle 23" d="M382.5,488.012h0a2.347,2.347,0,0,1,2.355,2.339h0l.023,8.529a2.348,2.348,0,0,1-2.341,2.354h0a2.347,2.347,0,0,1-2.354-2.34h0l-.023-8.529A2.346,2.346,0,0,1,382.5,488.012Z" transform="translate(-330.654 -388.993)" fill="#ff9800"/>
      <path id="Rectangle_24" data-name="Rectangle 24" d="M382.489,503.969h0a2.743,2.743,0,0,1,2.743,2.743v53.246a2.743,2.743,0,0,1-2.743,2.743h0a2.743,2.743,0,0,1-2.743-2.743V506.712A2.743,2.743,0,0,1,382.489,503.969Z" transform="translate(-330.595 -391.273)" fill="#424242"/>
      <path id="Path_6039" data-name="Path 6039" d="M382.585,503.969a2.745,2.745,0,0,0-2.171,1.076h.826c2.9,19.04,1.613,37.434.645,56.151a2.036,2.036,0,0,1-.485,1.232,2.712,2.712,0,0,0,1.184.274,2.751,2.751,0,0,0,2.743-2.743V506.712A2.751,2.751,0,0,0,382.585,503.969Z" transform="translate(-330.69 -391.273)"/>
      <path id="Path_6040" data-name="Path 6040" d="M386.767,479.138a16.021,16.021,0,0,1-3.009.236.807.807,0,0,1,.011-1.614c6.4.045,7.227-2.805,8.184-6.1.951-3.276,2.03-6.99,9.407-6.181a.807.807,0,1,1-.176,1.6h0c-6.032-.662-6.759,1.848-7.682,5.026C392.7,474.879,391.724,478.229,386.767,479.138Z" transform="translate(-331.053 -385.757)" fill="#bdbdbd"/>
      <path id="Path_6041" data-name="Path 6041" d="M393.972,468.55c-1.239,2.2-1.359,5.416-3.232,7.728-2.067,2.235-4.561,2.733-7.773,2.259a.859.859,0,0,0-.01.094.808.808,0,0,0,.8.813,16.018,16.018,0,0,0,3.009-.236c4.958-.909,5.931-4.259,6.735-7.029.922-3.178,1.651-5.688,7.682-5.026a.793.793,0,0,0,.887-.686.779.779,0,0,0,0-.161A7.093,7.093,0,0,0,393.972,468.55Z" transform="translate(-331.053 -385.826)" fill="#9e9e9e"/>
      <path id="Path_6042" data-name="Path 6042" d="M406.536,467.773l-5.6.213a1.642,1.642,0,0,1-1.7-1.573h0a1.642,1.642,0,0,1,1.573-1.7l5.6-.213a1.641,1.641,0,0,1,1.7,1.573h0A1.64,1.64,0,0,1,406.536,467.773Z" transform="translate(-333.38 -385.634)" fill="#ff9800"/>
      <path id="Path_6043" data-name="Path 6043" d="M406.412,464.5l-2.425.093c-.079.747-.146,1.5-.933,1.9a5.249,5.249,0,0,1-3.783-.429,1.629,1.629,0,0,0,1.309,1.9,1.656,1.656,0,0,0,.363.025l5.6-.213a1.636,1.636,0,0,0-.124-3.27Z" transform="translate(-333.38 -385.634)" fill="#e65100"/>
      <path id="Path_6044" data-name="Path 6044" d="M376.613,479.138a16.032,16.032,0,0,0,3.009.236.807.807,0,0,0-.011-1.614h0c-6.4.045-7.227-2.805-8.184-6.1-.951-3.276-2.03-6.99-9.407-6.181a.807.807,0,0,0,.176,1.6h0c6.032-.662,6.759,1.848,7.682,5.026C370.682,474.879,371.656,478.229,376.613,479.138Z" transform="translate(-327.96 -385.757)" fill="#bdbdbd"/>
      <path id="Path_6045" data-name="Path 6045" d="M369.408,468.55c1.239,2.2,1.359,5.416,3.232,7.728,2.067,2.235,4.561,2.733,7.773,2.259a.579.579,0,0,1,.01.094.807.807,0,0,1-.8.813,16.029,16.029,0,0,1-3.009-.236c-4.957-.909-5.931-4.259-6.735-7.029-.922-3.178-1.65-5.688-7.682-5.026a.793.793,0,0,1-.887-.686.84.84,0,0,1,0-.161A7.092,7.092,0,0,1,369.408,468.55Z" transform="translate(-327.96 -385.826)" fill="#9e9e9e"/>
      <path id="Path_6046" data-name="Path 6046" d="M380.691,480.863a1.852,1.852,0,1,1,2.156,1.489,1.853,1.853,0,0,1-2.156-1.489Z" transform="translate(-330.725 -387.66)" fill="#bdbdbd"/>
      <path id="Path_6047" data-name="Path 6047" d="M383.541,479.036a2.586,2.586,0,0,1-.349,2.064,1.741,1.741,0,0,1-2.461-.106l-.025-.027a1.852,1.852,0,1,0,2.829-1.93Z" transform="translate(-330.732 -387.711)" fill="#9e9e9e"/>
      <path id="Path_6048" data-name="Path 6048" d="M361.75,467.723l-5.6-.147a1.642,1.642,0,0,1-1.593-1.679h0a1.641,1.641,0,0,1,1.678-1.593l5.6.147a1.64,1.64,0,0,1,1.593,1.678h0A1.64,1.64,0,0,1,361.75,467.723Z" transform="translate(-326.997 -385.606)" fill="#ff9800"/>
      <path id="Path_6049" data-name="Path 6049" d="M361.837,464.466l-2.426-.064c-.127.741-.243,1.489-1.053,1.831a5.252,5.252,0,0,1-3.75-.667,1.628,1.628,0,0,0,1.543,2.024l5.6.147a1.636,1.636,0,0,0,.086-3.271Z" transform="translate(-326.996 -385.62)" fill="#e65100"/>
      <path id="Path_6050" data-name="Path 6050" d="M384.888,499.784l-.009-3.879-.017-6.429a1.477,1.477,0,0,0-1.476-1.468l-1.749.005h-.027c1.726,1.034,1.775,11.354.438,11.571a6.1,6.1,0,0,1-1.852.031v.146a1.477,1.477,0,0,0,1.476,1.468l1.749-.005A1.476,1.476,0,0,0,384.888,499.784Z" transform="translate(-330.659 -388.993)" fill="#e65100"/>
      <path id="Path_6051" data-name="Path 6051" d="M379.661,503.331c-.969,1.089-1.21,2.4-.766,2.279s1.653-1.916,3.469-1.795,2.541,1.735,3.026,1.695-.04-1.331-1.009-2.38S380.628,502.246,379.661,503.331Z" transform="translate(-330.442 -391.052)" fill="#ff9800"/>
      <path id="Path_6052" data-name="Path 6052" d="M385.362,504.681c-1.352-1.737-4.114-1.7-5.985-.453a2.3,2.3,0,0,0-.514.493,2.389,2.389,0,0,0-.18.666.657.657,0,0,0,.048.132.657.657,0,0,1-.048-.132c-.021.253.049.4.209.354.444-.121,1.653-1.916,3.469-1.795s2.541,1.735,3.026,1.695C385.656,505.617,385.615,505.213,385.362,504.681Z" transform="translate(-330.442 -391.182)" fill="#e65100"/>
      <g id="Group_307" data-name="Group 307" transform="translate(29.577 78.284)">
        <g id="Group_306" data-name="Group 306">
          <path id="Path_6053" data-name="Path 6053" d="M357.011,463.9a6.22,6.22,0,0,0-.1.917,5.8,5.8,0,0,0,.044.913c.086.629.257,1.383.843,1.635a1.191,1.191,0,0,0,1.481-.8,1.157,1.157,0,0,0,.028-.12,1.51,1.51,0,0,0-.335-1.321,4.649,4.649,0,0,0-.6-.679c-.22-.212-.451-.411-.661-.6a7.542,7.542,0,0,0,2.013,1.006c-.5-.922-1.677-1.006-2.6-1.029C357.089,463.848,357.048,463.873,357.011,463.9Z" transform="translate(-356.909 -463.821)" fill="#4d352d"/>
        </g>
      </g>
      <g id="Group_311" data-name="Group 311" transform="translate(28.528 77.226)">
        <g id="Group_310" data-name="Group 310">
          <g id="Group_309" data-name="Group 309">
            <path id="Path_6054" data-name="Path 6054" d="M355.826,463.445a6.585,6.585,0,0,0,.12,3.194,2.156,2.156,0,0,0,2.535,1.6,2.379,2.379,0,0,0,1.721-2.493,4.578,4.578,0,0,0-1.921-2.823l-1.27,1.646a9.012,9.012,0,0,0,2.263,1.114,1.058,1.058,0,0,0,1.184-1.543,2.986,2.986,0,0,0-1.821-1.348,3.2,3.2,0,0,0-2.328.022,1.074,1.074,0,0,0-.376,1.434,1.058,1.058,0,0,0,1.434.376l.115-.076-.529.143a4.032,4.032,0,0,1,1.073.109,2.407,2.407,0,0,1,.257.079c-.148-.057.129.071.137.076a.573.573,0,0,1,.224.243l1.184-1.543a7.015,7.015,0,0,1-1.762-.9c-.973-.68-2.155.857-1.27,1.647.429.385,1.1.847,1.314,1.4-.035-.093.005.193,0,.066a.422.422,0,0,1-.027.232c.02-.068,0-.044-.055.071.038-.06.015-.043-.069.052.113-.076.032.028-.039-.009.035.018.1-.042.135.018.07.069.061.061-.027-.025.045.066.049.069.009.007a1.345,1.345,0,0,1-.077-.138c.035.086.03.068-.014-.053a3.187,3.187,0,0,1-.087-.322,4.63,4.63,0,0,1-.018-1.7,1.078,1.078,0,0,0-.732-1.286A1.057,1.057,0,0,0,355.826,463.445Z" transform="translate(-355.685 -462.587)" fill="#4d352d"/>
          </g>
        </g>
      </g>
      <g id="Group_315" data-name="Group 315" transform="translate(20.825 64.553)">
        <g id="Group_314" data-name="Group 314">
          <path id="Path_6055" data-name="Path 6055" d="M358.582,447.947a33.72,33.72,0,0,1-4.3,2.466,24.037,24.037,0,0,0-4.363,2.546c-1.154.943-3.14,1.813-3.217,3.531a2.712,2.712,0,0,0,1.308,2.1,14.252,14.252,0,0,0,1.927,1.345c1.463.857,3.039,1.486,4.556,2.236a1.075,1.075,0,0,0,1.434-.376,1.059,1.059,0,0,0-.375-1.434c-1.215-.6-2.465-1.127-3.669-1.75a16.824,16.824,0,0,1-1.74-1.023c-.158-.107-1.353-1.125-1.363-1.114a.6.6,0,0,1,0,.147c-.042.086.148-.25.086-.171a3.372,3.372,0,0,1,.707-.649c.574-.435,1.164-.848,1.738-1.286a25.324,25.324,0,0,1,3.892-2.229,35.066,35.066,0,0,0,4.436-2.534,1.078,1.078,0,0,0,.376-1.434,1.058,1.058,0,0,0-1.434-.376Z" transform="translate(-346.699 -447.802)" fill="#4d352d"/>
        </g>
      </g>
      <g id="Group_320" data-name="Group 320" transform="translate(70.108 78.283)">
        <g id="Group_319" data-name="Group 319">
          <path id="Path_6056" data-name="Path 6056" d="M406.908,463.9a5.99,5.99,0,0,1,.1.917,5.6,5.6,0,0,1-.044.913c-.086.629-.257,1.384-.842,1.635a1.191,1.191,0,0,1-1.481-.8,1.156,1.156,0,0,1-.028-.12,1.51,1.51,0,0,1,.335-1.321,4.653,4.653,0,0,1,.6-.679c.22-.213.451-.411.661-.6a7.511,7.511,0,0,1-2.013,1.006c.5-.922,1.677-1.006,2.6-1.029C406.832,463.847,406.869,463.872,406.908,463.9Z" transform="translate(-404.195 -463.82)" fill="#4d352d"/>
        </g>
      </g>
      <g id="Group_324" data-name="Group 324" transform="translate(69.064 77.229)">
        <g id="Group_323" data-name="Group 323">
          <g id="Group_322" data-name="Group 322">
            <path id="Path_6057" data-name="Path 6057" d="M405.722,464a4.63,4.63,0,0,1-.018,1.7,2.19,2.19,0,0,1-.148.469c-.068.105-.074.118-.018.038-.087.086-.1.094-.027.025.028-.051.1-.008.135-.018-.067.024-.154-.069-.04.009a.328.328,0,0,1-.128-.139.645.645,0,0,1-.021-.283c.212-.55.885-1.014,1.314-1.4.875-.783-.287-2.333-1.27-1.646a7.013,7.013,0,0,1-1.762.9l1.184,1.543a.607.607,0,0,1,.224-.243,1.8,1.8,0,0,0,.163-.086c-.051.021.188-.055.235-.067a4.074,4.074,0,0,1,1.073-.108l-.529-.143.115.076a1.048,1.048,0,0,0,1.058-1.81,3.2,3.2,0,0,0-2.328-.022,2.991,2.991,0,0,0-1.821,1.348,1.06,1.06,0,0,0,1.184,1.543,8.982,8.982,0,0,0,2.263-1.114l-1.27-1.647a4.713,4.713,0,0,0-1.9,2.683,2.387,2.387,0,0,0,1.7,2.632A2.142,2.142,0,0,0,407.6,466.7a6.508,6.508,0,0,0,.138-3.245,1.057,1.057,0,0,0-1.286-.732A1.073,1.073,0,0,0,405.722,464Z" transform="translate(-402.977 -462.59)" fill="#4d352d"/>
          </g>
        </g>
      </g>
      <g id="Group_328" data-name="Group 328" transform="translate(68.219 64.56)">
        <g id="Group_327" data-name="Group 327">
          <path id="Path_6058" data-name="Path 6058" d="M402.5,449.758c2.413,1.707,5.208,2.743,7.689,4.33.609.39,1.166.849,1.755,1.265a6.216,6.216,0,0,1,1.395,1.216c-.046-.061.086.086.012.039l.016.059a.307.307,0,0,1,0-.2c-.025-.019-.177.158-.217.2a8.234,8.234,0,0,1-.73.629,13.656,13.656,0,0,1-1.675,1.061c-1.348.741-2.775,1.326-4.152,2.008a1.048,1.048,0,1,0,1.058,1.81c1.357-.673,2.762-1.25,4.093-1.971a14.444,14.444,0,0,0,1.841-1.176c.649-.492,1.554-1.107,1.783-1.931.514-1.864-1.629-2.975-2.841-3.888a27.771,27.771,0,0,0-4.134-2.521,38.52,38.52,0,0,1-4.833-2.735,1.057,1.057,0,0,0-1.434.376,1.07,1.07,0,0,0,.376,1.434Z" transform="translate(-401.992 -447.809)" fill="#4d352d"/>
        </g>
      </g>
      <path id="Path_6059" data-name="Path 6059" d="M372.31,433.215a.44.44,0,0,0,.52-.341.423.423,0,0,0,.009-.081v-.005a3.782,3.782,0,1,0-7.529-.719,3.877,3.877,0,0,0,0,.719v.005a.441.441,0,0,0,.449.431.492.492,0,0,0,.08-.009,16.78,16.78,0,0,1,6.472,0Z" transform="translate(-328.53 -380.512)" fill="#4d352d"/>
      <path id="Path_6060" data-name="Path 6060" d="M398.924,433.215a.44.44,0,0,0,.52-.341.423.423,0,0,0,.009-.081v-.005a3.782,3.782,0,1,0-7.529-.719,3.877,3.877,0,0,0,0,.719v.005a.441.441,0,0,0,.449.431.492.492,0,0,0,.08-.009,16.78,16.78,0,0,1,6.472,0Z" transform="translate(-332.332 -380.512)" fill="#4d352d"/>
      <g id="Group_337" data-name="Group 337" transform="translate(46.634 62.048)">
        <path id="Path_6061" data-name="Path 6061" d="M385.908,445.439a3.932,3.932,0,0,1-7.567,0,.783.783,0,0,0-1.509.416,5.5,5.5,0,0,0,10.584,0,.783.783,0,0,0-1.509-.416Z" transform="translate(-376.809 -444.88)" fill="#4d352d"/>
      </g>
    </g>
  </g>
</svg>
