<svg xmlns="http://www.w3.org/2000/svg" width="120.43" height="200" viewBox="0 0 120.43 200">
  <g id="Group_353" data-name="Group 353" transform="translate(-379.557 -140)">
    <g id="Group_275" data-name="Group 275" transform="translate(422.274 254.178)">
      <g id="Group_254" data-name="Group 254" transform="translate(27.493 0.011)">
        <g id="Group_253" data-name="Group 253">
          <g id="Group_252" data-name="Group 252">
            <g id="Group_251" data-name="Group 251">
              <path id="Path_6018" data-name="Path 6018" d="M568.169,445.064c8.232,7.681-.773,65.2-1.513,68.694a.99.99,0,0,0,.676,1.19.977.977,0,0,0,1.189-.676c.774-3.661,10.126-60.563,1.582-69.208-.874-.885-1.957-1.247-1.934,0Z" transform="translate(-566.631 -444.259)"/>
            </g>
          </g>
        </g>
      </g>
      <g id="Group_262" data-name="Group 262" transform="translate(27.486 66.592)">
        <g id="Group_257" data-name="Group 257" transform="translate(0.964 0.959)">
          <g id="Group_256" data-name="Group 256">
            <g id="Group_255" data-name="Group 255">
              <path id="Path_6019" data-name="Path 6019" d="M569.181,626.428c2,.375,4.564,1.715,6.2-.207a.619.619,0,0,0-.117-.757,3.668,3.668,0,0,0-4.252-.874,5.323,5.323,0,0,0-1.541,1.482Z" transform="translate(-569.181 -624.22)"/>
            </g>
          </g>
        </g>
        <g id="Group_261" data-name="Group 261">
          <g id="Group_260" data-name="Group 260">
            <g id="Group_259" data-name="Group 259">
              <g id="Group_258" data-name="Group 258">
                <path id="Path_6020" data-name="Path 6020" d="M567.32,625.764c2.008.39,4.222,1.469,6.189.331a2.411,2.411,0,0,0,1.294-1.535,1.967,1.967,0,0,0-1.016-1.837,4.784,4.784,0,0,0-3.475-1.025c-1.552.207-2.521,1.327-3.418,2.449a1,1,0,0,0,0,1.368.974.974,0,0,0,1.368,0c.646-.807,1.369-1.858,2.412-1.921a2.61,2.61,0,0,1,1.331.286,4.33,4.33,0,0,1,.71.441c-.007-.005.25.234.257.23a.244.244,0,0,1-.081-.223q.24-.443.079-.257a4.309,4.309,0,0,1-.527.4,2.593,2.593,0,0,1-.519.164c-.263.063.134.008-.137.018-.135.006-.269.013-.4.01-.1,0-.206-.008-.308-.017q-.1-.009-.208-.021c.083.01.065.007-.057-.011-1.005-.186-1.972-.524-2.975-.719a.993.993,0,0,0-1.19.676A.976.976,0,0,0,567.32,625.764Z" transform="translate(-566.613 -621.664)"/>
              </g>
            </g>
          </g>
        </g>
      </g>
      <g id="Group_266" data-name="Group 266" transform="translate(2.858)">
        <g id="Group_265" data-name="Group 265">
          <g id="Group_264" data-name="Group 264">
            <g id="Group_263" data-name="Group 263">
              <path id="Path_6021" data-name="Path 6021" d="M502.92,445.045c-4.784,4.926.757,34.779,1.531,38.44a.967.967,0,0,0,1.865-.514c-.739-3.5-5.322-33.694-1.462-37.926.839-.92-1.911-1.245-1.934,0Z" transform="translate(-500.994 -444.228)"/>
            </g>
          </g>
        </g>
      </g>
      <g id="Group_274" data-name="Group 274" transform="translate(0 35.819)">
        <g id="Group_269" data-name="Group 269" transform="translate(0.966 0.964)">
          <g id="Group_268" data-name="Group 268">
            <g id="Group_267" data-name="Group 267">
              <path id="Path_6022" data-name="Path 6022" d="M502.233,544.446c-2,.375-4.564,1.715-6.2-.207a.619.619,0,0,1,.116-.757,3.668,3.668,0,0,1,4.252-.874,5.326,5.326,0,0,1,1.541,1.482Z" transform="translate(-495.951 -542.238)"/>
            </g>
          </g>
        </g>
        <g id="Group_273" data-name="Group 273">
          <g id="Group_272" data-name="Group 272">
            <g id="Group_271" data-name="Group 271">
              <g id="Group_270" data-name="Group 270">
                <path id="Path_6023" data-name="Path 6023" d="M500.368,541.909c-1,.195-1.97.533-2.975.719-.121.018-.14.021-.056.011-.052.006-.1.012-.156.016-.12.011-.24.019-.36.022-.135,0-.269,0-.4-.01-.2-.008.068.03-.138-.018-.129-.031-.257-.059-.382-.1-.267-.093.116.074-.137-.062a4.38,4.38,0,0,1-.527-.4q-.161-.186.079.257a.244.244,0,0,1-.081.223c.007,0,.263-.235.257-.23a4.15,4.15,0,0,1,.711-.441,2.638,2.638,0,0,1,1.331-.286c1.043.063,1.767,1.114,2.412,1.921a.973.973,0,0,0,1.368,0,.99.99,0,0,0,0-1.368,5.976,5.976,0,0,0-2.881-2.348,4.556,4.556,0,0,0-3.622.647,2.9,2.9,0,0,0-1.367,1.469,1.733,1.733,0,0,0,.8,1.856,4.146,4.146,0,0,0,3.153.784c1.193-.149,2.318-.564,3.494-.792a.977.977,0,0,0,.676-1.19A.987.987,0,0,0,500.368,541.909Z" transform="translate(-493.377 -539.669)"/>
              </g>
            </g>
          </g>
        </g>
      </g>
    </g>
    <g id="Group_296" data-name="Group 296" transform="translate(379.557 140)">
      <g id="Group_278" data-name="Group 278">
        <g id="Group_277" data-name="Group 277">
          <g id="Group_276" data-name="Group 276">
            <path id="Path_6024" data-name="Path 6024" d="M403.2,189.064c-12.737,2.813-22.189,15.484-23.559,28.3a32.737,32.737,0,0,0-.032,4.271,30.646,30.646,0,0,0,1.271,7.614,32.1,32.1,0,0,0,3.008,6.91c5.068,8.9,13.792,15.127,23.762,17.932a114.6,114.6,0,0,0,65.846-1.869,45.951,45.951,0,0,0,6.729-2.747c10.912-5.5,19.841-15.48,19.755-28.2a34.175,34.175,0,0,0-.149-3.676,36.6,36.6,0,0,0-.545-3.711,28.811,28.811,0,0,0-24.7-23.875,23.143,23.143,0,0,0-2.8-12.568,21.9,21.9,0,0,0-1.965-2.915,27.127,27.127,0,0,0-14.506-9.34,12.522,12.522,0,0,0-.314-6.771,15.46,15.46,0,0,0-1.364-3.145,15.1,15.1,0,0,0-2.014-2.749c-.372-.405-.761-.806-1.158-1.206-3.176-3.205-6.948-6.5-5.536-11.314-6.932,3.35-13.865,8.977-17.336,16.226a24.069,24.069,0,0,0-1.433,3.756c-.445,1.36-.341,3.437-.964,3.645-10.7,3.116-19.941,11.425-21.6,22.328A29.4,29.4,0,0,0,403.2,189.064Z" transform="translate(-379.557 -140)" fill="#946037"/>
          </g>
        </g>
      </g>
      <g id="Group_282" data-name="Group 282">
        <g id="Group_281" data-name="Group 281">
          <g id="Group_280" data-name="Group 280">
            <g id="Group_279" data-name="Group 279">
              <path id="Path_6025" data-name="Path 6025" d="M499.29,213.883a28.811,28.811,0,0,0-24.7-23.875,23.143,23.143,0,0,0-2.8-12.568,21.9,21.9,0,0,0-1.965-2.915,27.127,27.127,0,0,0-14.506-9.34,12.522,12.522,0,0,0-.314-6.771,15.46,15.46,0,0,0-1.364-3.145,15.1,15.1,0,0,0-2.014-2.749c-.372-.405-.761-.806-1.158-1.206-3.176-3.205-6.948-6.5-5.536-11.314-6.932,3.35-13.865,8.977-17.336,16.226a24.069,24.069,0,0,0-1.433,3.756c-.445,1.36-.341,3.437-.964,3.645-10.7,3.116-19.941,11.425-21.6,22.328a29.4,29.4,0,0,0-.4,3.108c-12.737,2.813-22.189,15.484-23.559,28.3a32.737,32.737,0,0,0-.032,4.271,30.646,30.646,0,0,0,1.271,7.614,32.1,32.1,0,0,0,3.008,6.91c5.068,8.9,13.792,15.127,23.762,17.932a114.6,114.6,0,0,0,65.846-1.869,45.951,45.951,0,0,0,6.729-2.747c10.912-5.5,19.841-15.48,19.755-28.2a34.175,34.175,0,0,0-.149-3.676A36.6,36.6,0,0,0,499.29,213.883Zm-5.61,5.057c.077,11.391-7.917,20.327-17.687,25.25a41.1,41.1,0,0,1-6.025,2.459,102.6,102.6,0,0,1-58.952,1.674,36.851,36.851,0,0,1-15.726-8.91,32.819,32.819,0,0,1-3.017-3.363,30.308,30.308,0,0,1-4.148-6.912,29.433,29.433,0,0,1-2.144-7.729,26.137,26.137,0,0,1-.267-3.673c.078-10.384,6.517-21.392,16.85-24.606a16.255,16.255,0,0,1,4.229-.478c.1-1.139.254-2.221.44-3.246a26.274,26.274,0,0,1,2.265-7.789,25.786,25.786,0,0,1,1.91-3.424,25.329,25.329,0,0,1,4.857-5.427q.561-.469,1.15-.9a33.7,33.7,0,0,1,4.639-2.867q.481-.246.969-.477c2.566-1.093,5.645-1.33,6.053-4.663a19.278,19.278,0,0,1,1.053-4.6c2.45-6.119,7.227-10.793,12.212-14.947-1.038,4.57,3.012,8,5.9,10.836.525.516,1.036,1.032,1.514,1.56a16.589,16.589,0,0,1,1.312,1.625c.208.415.415.831.639,1.223a9.57,9.57,0,0,1,.9,2.432,6.879,6.879,0,0,1-.917,5.173,42.7,42.7,0,0,1,12.852,7.6,21.532,21.532,0,0,1,2.137,2.347,18.486,18.486,0,0,1,1.461,2.352,29.33,29.33,0,0,1,2.712,13.67c3.889-.251,4.979-.052,7.242.658a19.123,19.123,0,0,1,6.218,3.359,25.58,25.58,0,0,1,8.746,15.186,32.7,32.7,0,0,1,.487,3.323A30.568,30.568,0,0,1,493.68,218.94Z" transform="translate(-379.557 -140)" fill="#4d352d"/>
            </g>
          </g>
        </g>
      </g>
      <g id="Group_285" data-name="Group 285" transform="translate(20.941 49.055)">
        <g id="Group_284" data-name="Group 284">
          <g id="Group_283" data-name="Group 283">
            <path id="Path_6026" data-name="Path 6026" d="M435.542,274.557c1.01-.1,2.022-.168,3.034-.2s2.026-.041,3.039-.035c4.052.023,8.109.28,12.126.306a22.734,22.734,0,0,0-11.6-3.92,17.274,17.274,0,0,0-3.046.51,14.727,14.727,0,0,0-2.959.822c-.839.307-.973,1.566-.557,2.409Z" transform="translate(-435.354 -270.706)" fill="#4d352d"/>
          </g>
        </g>
      </g>
      <g id="Group_288" data-name="Group 288" transform="translate(83.822 49.807)">
        <g id="Group_287" data-name="Group 287">
          <g id="Group_286" data-name="Group 286">
            <path id="Path_6027" data-name="Path 6027" d="M617.818,275.851c-4.129-.175-8.257.332-12.373.424-.843.02-1.691.014-2.545-.029a18.888,18.888,0,0,1,3.158-1.8c3.469-1.6,5.879-2.425,9.52-1.022.747.259,2.438,1.625,2.195,2.331" transform="translate(-602.901 -272.711)" fill="#4d352d"/>
          </g>
        </g>
      </g>
      <g id="Group_291" data-name="Group 291" transform="translate(62.853 24.141)">
        <g id="Group_290" data-name="Group 290">
          <g id="Group_289" data-name="Group 289">
            <path id="Path_6028" data-name="Path 6028" d="M562.694,209.891c-4.791-2.729-10.414-3.365-15.664-4.687,5.591-2.518,19.227.779,15.669,4.593" transform="translate(-547.03 -204.323)" fill="#4d352d"/>
          </g>
        </g>
      </g>
      <g id="Group_295" data-name="Group 295" opacity="0.35">
        <g id="Group_294" data-name="Group 294">
          <g id="Group_293" data-name="Group 293">
            <g id="Group_292" data-name="Group 292">
              <path id="Path_6029" data-name="Path 6029" d="M499.29,213.883a28.811,28.811,0,0,0-24.7-23.875,23.143,23.143,0,0,0-2.8-12.568,21.9,21.9,0,0,0-1.965-2.915,27.127,27.127,0,0,0-14.506-9.34,12.522,12.522,0,0,0-.314-6.771,15.46,15.46,0,0,0-1.364-3.145,15.1,15.1,0,0,0-2.014-2.749c-.372-.405-.761-.806-1.158-1.206-3.176-3.205-6.948-6.5-5.536-11.314-6.932,3.35-13.865,8.977-17.336,16.226a24.069,24.069,0,0,0-1.433,3.756c-.445,1.36-.341,3.437-.964,3.645-10.7,3.116-19.941,11.425-21.6,22.328a29.4,29.4,0,0,0-.4,3.108c-12.737,2.813-22.189,15.484-23.559,28.3a32.737,32.737,0,0,0-.032,4.271,30.646,30.646,0,0,0,1.271,7.614,32.1,32.1,0,0,0,3.008,6.91c5.068,8.9,13.792,15.127,23.762,17.932a114.6,114.6,0,0,0,65.846-1.869,45.951,45.951,0,0,0,6.729-2.747c10.912-5.5,19.841-15.48,19.755-28.2a34.175,34.175,0,0,0-.149-3.676A36.6,36.6,0,0,0,499.29,213.883Zm-1.3,6.649c.084,12.3-8.549,21.952-19.1,27.268a44.4,44.4,0,0,1-6.506,2.656,110.794,110.794,0,0,1-63.664,1.807c-9.64-2.711-18.075-8.736-22.975-17.337a31.05,31.05,0,0,1-2.909-6.681,29.644,29.644,0,0,1-1.229-7.362c-.9-13.739,9.276-27.968,22.932-30.564a27.179,27.179,0,0,1,1.557-8.091,25.547,25.547,0,0,1,9.939-12.834,32.769,32.769,0,0,1,4.628-2.68,33.62,33.62,0,0,1,5.027-1.913c.6-.2.5-2.209.932-3.524a23.213,23.213,0,0,1,1.385-3.632,30.19,30.19,0,0,1,7.126-9.258c.733-.661,1.493-1.291,2.266-1.89,2.037-1.459,4.01-3.017,6.191-4.367a8.292,8.292,0,0,0,1.985,6.059,20.426,20.426,0,0,0,1.451,1.678c4.873,4,8.82,10.439,6.639,16.982a19,19,0,0,1,10.264,3.776q1.032.761,1.987,1.619a25.732,25.732,0,0,1,2.653,2.765,22.049,22.049,0,0,1,2.173,3.135,18.8,18.8,0,0,1,1.878,13.216A20.321,20.321,0,0,1,480,192.37a23.479,23.479,0,0,1,6.591,3.432,27.571,27.571,0,0,1,10.724,17.588,35.449,35.449,0,0,1,.526,3.588A32.854,32.854,0,0,1,497.988,220.532Z" transform="translate(-379.557 -140)" fill="#4d352d"/>
            </g>
          </g>
        </g>
      </g>
    </g>
    <g id="Group_305" data-name="Group 305" transform="translate(411.712 231.814)">
      <g id="Group_297" data-name="Group 297" transform="translate(18.596 63.122)">
        <path id="Path_6030" data-name="Path 6030" d="M522.022,565.551a1.054,1.054,0,0,1-1.5-.526c-.394-.614-.9-1.508-1.5-2.657-1.225-2.347-2.718-5.509-4.206-8.9a.467.467,0,0,1,.363-.6.611.611,0,0,1,.743.262c3.26,7.437,5.537,10.977,6.133,11.558a.5.5,0,0,1,.331.267A.467.467,0,0,1,522.022,565.551Zm.082-.262h0Zm-.461-.038Z" transform="translate(-514.782 -552.827)" fill="#bdbdbd"/>
      </g>
      <path id="Path_6031" data-name="Path 6031" d="M522.385,565.513a.5.5,0,0,0-.331-.267c-.6-.581-2.874-4.687-6.133-12.124a.611.611,0,0,0-.743-.262.467.467,0,0,0-.363.6c.008.02.522-.281.923.6,1.228,2.7,3.734,9.317,6.312,12.041A.459.459,0,0,0,522.385,565.513Zm-.278-.225h0Zm-.464-.037h0Z" transform="translate(-496.187 -489.705)" fill="#9e9e9e"/>
      <g id="Group_299" data-name="Group 299" transform="translate(19.868 32.391)">
        <g id="Group_298" data-name="Group 298">
          <path id="Path_6032" data-name="Path 6032" d="M523.132,514.559a2.585,2.585,0,0,0,1.729-.268,1.695,1.695,0,0,0-.979-3.183c-.856-1.406-2.024-7.025-2.277-16.523-.3-11.108.806-18.589,1.787-20.222a1.694,1.694,0,0,0,.382-3.3,2.681,2.681,0,0,0-3.16,1.379c-2.575,4.051-2.471,18.158-2.424,20.945.086,5.082.587,17.231,3.388,20.268A2.892,2.892,0,0,0,523.132,514.559Z" transform="translate(-518.173 -470.945)" fill="#ff9800"/>
        </g>
      </g>
      <path id="Path_6033" data-name="Path 6033" d="M524.28,515.877a1.594,1.594,0,0,0,1.935.669c.036-.014.071-.029.106-.044a1.936,1.936,0,0,0,.916-2.437,1.693,1.693,0,0,0-1.741-1c-.856-1.406-2.024-7.025-2.277-16.524-.3-11.108.806-18.589,1.787-20.222a1.687,1.687,0,0,0,1.476-2.217,2.751,2.751,0,0,0-2.758,1.68,66.185,66.185,0,0,0-.429,37.712,12.053,12.053,0,0,0,.916,2.266Z" transform="translate(-499.92 -440.505)" fill="#e65100"/>
      <g id="Group_301" data-name="Group 301" transform="translate(29.281 32.391)">
        <g id="Group_300" data-name="Group 300">
          <path id="Path_6034" data-name="Path 6034" d="M545.885,514.559a2.585,2.585,0,0,1-1.729-.268,1.695,1.695,0,0,1,.98-3.183c.856-1.406,2.024-7.025,2.277-16.523.295-11.108-.806-18.589-1.787-20.222a1.694,1.694,0,0,1-.382-3.3,2.681,2.681,0,0,1,3.16,1.379c2.575,4.051,2.471,18.158,2.424,20.945-.086,5.082-.587,17.231-3.388,20.268A2.892,2.892,0,0,1,545.885,514.559Z" transform="translate(-543.252 -470.945)" fill="#e65100"/>
        </g>
      </g>
      <rect id="Rectangle_20" data-name="Rectangle 20" width="1.93" height="10.683" transform="translate(27.287 16.73)" fill="#bdbdbd"/>
      <g id="Group_302" data-name="Group 302" transform="translate(29.259 82.161)">
        <path id="Path_6035" data-name="Path 6035" d="M550.434,616.846c-.623.193-1-.307-1.5-1.092-.394-.615-.9-1.508-1.5-2.657-1.224-2.347-2.718-5.509-4.206-8.9a.467.467,0,0,1,.364-.6.612.612,0,0,1,.743.262c3.26,7.437,5.537,11.543,6.133,12.124a.5.5,0,0,1,.332.267A.467.467,0,0,1,550.434,616.846Zm.082-.828h0Zm-.461-.038h0Z" transform="translate(-543.194 -603.556)" fill="#bdbdbd"/>
      </g>
      <path id="Path_6036" data-name="Path 6036" d="M550.8,616.242a.5.5,0,0,0-.332-.267c-.6-.581-2.873-4.687-6.133-12.124a.612.612,0,0,0-.743-.262.467.467,0,0,0-.364.6c.009.02.522-.281.923.6,1.228,2.7,3.734,9.317,6.312,12.041A.459.459,0,0,0,550.8,616.242Zm-.278-.225h0Zm-.464-.037h0Z" transform="translate(-513.936 -521.395)" fill="#9e9e9e"/>
      <rect id="Rectangle_21" data-name="Rectangle 21" width="7.979" height="2.908" transform="translate(35.833 93.149)" fill="#424242"/>
      <path id="Path_6037" data-name="Path 6037" d="M568.691,632.833h-7.979v1.593c2.387-.063,4.969-.22,6.676,1.315h1.3Z" transform="translate(-524.879 -539.684)" fill="#616161"/>
      <rect id="Rectangle_22" data-name="Rectangle 22" width="7.979" height="2.908" transform="translate(11.361 62.402)" fill="#424242"/>
      <path id="Path_6038" data-name="Path 6038" d="M503.486,550.909h-7.979v1.382a10.86,10.86,0,0,1,6.75,1.525h1.228Z" transform="translate(-484.146 -488.507)" fill="#616161"/>
      <path id="Rectangle_23" data-name="Rectangle 23" d="M2.738,0h0A2.738,2.738,0,0,1,5.477,2.738v9.95a2.738,2.738,0,0,1-2.738,2.738h0A2.738,2.738,0,0,1,0,12.688V2.738A2.738,2.738,0,0,1,2.738,0Z" transform="translate(25.597 23.715) rotate(-0.155)" fill="#ff9800"/>
      <rect id="Rectangle_24" data-name="Rectangle 24" width="6.4" height="68.521" rx="3.2" transform="translate(25.185 39.665)" fill="#424242"/>
      <path id="Path_6039" data-name="Path 6039" d="M536.653,490.325a3.2,3.2,0,0,0-2.533,1.255h.964c3.388,22.213,1.882,43.673.753,65.509a2.382,2.382,0,0,1-.566,1.437,3.165,3.165,0,0,0,1.381.32,3.21,3.21,0,0,0,3.2-3.2V493.525A3.209,3.209,0,0,0,536.653,490.325Z" transform="translate(-508.267 -450.66)"/>
      <g id="Group_303" data-name="Group 303" transform="translate(28.396 1.059)">
        <path id="Path_6040" data-name="Path 6040" d="M545.341,403.532a18.779,18.779,0,0,1-3.511.275.941.941,0,0,1,.013-1.883c7.466.053,8.431-3.273,9.548-7.122,1.109-3.822,2.368-8.155,10.975-7.211a.941.941,0,1,1-.205,1.871c-7.037-.772-7.886,2.156-8.962,5.864C552.259,398.563,551.124,402.472,545.341,403.532Z" transform="translate(-540.895 -387.461)" fill="#bdbdbd"/>
      </g>
      <path id="Path_6041" data-name="Path 6041" d="M553.747,391.918c-1.445,2.561-1.586,6.319-3.771,9.016-2.411,2.608-5.321,3.188-9.069,2.635a.932.932,0,0,0-.012.11.942.942,0,0,0,.935.948,18.779,18.779,0,0,0,3.511-.275c5.784-1.06,6.919-4.969,7.858-8.2,1.076-3.708,1.926-6.636,8.962-5.864a.925.925,0,0,0,1.04-.988A8.273,8.273,0,0,0,553.747,391.918Z" transform="translate(-512.499 -387.22)" fill="#9e9e9e"/>
      <path id="Path_6042" data-name="Path 6042" d="M592.8,388.981l-6.528.249a1.915,1.915,0,0,1-1.98-1.835h0a1.915,1.915,0,0,1,1.835-1.98l6.528-.249a1.915,1.915,0,0,1,1.98,1.835h0A1.914,1.914,0,0,1,592.8,388.981Z" transform="translate(-539.609 -384.967)" fill="#ff9800"/>
      <path id="Path_6043" data-name="Path 6043" d="M592.656,385.166l-2.829.108c-.092.872-.17,1.752-1.089,2.211a6.126,6.126,0,0,1-4.415-.5,1.9,1.9,0,0,0,1.95,2.24l6.528-.249a1.909,1.909,0,0,0-.145-3.815Z" transform="translate(-539.609 -384.967)" fill="#e65100"/>
      <g id="Group_304" data-name="Group 304" transform="translate(6.741 1.059)">
        <path id="Path_6044" data-name="Path 6044" d="M501.06,403.532a18.78,18.78,0,0,0,3.511.275.941.941,0,0,0-.013-1.883c-7.466.053-8.431-3.273-9.548-7.122-1.109-3.822-2.368-8.155-10.975-7.211a.941.941,0,1,0,.205,1.871c7.037-.772,7.886,2.156,8.962,5.864C494.141,398.563,495.277,402.472,501.06,403.532Z" transform="translate(-483.196 -387.461)" fill="#bdbdbd"/>
      </g>
      <path id="Path_6045" data-name="Path 6045" d="M492.657,391.918c1.445,2.561,1.586,6.319,3.771,9.016,2.411,2.608,5.321,3.188,9.069,2.635a.951.951,0,0,1,.012.11.942.942,0,0,1-.935.948,18.779,18.779,0,0,1-3.511-.275c-5.783-1.06-6.919-4.969-7.858-8.2-1.076-3.708-1.925-6.636-8.962-5.864a.925.925,0,0,1-1.04-.988A8.274,8.274,0,0,1,492.657,391.918Z" transform="translate(-476.458 -387.22)" fill="#9e9e9e"/>
      <path id="Path_6046" data-name="Path 6046" d="M534.814,425.484a2.161,2.161,0,1,1,2.515,1.737A2.161,2.161,0,0,1,534.814,425.484Z" transform="translate(-508.678 -408.561)" fill="#bdbdbd"/>
      <path id="Path_6047" data-name="Path 6047" d="M538.214,423.892a3.021,3.021,0,0,1-.407,2.408,2.032,2.032,0,0,1-2.9-.156,2.16,2.16,0,1,0,3.3-2.252Z" transform="translate(-508.761 -409.16)" fill="#9e9e9e"/>
      <path id="Path_6048" data-name="Path 6048" d="M473.623,388.627l-6.531-.172a1.915,1.915,0,0,1-1.858-1.959h0a1.914,1.914,0,0,1,1.958-1.858l6.531.172a1.914,1.914,0,0,1,1.858,1.958h0A1.914,1.914,0,0,1,473.623,388.627Z" transform="translate(-465.234 -384.638)" fill="#ff9800"/>
      <path id="Path_6049" data-name="Path 6049" d="M473.724,384.975l-2.83-.075c-.148.865-.283,1.737-1.229,2.136a6.126,6.126,0,0,1-4.375-.778,1.9,1.9,0,0,0,1.8,2.361l6.531.172a1.909,1.909,0,0,0,.1-3.816Z" transform="translate(-465.234 -384.802)" fill="#e65100"/>
      <path id="Path_6050" data-name="Path 6050" d="M539.014,461.538l-.01-4.525-.02-7.5a1.723,1.723,0,0,0-1.722-1.713l-2.041.006-.031,0c2.014,1.206,2.071,13.246.511,13.5a7.1,7.1,0,0,1-2.161.036v.17a1.723,1.723,0,0,0,1.722,1.713l2.041-.006A1.722,1.722,0,0,0,539.014,461.538Z" transform="translate(-507.904 -424.095)" fill="#e65100"/>
      <path id="Path_6051" data-name="Path 6051" d="M530.646,487.266c-1.13,1.271-1.412,2.8-.894,2.659s1.929-2.235,4.047-2.094,2.965,2.024,3.53,1.977-.047-1.553-1.177-2.777S531.775,486,530.646,487.266Z" transform="translate(-505.382 -448.088)" fill="#ff9800"/>
      <path id="Path_6052" data-name="Path 6052" d="M537.3,490.2c-1.577-2.026-4.8-1.981-6.982-.528a2.661,2.661,0,0,0-.6.575,2.755,2.755,0,0,0-.21.777.731.731,0,0,0,.056.154.731.731,0,0,1-.056-.154c-.024.295.057.464.244.413.518-.141,1.929-2.235,4.047-2.094s2.965,2.024,3.53,1.977C537.643,491.292,537.595,490.821,537.3,490.2Z" transform="translate(-505.384 -449.598)" fill="#e65100"/>
    </g>
    <g id="Group_318" data-name="Group 318" transform="translate(403.849 215.306)">
      <g id="Group_313" data-name="Group 313" transform="translate(8.99 14.787)">
        <g id="Group_308" data-name="Group 308" transform="translate(1.22 1.241)">
          <g id="Group_307" data-name="Group 307">
            <g id="Group_306" data-name="Group 306">
              <path id="Path_6053" data-name="Path 6053" d="M471.609,383.448a7.074,7.074,0,0,0-.116,1.07,6.683,6.683,0,0,0,.051,1.065c.1.734.3,1.614.983,1.908a1.389,1.389,0,0,0,1.761-1.076,1.765,1.765,0,0,0-.391-1.541,5.468,5.468,0,0,0-.7-.792c-.257-.247-.526-.48-.771-.7a8.8,8.8,0,0,0,2.348,1.174c-.587-1.076-1.956-1.174-3.034-1.2C471.7,383.387,471.652,383.417,471.609,383.448Z" transform="translate(-471.489 -383.359)" fill="#4d352d"/>
            </g>
          </g>
        </g>
        <g id="Group_312" data-name="Group 312">
          <g id="Group_311" data-name="Group 311">
            <g id="Group_310" data-name="Group 310">
              <g id="Group_309" data-name="Group 309">
                <path id="Path_6054" data-name="Path 6054" d="M468.4,381.058a7.677,7.677,0,0,0,.14,3.726,2.515,2.515,0,0,0,2.957,1.87,2.777,2.777,0,0,0,2.008-2.908c-.112-1.421-1.246-2.4-2.241-3.293l-1.482,1.92a10.52,10.52,0,0,0,2.64,1.3,1.235,1.235,0,0,0,1.381-1.8,3.49,3.49,0,0,0-2.125-1.573,3.735,3.735,0,0,0-2.716.026,1.251,1.251,0,0,0-.439,1.673,1.235,1.235,0,0,0,1.673.439l.134-.089-.617.167a4.712,4.712,0,0,1,1.252.127,2.853,2.853,0,0,1,.3.092c-.173-.067.151.083.16.089a.67.67,0,0,1,.261.284l1.381-1.8a8.189,8.189,0,0,1-2.056-1.051c-1.135-.793-2.514,1-1.482,1.921.5.449,1.289.988,1.533,1.631-.041-.108.006.225,0,.077a.5.5,0,0,1-.031.271q.034-.119-.064.083.065-.106-.08.061c.131-.089.037.033-.046-.01.042.021.116-.049.157.021q.123.121-.031-.029c.054.077.057.08.011.008a1.413,1.413,0,0,1-.09-.161q.06.15-.017-.062a3.825,3.825,0,0,1-.1-.376,5.363,5.363,0,0,1-.021-1.988,1.258,1.258,0,0,0-.854-1.5A1.232,1.232,0,0,0,468.4,381.058Z" transform="translate(-468.238 -380.053)" fill="#4d352d"/>
              </g>
            </g>
          </g>
        </g>
      </g>
      <g id="Group_317" data-name="Group 317">
        <g id="Group_316" data-name="Group 316">
          <g id="Group_315" data-name="Group 315">
            <g id="Group_314" data-name="Group 314">
              <path id="Path_6055" data-name="Path 6055" d="M458.148,340.828a39.5,39.5,0,0,1-5.02,2.877,28,28,0,0,0-5.09,2.97c-1.346,1.1-3.663,2.115-3.753,4.12a3.161,3.161,0,0,0,1.526,2.45,16.644,16.644,0,0,0,2.247,1.569c1.707,1,3.547,1.734,5.315,2.609a1.254,1.254,0,0,0,1.673-.439,1.234,1.234,0,0,0-.438-1.673c-1.417-.7-2.876-1.315-4.281-2.042a19.628,19.628,0,0,1-2.03-1.193c-.184-.125-1.578-1.312-1.59-1.3a.7.7,0,0,1,0,.171c-.049.1.173-.292.1-.2a3.977,3.977,0,0,1,.825-.757c.67-.507,1.358-.989,2.028-1.5a29.581,29.581,0,0,1,4.541-2.6,40.751,40.751,0,0,0,5.175-2.956,1.257,1.257,0,0,0,.439-1.673,1.234,1.234,0,0,0-1.673-.439Z" transform="translate(-444.283 -340.653)" fill="#4d352d"/>
            </g>
          </g>
        </g>
      </g>
    </g>
    <g id="Group_331" data-name="Group 331" transform="translate(459.138 215.306)">
      <g id="Group_326" data-name="Group 326" transform="translate(0.995 14.787)">
        <g id="Group_321" data-name="Group 321" transform="translate(1.211 1.24)">
          <g id="Group_320" data-name="Group 320">
            <g id="Group_319" data-name="Group 319">
              <path id="Path_6056" data-name="Path 6056" d="M600.645,383.447a7.13,7.13,0,0,1,.116,1.07,6.683,6.683,0,0,1-.051,1.065c-.1.734-.3,1.615-.983,1.908a1.389,1.389,0,0,1-1.761-1.076,1.765,1.765,0,0,1,.391-1.541,5.448,5.448,0,0,1,.7-.792c.257-.248.526-.48.771-.7a8.784,8.784,0,0,1-2.348,1.174c.587-1.076,1.957-1.174,3.034-1.2C600.557,383.387,600.6,383.416,600.645,383.447Z" transform="translate(-597.477 -383.358)" fill="#4d352d"/>
            </g>
          </g>
        </g>
        <g id="Group_325" data-name="Group 325">
          <g id="Group_324" data-name="Group 324">
            <g id="Group_323" data-name="Group 323">
              <g id="Group_322" data-name="Group 322">
                <path id="Path_6057" data-name="Path 6057" d="M597.451,381.708a5.434,5.434,0,0,1-.021,1.988,2.572,2.572,0,0,1-.173.547q-.119.185-.021.044-.154.15-.031.029c.033-.059.122-.009.157-.021-.078.028-.18-.08-.047.01a.383.383,0,0,1-.149-.162.736.736,0,0,1-.025-.33c.247-.642,1.032-1.183,1.533-1.632,1.021-.913-.335-2.722-1.482-1.92a8.209,8.209,0,0,1-2.056,1.05l1.381,1.8a.7.7,0,0,1,.261-.284c.026-.015.29-.145.19-.1-.059.025.219-.064.274-.078a4.759,4.759,0,0,1,1.252-.126l-.617-.167.134.089a1.223,1.223,0,0,0,1.234-2.112,3.74,3.74,0,0,0-2.716-.026,3.489,3.489,0,0,0-2.125,1.573,1.236,1.236,0,0,0,1.381,1.8,10.52,10.52,0,0,0,2.64-1.3l-1.482-1.921c-.948.849-2.055,1.792-2.22,3.13a2.784,2.784,0,0,0,1.986,3.071,2.5,2.5,0,0,0,2.936-1.809,7.6,7.6,0,0,0,.161-3.786,1.233,1.233,0,0,0-1.5-.854A1.251,1.251,0,0,0,597.451,381.708Z" transform="translate(-594.252 -380.054)" fill="#4d352d"/>
              </g>
            </g>
          </g>
        </g>
      </g>
      <g id="Group_330" data-name="Group 330">
        <g id="Group_329" data-name="Group 329">
          <g id="Group_328" data-name="Group 328">
            <g id="Group_327" data-name="Group 327">
              <path id="Path_6058" data-name="Path 6058" d="M592.2,342.94c2.815,1.992,6.076,3.2,8.971,5.052.71.455,1.359.99,2.048,1.476a7.267,7.267,0,0,1,1.627,1.419c-.054-.071.1.1.014.045l.019.069a.358.358,0,0,1,0-.233c-.029-.022-.207.184-.253.228a9.9,9.9,0,0,1-.852.734,15.962,15.962,0,0,1-1.954,1.238c-1.573.865-3.237,1.547-4.844,2.343a1.235,1.235,0,0,0-.439,1.673,1.248,1.248,0,0,0,1.673.439c1.583-.785,3.222-1.458,4.775-2.3a17.016,17.016,0,0,0,2.148-1.372c.757-.574,1.813-1.291,2.08-2.253.6-2.175-1.9-3.471-3.315-4.536a32.47,32.47,0,0,0-4.824-2.941,45.033,45.033,0,0,1-5.638-3.191,1.233,1.233,0,0,0-1.673.439,1.249,1.249,0,0,0,.439,1.673Z" transform="translate(-591.6 -340.653)" fill="#4d352d"/>
            </g>
          </g>
        </g>
      </g>
    </g>
    <g id="Group_336" data-name="Group 336" transform="translate(422.464 196.161)">
      <g id="Group_333" data-name="Group 333">
        <g id="Group_332" data-name="Group 332">
          <path id="Path_6059" data-name="Path 6059" d="M502.049,294.967a.513.513,0,0,0,.617-.492v-.006a4.412,4.412,0,1,0-8.784,0v.006a.513.513,0,0,0,.617.492,19.561,19.561,0,0,1,7.551,0Z" transform="translate(-493.882 -289.642)" fill="#4d352d"/>
        </g>
      </g>
      <g id="Group_335" data-name="Group 335" transform="translate(26.616)">
        <g id="Group_334" data-name="Group 334">
          <path id="Path_6060" data-name="Path 6060" d="M572.966,294.967a.513.513,0,0,0,.617-.492v-.006a4.412,4.412,0,1,0-8.784,0v.006a.513.513,0,0,0,.617.492,19.56,19.56,0,0,1,7.551,0Z" transform="translate(-564.799 -289.642)" fill="#4d352d"/>
        </g>
      </g>
    </g>
    <g id="Group_340" data-name="Group 340" transform="translate(433.947 212.402)">
      <g id="Group_339" data-name="Group 339">
        <g id="Group_338" data-name="Group 338">
          <g id="Group_337" data-name="Group 337">
            <path id="Path_6061" data-name="Path 6061" d="M535.109,333.555a4.587,4.587,0,0,1-8.828,0,.913.913,0,0,0-1.76.485,6.413,6.413,0,0,0,12.348,0,.913.913,0,0,0-1.76-.485Z" transform="translate(-524.48 -332.915)" fill="#4d352d"/>
          </g>
        </g>
      </g>
    </g>
  </g>
</svg>
