<svg xmlns="http://www.w3.org/2000/svg" width="500" height="250" viewBox="0 0 500 250">
  <g id="Group_48" data-name="Group 48" opacity="0.05">
    <path id="Path_5925" data-name="Path 5925" d="M2120.133-352.028a1.115,1.115,0,0,0,.878,1.309,31.741,31.741,0,0,0,4.979.54v-2.229a29.35,29.35,0,0,1-4.549-.5A1.113,1.113,0,0,0,2120.133-352.028Z" transform="translate(-1625.99 481.283)" fill="#212121"/>
    <path id="Path_5926" data-name="Path 5926" d="M2130.84-395.624a1.115,1.115,0,0,0,.089,1.3,2.784,2.784,0,0,1,.342.577v-2.276A1.116,1.116,0,0,0,2130.84-395.624Z" transform="translate(-1631.27 502.83)" fill="#212121"/>
    <path id="Path_5927" data-name="Path 5927" d="M1133.217-373.586a1.114,1.114,0,0,0-1.3-.884l-.044.008v2.264q.228-.039.463-.084A1.114,1.114,0,0,0,1133.217-373.586Z" transform="translate(-1131.869 492.064)" fill="#212121"/>
    <g id="Group_46" data-name="Group 46">
      <path id="Path_5928" data-name="Path 5928" d="M2099.1-609.638h-2.4a5.224,5.224,0,0,0,.567,1.276,7.344,7.344,0,0,0-5.1,6.619,6.866,6.866,0,0,0,1.888,5.378c2.971,3.228,9.341,5.019,17.938,5.045H2112v-18.319Z" transform="translate(-1612.005 609.638)" fill="#212121"/>
      <path id="Path_5929" data-name="Path 5929" d="M1627.516-607.585a12.094,12.094,0,0,0-1.689-.6,6.2,6.2,0,0,0,.654-1.456H1596.7a5.206,5.206,0,0,0,.567,1.276,7.344,7.344,0,0,0-5.1,6.619,6.864,6.864,0,0,0,1.889,5.378c2.97,3.228,9.341,5.019,17.938,5.045h.15c4.125,0,13.771-.52,17.873-5.126a7.194,7.194,0,0,0,1.792-5.872A6.6,6.6,0,0,0,1627.516-607.585Z" transform="translate(-1362.005 609.638)" fill="#212121"/>
      <path id="Path_5930" data-name="Path 5930" d="M1623.3-136.825a4.08,4.08,0,0,0,.387-2.019c-.258-4.667-4.413-6.882-6.573-7.4a1.109,1.109,0,0,0-.776.1h0a1.115,1.115,0,0,0-.43.4,1.115,1.115,0,0,0,.089,1.3,2.779,2.779,0,0,1,.341.577h0a1.224,1.224,0,0,1,.132.734.548.548,0,0,1-.132.23h0a1.874,1.874,0,0,1-.676.414,9.162,9.162,0,0,1-2.8.435c-2.135.121-4.792.271-5.737,3.526a3.63,3.63,0,0,0,.019,2.161,10.849,10.849,0,0,0-1.944.583,6.551,6.551,0,0,0-4.252,4.833,6.237,6.237,0,0,0,.079,3h29.784a6,6,0,0,0,.172-2.714C1630.306-134.792,1625.927-136.292,1623.3-136.825Z" transform="translate(-1366.338 377.957)" fill="#212121"/>
      <path id="Path_5931" data-name="Path 5931" d="M2130.84-145.624a1.115,1.115,0,0,0,.089,1.3,2.784,2.784,0,0,1,.342.577v-2.276A1.116,1.116,0,0,0,2130.84-145.624Z" transform="translate(-1631.27 377.83)" fill="#212121"/>
      <path id="Path_5932" data-name="Path 5932" d="M2112.865-138.693c-2.135.12-4.792.27-5.736,3.525a3.626,3.626,0,0,0,.019,2.161,10.845,10.845,0,0,0-1.944.583,6.552,6.552,0,0,0-4.253,4.833,6.231,6.231,0,0,0,.079,3h15.308v-14.952a1.874,1.874,0,0,1-.676.414A9.164,9.164,0,0,1,2112.865-138.693Z" transform="translate(-1616.338 374.591)" fill="#212121"/>
      <path id="Path_5933" data-name="Path 5933" d="M1877.516-375.9a12.113,12.113,0,0,0-1.688-.6,6.033,6.033,0,0,0,.825-4.171c-.681-4.121-5.06-5.621-7.686-6.154a4.082,4.082,0,0,0,.386-2.02c-.258-4.667-4.413-6.882-6.573-7.4a1.114,1.114,0,0,0-1.207.495,1.115,1.115,0,0,0,.089,1.3,2,2,0,0,1,.473,1.31c-.076.3-.481.514-.808.644a9.162,9.162,0,0,1-2.8.435c-2.135.12-4.792.271-5.737,3.526a3.63,3.63,0,0,0,.019,2.161,10.862,10.862,0,0,0-1.943.582,6.551,6.551,0,0,0-4.253,4.833,5.748,5.748,0,0,0,.646,4.277,7.343,7.343,0,0,0-5.1,6.619,6.865,6.865,0,0,0,1.888,5.378c2.97,3.227,9.341,5.018,17.938,5.045h.151c4.125,0,13.771-.519,17.873-5.126a7.2,7.2,0,0,0,1.792-5.872A6.6,6.6,0,0,0,1877.516-375.9Z" transform="translate(-1487.005 502.957)" fill="#212121"/>
      <path id="Path_5934" data-name="Path 5934" d="M1147.38-607.585a12.089,12.089,0,0,0-1.689-.6,6.188,6.188,0,0,0,.654-1.456h-14.476v18.319h.137c4.125,0,13.771-.52,17.873-5.126a7.2,7.2,0,0,0,1.792-5.872A6.6,6.6,0,0,0,1147.38-607.585Z" transform="translate(-1131.869 609.638)" fill="#212121"/>
      <path id="Path_5935" data-name="Path 5935" d="M1138.832-136.825a4.082,4.082,0,0,0,.386-2.019c-.258-4.667-4.413-6.882-6.573-7.4a1.109,1.109,0,0,0-.776.1v2.276a1.225,1.225,0,0,1,.132.734.547.547,0,0,1-.132.23v14.952h14.476a6.006,6.006,0,0,0,.172-2.714C1145.836-134.792,1141.457-136.292,1138.832-136.825Z" transform="translate(-1131.869 377.957)" fill="#212121"/>
      <path id="Path_5936" data-name="Path 5936" d="M1377.516-375.9a12.1,12.1,0,0,0-1.689-.6,6.031,6.031,0,0,0,.825-4.171c-.68-4.121-5.06-5.621-7.686-6.154a4.079,4.079,0,0,0,.387-2.02c-.258-4.667-4.412-6.882-6.573-7.4a1.114,1.114,0,0,0-1.206.495,1.115,1.115,0,0,0,.089,1.3,2,2,0,0,1,.474,1.31c-.077.3-.482.514-.808.644a9.162,9.162,0,0,1-2.8.435c-2.135.12-4.792.271-5.736,3.526a3.629,3.629,0,0,0,.019,2.161,10.851,10.851,0,0,0-1.944.582,6.551,6.551,0,0,0-4.252,4.833,5.746,5.746,0,0,0,.646,4.277,7.344,7.344,0,0,0-5.1,6.619,6.865,6.865,0,0,0,1.889,5.378c2.97,3.227,9.341,5.018,17.938,5.045h.15c4.125,0,13.771-.519,17.873-5.126a7.193,7.193,0,0,0,1.792-5.872A6.6,6.6,0,0,0,1377.516-375.9Z" transform="translate(-1237.005 502.957)" fill="#212121"/>
    </g>
    <g id="Group_47" data-name="Group 47">
      <path id="Path_5937" data-name="Path 5937" d="M1877.516-607.585a12.106,12.106,0,0,0-1.688-.6,6.206,6.206,0,0,0,.653-1.456H1874.1a4.234,4.234,0,0,1-.446.7c-.95,1.21-3.119,2.733-8.057,3.109a31.567,31.567,0,0,1-8.139-.428,1.113,1.113,0,0,0-1.308.878,1.115,1.115,0,0,0,.879,1.309,32.787,32.787,0,0,0,6.163.56c.867,0,1.733-.031,2.575-.1,4.229-.323,6.787-1.468,8.334-2.672,1.2.191,5.116,1.054,5.5,4.23a4.987,4.987,0,0,1-1.243,4.125c-2.877,3.231-10.231,4.38-16.209,4.38H1862c-7.854-.024-13.8-1.6-16.305-4.326a4.656,4.656,0,0,1-1.307-3.691,5.314,5.314,0,0,1,4.718-4.952,6.652,6.652,0,0,0,2.031.885,1.1,1.1,0,0,0,.256.03,1.115,1.115,0,0,0,1.084-.859,1.115,1.115,0,0,0-.83-1.341,4.11,4.11,0,0,1-2.547-1.836h-2.4a5.215,5.215,0,0,0,.567,1.276,7.343,7.343,0,0,0-5.1,6.619,6.865,6.865,0,0,0,1.888,5.378c2.97,3.228,9.341,5.019,17.938,5.045h.151c4.125,0,13.771-.52,17.873-5.126a7.2,7.2,0,0,0,1.792-5.872A6.6,6.6,0,0,0,1877.516-607.585Z" transform="translate(-1487.005 609.638)" fill="#212121"/>
      <path id="Path_5938" data-name="Path 5938" d="M1873.3-136.825a4.081,4.081,0,0,0,.386-2.02c-.258-4.667-4.412-6.882-6.573-7.4a1.114,1.114,0,0,0-1.206.494,1.115,1.115,0,0,0,.089,1.3,2,2,0,0,1,.474,1.31c-.077.3-.482.514-.808.644a9.164,9.164,0,0,1-2.8.436c-2.135.12-4.792.271-5.736,3.525a3.629,3.629,0,0,0,.019,2.161,10.9,10.9,0,0,0-1.943.582,6.553,6.553,0,0,0-4.253,4.834,6.231,6.231,0,0,0,.079,3h2.4a3.7,3.7,0,0,1-.3-2.566c.657-3.31,4.729-3.755,5.381-3.8a7.4,7.4,0,0,0,4.965,1.5,17.707,17.707,0,0,0,3.318-.345,1.114,1.114,0,0,0,.885-1.3,1.114,1.114,0,0,0-1.3-.885c-4.535.869-6.192-.359-6.694-.927a1.681,1.681,0,0,1-.433-1.577l.01-.035c.482-1.676,1.549-1.81,3.725-1.933a11.1,11.1,0,0,0,3.492-.588,3.221,3.221,0,0,0,2.147-2.163,2.83,2.83,0,0,0,.083-.544,5.5,5.5,0,0,1,2.75,4.412,2.28,2.28,0,0,1-1.515,2.15,1.114,1.114,0,0,0-.668,1.427,1.114,1.114,0,0,0,1.427.669,4.409,4.409,0,0,0,.775-.383,15.1,15.1,0,0,1,3.4.781c2.32.848,3.634,2.115,3.907,3.768a3.764,3.764,0,0,1-.357,2.351h2.385a6,6,0,0,0,.172-2.714C1880.306-134.792,1875.926-136.292,1873.3-136.825Z" transform="translate(-1491.338 377.957)" fill="#212121"/>
      <path id="Path_5939" data-name="Path 5939" d="M2002.516-500.9a12.105,12.105,0,0,0-1.688-.6,6.033,6.033,0,0,0,.825-4.171c-.681-4.121-5.06-5.621-7.686-6.154a4.082,4.082,0,0,0,.386-2.019c-.258-4.667-4.413-6.882-6.573-7.4a1.114,1.114,0,0,0-1.207.495,1.115,1.115,0,0,0,.089,1.3,2,2,0,0,1,.473,1.311c-.076.3-.481.514-.808.643a9.16,9.16,0,0,1-2.8.436c-2.135.12-4.792.271-5.737,3.526a3.63,3.63,0,0,0,.019,2.161,10.9,10.9,0,0,0-1.943.582,6.553,6.553,0,0,0-4.253,4.834,5.748,5.748,0,0,0,.646,4.277,7.343,7.343,0,0,0-5.1,6.619,6.865,6.865,0,0,0,1.888,5.379c2.97,3.227,9.341,5.018,17.938,5.045h.151c4.125,0,13.771-.52,17.873-5.126a7.2,7.2,0,0,0,1.792-5.872A6.6,6.6,0,0,0,2002.516-500.9Zm.834,9.658c-2.877,3.231-10.231,4.379-16.209,4.379H1987c-7.854-.024-13.8-1.6-16.305-4.326a4.656,4.656,0,0,1-1.307-3.691,5.314,5.314,0,0,1,4.718-4.952,6.652,6.652,0,0,0,2.031.885,1.1,1.1,0,0,0,.256.03,1.115,1.115,0,0,0,1.084-.859,1.115,1.115,0,0,0-.83-1.34,3.624,3.624,0,0,1-2.843-4.4c.657-3.31,4.729-3.755,5.381-3.8a7.4,7.4,0,0,0,4.965,1.5,17.708,17.708,0,0,0,3.318-.346,1.114,1.114,0,0,0,.885-1.3,1.114,1.114,0,0,0-1.3-.884c-4.535.869-6.192-.359-6.694-.927a1.682,1.682,0,0,1-.433-1.577l.01-.035c.482-1.676,1.549-1.81,3.725-1.933a11.093,11.093,0,0,0,3.491-.588,3.221,3.221,0,0,0,2.147-2.163,2.82,2.82,0,0,0,.083-.545,5.5,5.5,0,0,1,2.75,4.413,2.28,2.28,0,0,1-1.514,2.15,1.113,1.113,0,0,0-.668,1.427,1.114,1.114,0,0,0,1.427.668,4.407,4.407,0,0,0,.775-.383,15.093,15.093,0,0,1,3.4.781c2.32.848,3.634,2.115,3.907,3.768a3.818,3.818,0,0,1-.8,3.047c-.95,1.21-3.119,2.732-8.057,3.109a31.563,31.563,0,0,1-8.139-.428,1.113,1.113,0,0,0-1.308.879,1.115,1.115,0,0,0,.879,1.309,32.782,32.782,0,0,0,6.163.56c.867,0,1.733-.031,2.575-.1,4.229-.323,6.787-1.467,8.334-2.672,1.2.191,5.116,1.055,5.5,4.23A4.987,4.987,0,0,1,2003.35-491.246Z" transform="translate(-1549.505 565.457)" fill="#212121"/>
      <path id="Path_5940" data-name="Path 5940" d="M1752.516-500.9a12.094,12.094,0,0,0-1.689-.6,6.031,6.031,0,0,0,.825-4.171c-.68-4.121-5.06-5.621-7.686-6.154a4.079,4.079,0,0,0,.387-2.019c-.258-4.667-4.412-6.882-6.573-7.4a1.114,1.114,0,0,0-1.206.495,1.115,1.115,0,0,0,.089,1.3,2,2,0,0,1,.474,1.311c-.077.3-.482.514-.808.643a9.16,9.16,0,0,1-2.8.436c-2.135.12-4.792.271-5.736,3.526a3.629,3.629,0,0,0,.019,2.161,10.9,10.9,0,0,0-1.944.582,6.553,6.553,0,0,0-4.252,4.834,5.746,5.746,0,0,0,.646,4.277,7.344,7.344,0,0,0-5.1,6.619,6.865,6.865,0,0,0,1.889,5.379c2.97,3.227,9.341,5.018,17.938,5.045h.15c4.125,0,13.771-.52,17.873-5.126a7.193,7.193,0,0,0,1.792-5.872A6.6,6.6,0,0,0,1752.516-500.9Zm.834,9.658c-2.877,3.231-10.23,4.379-16.208,4.379H1737c-7.853-.024-13.8-1.6-16.3-4.326a4.657,4.657,0,0,1-1.306-3.691,5.314,5.314,0,0,1,4.718-4.952,6.652,6.652,0,0,0,2.031.885,1.1,1.1,0,0,0,.256.03,1.115,1.115,0,0,0,1.083-.859,1.115,1.115,0,0,0-.829-1.34,3.624,3.624,0,0,1-2.843-4.4c.657-3.31,4.729-3.755,5.381-3.8a7.4,7.4,0,0,0,4.965,1.5,17.7,17.7,0,0,0,3.318-.346,1.114,1.114,0,0,0,.884-1.3,1.114,1.114,0,0,0-1.3-.884c-4.534.869-6.192-.359-6.694-.927a1.683,1.683,0,0,1-.433-1.577l.01-.035c.482-1.676,1.55-1.81,3.725-1.933a11.094,11.094,0,0,0,3.492-.588,3.221,3.221,0,0,0,2.147-2.163,2.83,2.83,0,0,0,.083-.545,5.5,5.5,0,0,1,2.75,4.413,2.28,2.28,0,0,1-1.515,2.15,1.114,1.114,0,0,0-.668,1.427,1.115,1.115,0,0,0,1.427.668,4.392,4.392,0,0,0,.775-.383,15.093,15.093,0,0,1,3.4.781c2.32.848,3.635,2.115,3.907,3.768a3.819,3.819,0,0,1-.8,3.047c-.95,1.21-3.12,2.732-8.057,3.109a31.563,31.563,0,0,1-8.139-.428,1.113,1.113,0,0,0-1.308.879,1.115,1.115,0,0,0,.878,1.309,32.782,32.782,0,0,0,6.164.56c.867,0,1.732-.031,2.574-.1,4.229-.323,6.787-1.467,8.334-2.672,1.2.191,5.116,1.055,5.5,4.23A4.986,4.986,0,0,1,1753.35-491.246Z" transform="translate(-1424.505 565.457)" fill="#212121"/>
      <path id="Path_5941" data-name="Path 5941" d="M1627.516-375.9a12.094,12.094,0,0,0-1.689-.6,6.031,6.031,0,0,0,.825-4.171c-.68-4.121-5.06-5.621-7.686-6.154a4.079,4.079,0,0,0,.387-2.019c-.258-4.667-4.412-6.882-6.573-7.4a1.109,1.109,0,0,0-.776.1h0a1.114,1.114,0,0,0-.43.4,1.115,1.115,0,0,0,.089,1.3,2.773,2.773,0,0,1,.342.577h0a1.225,1.225,0,0,1,.132.734.549.549,0,0,1-.132.23h0a1.874,1.874,0,0,1-.676.414,9.163,9.163,0,0,1-2.8.436c-2.135.12-4.792.271-5.736,3.526a3.629,3.629,0,0,0,.019,2.161,10.851,10.851,0,0,0-1.944.582,6.551,6.551,0,0,0-4.252,4.833,5.746,5.746,0,0,0,.646,4.277,7.344,7.344,0,0,0-5.1,6.619,6.865,6.865,0,0,0,1.889,5.379c2.97,3.227,9.341,5.018,17.938,5.045h.15c4.125,0,13.771-.52,17.873-5.126a7.194,7.194,0,0,0,1.792-5.872A6.6,6.6,0,0,0,1627.516-375.9Zm.834,9.658c-2.877,3.231-10.23,4.379-16.208,4.379H1612c-7.853-.024-13.8-1.6-16.3-4.326a4.657,4.657,0,0,1-1.306-3.691,5.314,5.314,0,0,1,4.718-4.952,6.652,6.652,0,0,0,2.031.885,1.1,1.1,0,0,0,.256.03,1.115,1.115,0,0,0,1.083-.859,1.115,1.115,0,0,0-.829-1.34,3.624,3.624,0,0,1-2.842-4.4c.657-3.31,4.729-3.755,5.381-3.8a7.4,7.4,0,0,0,4.965,1.5,17.056,17.056,0,0,0,2.855-.262c.152-.026.306-.054.463-.084a1.114,1.114,0,0,0,.884-1.3,1.114,1.114,0,0,0-1.3-.884l-.043.008c-4.5.852-6.15-.369-6.651-.936a1.683,1.683,0,0,1-.433-1.577l.01-.035c.482-1.676,1.55-1.81,3.725-1.933a11.551,11.551,0,0,0,3.348-.534h0c.048-.018.1-.035.144-.054a3.221,3.221,0,0,0,2.147-2.163,2.83,2.83,0,0,0,.083-.544,5.5,5.5,0,0,1,2.75,4.413,2.28,2.28,0,0,1-1.515,2.15,1.114,1.114,0,0,0-.668,1.427,1.115,1.115,0,0,0,1.427.668,4.392,4.392,0,0,0,.775-.383,15.093,15.093,0,0,1,3.4.781c2.32.848,3.635,2.115,3.907,3.768a3.819,3.819,0,0,1-.8,3.047c-.95,1.21-3.12,2.732-8.057,3.109a32.435,32.435,0,0,1-3.589.07,29.354,29.354,0,0,1-4.55-.5,1.113,1.113,0,0,0-1.308.879,1.115,1.115,0,0,0,.878,1.309,31.738,31.738,0,0,0,4.979.54q.591.02,1.185.02c.867,0,1.732-.031,2.574-.1,4.229-.323,6.787-1.467,8.334-2.672,1.2.191,5.116,1.055,5.5,4.23A4.986,4.986,0,0,1,1628.35-366.246Z" transform="translate(-1362.005 502.957)" fill="#212121"/>
      <path id="Path_5942" data-name="Path 5942" d="M2108.531-388.693c-2.135.12-4.792.271-5.736,3.526a3.626,3.626,0,0,0,.019,2.161,10.857,10.857,0,0,0-1.944.582,6.552,6.552,0,0,0-4.253,4.833,5.748,5.748,0,0,0,.646,4.277,7.344,7.344,0,0,0-5.1,6.619,6.866,6.866,0,0,0,1.888,5.379c2.971,3.227,9.341,5.018,17.938,5.045H2112V-358.5H2112c-7.854-.024-13.8-1.6-16.3-4.326a4.657,4.657,0,0,1-1.307-3.691,5.314,5.314,0,0,1,4.718-4.952,6.651,6.651,0,0,0,2.031.885,1.1,1.1,0,0,0,.256.03,1.115,1.115,0,0,0,1.084-.859,1.115,1.115,0,0,0-.829-1.34,3.624,3.624,0,0,1-2.843-4.4c.658-3.31,4.729-3.755,5.381-3.8a7.4,7.4,0,0,0,4.965,1.5,17.057,17.057,0,0,0,2.855-.262v-2.264c-4.5.852-6.15-.369-6.65-.936a1.681,1.681,0,0,1-.433-1.577l.01-.035c.482-1.676,1.55-1.81,3.726-1.933A11.552,11.552,0,0,0,2112-387v-2.54a1.874,1.874,0,0,1-.676.414A9.165,9.165,0,0,1,2108.531-388.693Z" transform="translate(-1612.005 499.591)" fill="#212121"/>
      <path id="Path_5943" data-name="Path 5943" d="M2002.516-250.9a12.113,12.113,0,0,0-1.688-.6,6.033,6.033,0,0,0,.825-4.17c-.681-4.121-5.06-5.621-7.686-6.154a4.082,4.082,0,0,0,.386-2.019c-.258-4.667-4.413-6.882-6.573-7.4a1.114,1.114,0,0,0-1.207.495,1.115,1.115,0,0,0,.089,1.3,2,2,0,0,1,.473,1.31c-.076.3-.481.514-.808.644a9.162,9.162,0,0,1-2.8.435c-2.135.12-4.792.271-5.737,3.526a3.63,3.63,0,0,0,.019,2.161,10.9,10.9,0,0,0-1.943.582,6.553,6.553,0,0,0-4.253,4.834,5.748,5.748,0,0,0,.646,4.277,7.343,7.343,0,0,0-5.1,6.619,6.865,6.865,0,0,0,1.888,5.378c2.97,3.227,9.341,5.019,17.938,5.045h.151c4.125,0,13.771-.52,17.873-5.126a7.2,7.2,0,0,0,1.792-5.872A6.6,6.6,0,0,0,2002.516-250.9Zm.834,9.658c-2.877,3.231-10.231,4.38-16.209,4.38H1987c-7.854-.024-13.8-1.6-16.305-4.326a4.656,4.656,0,0,1-1.307-3.691,5.314,5.314,0,0,1,4.718-4.952,6.652,6.652,0,0,0,2.031.885,1.1,1.1,0,0,0,.256.03,1.115,1.115,0,0,0,1.084-.859,1.115,1.115,0,0,0-.83-1.34,3.624,3.624,0,0,1-2.843-4.4c.657-3.31,4.729-3.755,5.381-3.8a7.4,7.4,0,0,0,4.965,1.5,17.707,17.707,0,0,0,3.318-.345,1.114,1.114,0,0,0,.885-1.3,1.114,1.114,0,0,0-1.3-.884c-4.535.869-6.192-.359-6.694-.927a1.682,1.682,0,0,1-.433-1.577l.01-.035c.482-1.676,1.549-1.81,3.725-1.933a11.094,11.094,0,0,0,3.491-.588,3.221,3.221,0,0,0,2.147-2.163,2.821,2.821,0,0,0,.083-.544,5.5,5.5,0,0,1,2.75,4.412,2.28,2.28,0,0,1-1.514,2.15,1.113,1.113,0,0,0-.668,1.427,1.114,1.114,0,0,0,1.427.668,4.407,4.407,0,0,0,.775-.383,15.093,15.093,0,0,1,3.4.781c2.32.848,3.634,2.115,3.907,3.768a3.818,3.818,0,0,1-.8,3.047c-.95,1.21-3.119,2.732-8.057,3.109a31.563,31.563,0,0,1-8.139-.428,1.113,1.113,0,0,0-1.308.879,1.115,1.115,0,0,0,.879,1.309,32.78,32.78,0,0,0,6.163.56c.867,0,1.733-.031,2.575-.1,4.229-.323,6.787-1.467,8.334-2.672,1.2.191,5.116,1.055,5.5,4.23A4.987,4.987,0,0,1,2003.35-241.246Z" transform="translate(-1549.505 440.457)" fill="#212121"/>
      <path id="Path_5944" data-name="Path 5944" d="M1752.516-250.9a12.1,12.1,0,0,0-1.689-.6,6.031,6.031,0,0,0,.825-4.17c-.68-4.121-5.06-5.621-7.686-6.154a4.079,4.079,0,0,0,.387-2.019c-.258-4.667-4.412-6.882-6.573-7.4a1.114,1.114,0,0,0-1.206.495,1.115,1.115,0,0,0,.089,1.3,2,2,0,0,1,.474,1.31c-.077.3-.482.514-.808.644a9.162,9.162,0,0,1-2.8.435c-2.135.12-4.792.271-5.736,3.526a3.629,3.629,0,0,0,.019,2.161,10.9,10.9,0,0,0-1.944.582,6.553,6.553,0,0,0-4.252,4.834,5.746,5.746,0,0,0,.646,4.277,7.344,7.344,0,0,0-5.1,6.619,6.865,6.865,0,0,0,1.889,5.378c2.97,3.227,9.341,5.019,17.938,5.045h.15c4.125,0,13.771-.52,17.873-5.126a7.193,7.193,0,0,0,1.792-5.872A6.6,6.6,0,0,0,1752.516-250.9Zm.834,9.658c-2.877,3.231-10.23,4.38-16.208,4.38H1737c-7.853-.024-13.8-1.6-16.3-4.326a4.657,4.657,0,0,1-1.306-3.691,5.314,5.314,0,0,1,4.718-4.952,6.652,6.652,0,0,0,2.031.885,1.1,1.1,0,0,0,.256.03,1.115,1.115,0,0,0,1.083-.859,1.115,1.115,0,0,0-.829-1.34,3.624,3.624,0,0,1-2.843-4.4c.657-3.31,4.729-3.755,5.381-3.8a7.4,7.4,0,0,0,4.965,1.5,17.7,17.7,0,0,0,3.318-.345,1.114,1.114,0,0,0,.884-1.3,1.114,1.114,0,0,0-1.3-.884c-4.534.869-6.192-.359-6.694-.927a1.683,1.683,0,0,1-.433-1.577l.01-.035c.482-1.676,1.55-1.81,3.725-1.933a11.1,11.1,0,0,0,3.492-.588,3.221,3.221,0,0,0,2.147-2.163,2.831,2.831,0,0,0,.083-.544,5.5,5.5,0,0,1,2.75,4.412,2.28,2.28,0,0,1-1.515,2.15,1.114,1.114,0,0,0-.668,1.427,1.115,1.115,0,0,0,1.427.668,4.392,4.392,0,0,0,.775-.383,15.093,15.093,0,0,1,3.4.781c2.32.848,3.635,2.115,3.907,3.768a3.819,3.819,0,0,1-.8,3.047c-.95,1.21-3.12,2.732-8.057,3.109a31.564,31.564,0,0,1-8.139-.428,1.113,1.113,0,0,0-1.308.879,1.115,1.115,0,0,0,.878,1.309,32.781,32.781,0,0,0,6.164.56c.867,0,1.732-.031,2.574-.1,4.229-.323,6.787-1.467,8.334-2.672,1.2.191,5.116,1.055,5.5,4.23A4.986,4.986,0,0,1,1753.35-241.246Z" transform="translate(-1424.505 440.457)" fill="#212121"/>
      <path id="Path_5945" data-name="Path 5945" d="M1377.516-607.585a12.094,12.094,0,0,0-1.689-.6,6.2,6.2,0,0,0,.654-1.456H1374.1a4.264,4.264,0,0,1-.446.7c-.95,1.21-3.12,2.733-8.057,3.109a31.568,31.568,0,0,1-8.139-.428,1.113,1.113,0,0,0-1.308.878,1.115,1.115,0,0,0,.878,1.309,32.787,32.787,0,0,0,6.164.56c.867,0,1.732-.031,2.574-.1,4.229-.323,6.787-1.468,8.334-2.672,1.2.191,5.116,1.054,5.5,4.23a4.986,4.986,0,0,1-1.243,4.125c-2.877,3.231-10.23,4.38-16.208,4.38H1362c-7.853-.024-13.8-1.6-16.3-4.326a4.656,4.656,0,0,1-1.306-3.691,5.314,5.314,0,0,1,4.718-4.952,6.652,6.652,0,0,0,2.031.885,1.1,1.1,0,0,0,.256.03,1.115,1.115,0,0,0,1.083-.859,1.115,1.115,0,0,0-.829-1.341,4.112,4.112,0,0,1-2.547-1.836h-2.4a5.206,5.206,0,0,0,.567,1.276,7.344,7.344,0,0,0-5.1,6.619,6.864,6.864,0,0,0,1.889,5.378c2.97,3.228,9.341,5.019,17.938,5.045h.15c4.125,0,13.771-.52,17.873-5.126a7.193,7.193,0,0,0,1.792-5.872A6.6,6.6,0,0,0,1377.516-607.585Z" transform="translate(-1237.005 609.638)" fill="#212121"/>
      <path id="Path_5946" data-name="Path 5946" d="M1373.3-136.825a4.081,4.081,0,0,0,.387-2.02c-.258-4.667-4.413-6.882-6.573-7.4a1.114,1.114,0,0,0-1.207.494,1.115,1.115,0,0,0,.089,1.3,2,2,0,0,1,.474,1.31c-.077.3-.481.514-.808.644a9.162,9.162,0,0,1-2.8.436c-2.135.12-4.792.271-5.737,3.525a3.63,3.63,0,0,0,.019,2.161,10.886,10.886,0,0,0-1.944.582,6.553,6.553,0,0,0-4.252,4.834,6.237,6.237,0,0,0,.079,3h2.4a3.706,3.706,0,0,1-.3-2.566c.657-3.31,4.729-3.755,5.381-3.8a7.4,7.4,0,0,0,4.965,1.5,17.7,17.7,0,0,0,3.318-.345,1.114,1.114,0,0,0,.884-1.3,1.114,1.114,0,0,0-1.3-.885c-4.535.869-6.192-.359-6.694-.927a1.683,1.683,0,0,1-.433-1.577l.01-.035c.482-1.676,1.55-1.81,3.726-1.933a11.1,11.1,0,0,0,3.491-.588,3.22,3.22,0,0,0,2.147-2.163,2.82,2.82,0,0,0,.083-.544,5.5,5.5,0,0,1,2.75,4.412,2.279,2.279,0,0,1-1.514,2.15,1.113,1.113,0,0,0-.668,1.427,1.114,1.114,0,0,0,1.427.669,4.409,4.409,0,0,0,.775-.383,15.093,15.093,0,0,1,3.4.781c2.32.848,3.635,2.115,3.907,3.768a3.764,3.764,0,0,1-.357,2.351h2.385a6,6,0,0,0,.172-2.714C1380.306-134.792,1375.927-136.292,1373.3-136.825Z" transform="translate(-1241.338 377.957)" fill="#212121"/>
      <path id="Path_5947" data-name="Path 5947" d="M1502.516-500.9a12.088,12.088,0,0,0-1.689-.6,6.031,6.031,0,0,0,.826-4.171c-.681-4.121-5.06-5.621-7.686-6.154a4.079,4.079,0,0,0,.387-2.019c-.258-4.667-4.412-6.882-6.573-7.4a1.114,1.114,0,0,0-1.206.495,1.115,1.115,0,0,0,.089,1.3,2,2,0,0,1,.474,1.311c-.077.3-.482.514-.808.643a9.16,9.16,0,0,1-2.8.436c-2.135.12-4.792.271-5.736,3.526a3.629,3.629,0,0,0,.019,2.161,10.886,10.886,0,0,0-1.944.582,6.553,6.553,0,0,0-4.252,4.834,5.746,5.746,0,0,0,.646,4.277,7.344,7.344,0,0,0-5.1,6.619,6.865,6.865,0,0,0,1.889,5.379c2.97,3.227,9.341,5.018,17.938,5.045h.15c4.125,0,13.771-.52,17.873-5.126a7.193,7.193,0,0,0,1.792-5.872A6.6,6.6,0,0,0,1502.516-500.9Zm.834,9.658c-2.877,3.231-10.23,4.379-16.209,4.379H1487c-7.853-.024-13.8-1.6-16.3-4.326a4.657,4.657,0,0,1-1.306-3.691,5.314,5.314,0,0,1,4.718-4.952,6.652,6.652,0,0,0,2.031.885,1.1,1.1,0,0,0,.256.03,1.115,1.115,0,0,0,1.083-.859,1.115,1.115,0,0,0-.829-1.34,3.624,3.624,0,0,1-2.842-4.4c.657-3.31,4.729-3.755,5.381-3.8a7.4,7.4,0,0,0,4.965,1.5,17.7,17.7,0,0,0,3.318-.346,1.114,1.114,0,0,0,.884-1.3,1.114,1.114,0,0,0-1.3-.884c-4.534.869-6.192-.359-6.694-.927a1.683,1.683,0,0,1-.433-1.577l.01-.035c.482-1.676,1.55-1.81,3.725-1.933a11.094,11.094,0,0,0,3.492-.588,3.221,3.221,0,0,0,2.147-2.163,2.83,2.83,0,0,0,.083-.545,5.5,5.5,0,0,1,2.75,4.413,2.28,2.28,0,0,1-1.515,2.15,1.113,1.113,0,0,0-.668,1.427,1.115,1.115,0,0,0,1.427.668,4.408,4.408,0,0,0,.775-.383,15.093,15.093,0,0,1,3.4.781c2.32.848,3.635,2.115,3.907,3.768a3.819,3.819,0,0,1-.8,3.047c-.95,1.21-3.12,2.732-8.057,3.109a31.563,31.563,0,0,1-8.139-.428,1.113,1.113,0,0,0-1.308.879,1.115,1.115,0,0,0,.878,1.309,32.782,32.782,0,0,0,6.164.56c.867,0,1.732-.031,2.574-.1,4.229-.323,6.787-1.467,8.334-2.672,1.2.191,5.116,1.055,5.5,4.23A4.987,4.987,0,0,1,1503.35-491.246Z" transform="translate(-1299.505 565.457)" fill="#212121"/>
      <path id="Path_5948" data-name="Path 5948" d="M1252.516-500.9a12.094,12.094,0,0,0-1.689-.6,6.031,6.031,0,0,0,.825-4.171c-.68-4.121-5.06-5.621-7.686-6.154a4.079,4.079,0,0,0,.387-2.019c-.258-4.667-4.412-6.882-6.573-7.4a1.114,1.114,0,0,0-1.206.495,1.115,1.115,0,0,0,.089,1.3,2,2,0,0,1,.474,1.311c-.077.3-.482.514-.808.643a9.16,9.16,0,0,1-2.8.436c-2.135.12-4.792.271-5.736,3.526a3.629,3.629,0,0,0,.019,2.161,10.9,10.9,0,0,0-1.944.582,6.553,6.553,0,0,0-4.252,4.834,5.746,5.746,0,0,0,.646,4.277,7.344,7.344,0,0,0-5.1,6.619,6.865,6.865,0,0,0,1.889,5.379c2.97,3.227,9.341,5.018,17.938,5.045h.15c4.125,0,13.771-.52,17.873-5.126a7.193,7.193,0,0,0,1.792-5.872A6.6,6.6,0,0,0,1252.516-500.9Zm.834,9.658c-2.877,3.231-10.23,4.379-16.208,4.379H1237c-7.853-.024-13.8-1.6-16.3-4.326a4.657,4.657,0,0,1-1.306-3.691,5.314,5.314,0,0,1,4.718-4.952,6.652,6.652,0,0,0,2.031.885,1.1,1.1,0,0,0,.256.03,1.115,1.115,0,0,0,1.083-.859,1.115,1.115,0,0,0-.829-1.34,3.624,3.624,0,0,1-2.843-4.4c.657-3.31,4.729-3.755,5.381-3.8a7.4,7.4,0,0,0,4.965,1.5,17.7,17.7,0,0,0,3.318-.346,1.114,1.114,0,0,0,.884-1.3,1.114,1.114,0,0,0-1.3-.884c-4.534.869-6.192-.359-6.694-.927a1.683,1.683,0,0,1-.433-1.577l.01-.035c.482-1.676,1.55-1.81,3.725-1.933a11.094,11.094,0,0,0,3.492-.588,3.221,3.221,0,0,0,2.147-2.163,2.83,2.83,0,0,0,.083-.545,5.5,5.5,0,0,1,2.75,4.413,2.28,2.28,0,0,1-1.515,2.15,1.114,1.114,0,0,0-.668,1.427,1.115,1.115,0,0,0,1.427.668,4.392,4.392,0,0,0,.775-.383,15.093,15.093,0,0,1,3.4.781c2.32.848,3.635,2.115,3.907,3.768a3.819,3.819,0,0,1-.8,3.047c-.95,1.21-3.12,2.732-8.057,3.109a31.563,31.563,0,0,1-8.139-.428,1.113,1.113,0,0,0-1.308.879,1.115,1.115,0,0,0,.878,1.309,32.782,32.782,0,0,0,6.164.56c.867,0,1.732-.031,2.574-.1,4.229-.323,6.787-1.467,8.334-2.672,1.2.191,5.116,1.055,5.5,4.23A4.986,4.986,0,0,1,1253.35-491.246Z" transform="translate(-1174.505 565.457)" fill="#212121"/>
      <path id="Path_5949" data-name="Path 5949" d="M1147.38-375.9a12.088,12.088,0,0,0-1.689-.6,6.031,6.031,0,0,0,.826-4.171c-.681-4.121-5.06-5.621-7.686-6.154a4.082,4.082,0,0,0,.386-2.019c-.258-4.667-4.413-6.882-6.573-7.4a1.109,1.109,0,0,0-.776.1v2.276a1.225,1.225,0,0,1,.132.734.547.547,0,0,1-.132.23v2.54c.048-.018.1-.035.144-.054a3.221,3.221,0,0,0,2.147-2.163,2.82,2.82,0,0,0,.083-.544,5.5,5.5,0,0,1,2.75,4.413,2.279,2.279,0,0,1-1.514,2.15,1.114,1.114,0,0,0-.668,1.427,1.114,1.114,0,0,0,1.427.668,4.386,4.386,0,0,0,.775-.383,15.093,15.093,0,0,1,3.4.781c2.32.848,3.634,2.115,3.907,3.768a3.819,3.819,0,0,1-.8,3.047c-.951,1.21-3.12,2.732-8.057,3.109a32.435,32.435,0,0,1-3.589.07v2.229c.394.013.789.02,1.184.02.867,0,1.733-.031,2.574-.1,4.229-.323,6.787-1.467,8.334-2.672,1.2.191,5.116,1.055,5.5,4.23a4.987,4.987,0,0,1-1.243,4.125c-2.877,3.231-10.23,4.379-16.209,4.379h-.137v2.229h.137c4.125,0,13.771-.52,17.873-5.126a7.2,7.2,0,0,0,1.792-5.872A6.6,6.6,0,0,0,1147.38-375.9Z" transform="translate(-1131.869 502.957)" fill="#212121"/>
      <path id="Path_5950" data-name="Path 5950" d="M1502.516-250.9a12.1,12.1,0,0,0-1.689-.6,6.031,6.031,0,0,0,.826-4.17c-.681-4.121-5.06-5.621-7.686-6.154a4.079,4.079,0,0,0,.387-2.019c-.258-4.667-4.412-6.882-6.573-7.4a1.114,1.114,0,0,0-1.206.495,1.115,1.115,0,0,0,.089,1.3,2,2,0,0,1,.474,1.31c-.077.3-.482.514-.808.644a9.162,9.162,0,0,1-2.8.435c-2.135.12-4.792.271-5.736,3.526a3.629,3.629,0,0,0,.019,2.161,10.886,10.886,0,0,0-1.944.582,6.553,6.553,0,0,0-4.252,4.834,5.746,5.746,0,0,0,.646,4.277,7.344,7.344,0,0,0-5.1,6.619,6.865,6.865,0,0,0,1.889,5.378c2.97,3.227,9.341,5.019,17.938,5.045h.15c4.125,0,13.771-.52,17.873-5.126a7.193,7.193,0,0,0,1.792-5.872A6.6,6.6,0,0,0,1502.516-250.9Zm.834,9.658c-2.877,3.231-10.23,4.38-16.209,4.38H1487c-7.853-.024-13.8-1.6-16.3-4.326a4.657,4.657,0,0,1-1.306-3.691,5.314,5.314,0,0,1,4.718-4.952,6.652,6.652,0,0,0,2.031.885,1.1,1.1,0,0,0,.256.03,1.115,1.115,0,0,0,1.083-.859,1.115,1.115,0,0,0-.829-1.34,3.624,3.624,0,0,1-2.842-4.4c.657-3.31,4.729-3.755,5.381-3.8a7.4,7.4,0,0,0,4.965,1.5,17.7,17.7,0,0,0,3.318-.345,1.114,1.114,0,0,0,.884-1.3,1.114,1.114,0,0,0-1.3-.884c-4.534.869-6.192-.359-6.694-.927a1.683,1.683,0,0,1-.433-1.577l.01-.035c.482-1.676,1.55-1.81,3.725-1.933a11.1,11.1,0,0,0,3.492-.588,3.221,3.221,0,0,0,2.147-2.163,2.831,2.831,0,0,0,.083-.544,5.5,5.5,0,0,1,2.75,4.412,2.28,2.28,0,0,1-1.515,2.15,1.113,1.113,0,0,0-.668,1.427,1.115,1.115,0,0,0,1.427.668,4.408,4.408,0,0,0,.775-.383,15.093,15.093,0,0,1,3.4.781c2.32.848,3.635,2.115,3.907,3.768a3.819,3.819,0,0,1-.8,3.047c-.95,1.21-3.12,2.732-8.057,3.109a31.564,31.564,0,0,1-8.139-.428,1.113,1.113,0,0,0-1.308.879,1.115,1.115,0,0,0,.878,1.309,32.781,32.781,0,0,0,6.164.56c.867,0,1.732-.031,2.574-.1,4.229-.323,6.787-1.467,8.334-2.672,1.2.191,5.116,1.055,5.5,4.23A4.987,4.987,0,0,1,1503.35-241.246Z" transform="translate(-1299.505 440.457)" fill="#212121"/>
      <path id="Path_5951" data-name="Path 5951" d="M1252.516-250.9a12.1,12.1,0,0,0-1.689-.6,6.031,6.031,0,0,0,.825-4.17c-.68-4.121-5.06-5.621-7.686-6.154a4.079,4.079,0,0,0,.387-2.019c-.258-4.667-4.412-6.882-6.573-7.4a1.114,1.114,0,0,0-1.206.495,1.115,1.115,0,0,0,.089,1.3,2,2,0,0,1,.474,1.31c-.077.3-.482.514-.808.644a9.162,9.162,0,0,1-2.8.435c-2.135.12-4.792.271-5.736,3.526a3.629,3.629,0,0,0,.019,2.161,10.9,10.9,0,0,0-1.944.582,6.553,6.553,0,0,0-4.252,4.834,5.746,5.746,0,0,0,.646,4.277,7.344,7.344,0,0,0-5.1,6.619,6.865,6.865,0,0,0,1.889,5.378c2.97,3.227,9.341,5.019,17.938,5.045h.15c4.125,0,13.771-.52,17.873-5.126a7.193,7.193,0,0,0,1.792-5.872A6.6,6.6,0,0,0,1252.516-250.9Zm.834,9.658c-2.877,3.231-10.23,4.38-16.208,4.38H1237c-7.853-.024-13.8-1.6-16.3-4.326a4.657,4.657,0,0,1-1.306-3.691,5.314,5.314,0,0,1,4.718-4.952,6.652,6.652,0,0,0,2.031.885,1.1,1.1,0,0,0,.256.03,1.115,1.115,0,0,0,1.083-.859,1.115,1.115,0,0,0-.829-1.34,3.624,3.624,0,0,1-2.843-4.4c.657-3.31,4.729-3.755,5.381-3.8a7.4,7.4,0,0,0,4.965,1.5,17.7,17.7,0,0,0,3.318-.345,1.114,1.114,0,0,0,.884-1.3,1.114,1.114,0,0,0-1.3-.884c-4.534.869-6.192-.359-6.694-.927a1.683,1.683,0,0,1-.433-1.577l.01-.035c.482-1.676,1.55-1.81,3.725-1.933a11.1,11.1,0,0,0,3.492-.588,3.221,3.221,0,0,0,2.147-2.163,2.831,2.831,0,0,0,.083-.544,5.5,5.5,0,0,1,2.75,4.412,2.28,2.28,0,0,1-1.515,2.15,1.114,1.114,0,0,0-.668,1.427,1.115,1.115,0,0,0,1.427.668,4.392,4.392,0,0,0,.775-.383,15.093,15.093,0,0,1,3.4.781c2.32.848,3.635,2.115,3.907,3.768a3.819,3.819,0,0,1-.8,3.047c-.95,1.21-3.12,2.732-8.057,3.109a31.564,31.564,0,0,1-8.139-.428,1.113,1.113,0,0,0-1.308.879,1.115,1.115,0,0,0,.878,1.309,32.781,32.781,0,0,0,6.164.56c.867,0,1.732-.031,2.574-.1,4.229-.323,6.787-1.467,8.334-2.672,1.2.191,5.116,1.055,5.5,4.23A4.986,4.986,0,0,1,1253.35-241.246Z" transform="translate(-1174.505 440.457)" fill="#212121"/>
    </g>
  </g>
</svg>
