<svg xmlns="http://www.w3.org/2000/svg" width="150" height="29.371" viewBox="0 0 150 29.371">
  <g id="Group_56" data-name="Group 56" transform="translate(-718.823 -1279.794)">
    <path id="Path_6294" data-name="Path 6294" d="M935.406,1294.506a4.819,4.819,0,0,0-7.069-.161c-1.636,1.768-1.245,4.018,1.04,6.121a16.958,16.958,0,0,1,2.417,2.386,1.9,1.9,0,0,1-.614,2.936c-1.415.882-2.915,1.455-4.512.291-1.292-.941-.443-1.717.136-2.558a2.473,2.473,0,0,0,.389-2.651,1.321,1.321,0,0,0-1.491-.592c-1.11.24-1.419,1.142-1.7,2.059a6.208,6.208,0,0,1-5.717,4.106c-1.866-.073-2.446-1.355-2.691-2.783-.333-1.935,1.351-1.034,2.135-1.217a7.979,7.979,0,0,0,4.969-3.079c1.176-1.662,1.686-3.566.176-5.175-1.443-1.539-3.221-.683-4.738.164-2.912,1.626-4.081,4.322-4.543,7.438-.3,2.025-3.615,5.215-4.749,4.479-1.887-1.224-1.04-3.208-.611-4.856.835-3.208.913-7.256,6.192-6.355a.91.91,0,0,0,1.105-.981c0-.759-.615-.824-1.224-.82-.933.006-1.866,0-3.033,0a23.305,23.305,0,0,0,1.52-3.142c.374-1.2,2.612-2.617.9-3.478-1.657-.832-2.021,1.7-2.817,2.831-1.039,1.47-.949,4.073-3.927,3.419-.214-.047-.669.371-.785.661a.619.619,0,0,0,.457.871c2.483.344,1.161,1.679.79,2.8a17.164,17.164,0,0,0-1.13,3.771c-.272,3.192-2.633,4.231-5.171,5.585-.719-2.951.882-5,1.727-7.219.588-1.547,1.082-3.2-.327-4.467-1.439-1.292-3.028-.587-4.5.239-.268.151-.513.6-1.033.132.117-.744,1.227-1.8-.094-2.328-1.364-.545-1.462.823-1.805,1.611-.676,1.55-1.242,3.147-1.913,4.7-.572,1.323-1.6,2.386-3.09,1.836-1.629-.6-.233-1.75-.04-2.6.777-3.423-.089-4.3-3.495-4.453-4.135-.18-5.487,2.9-7.1,5.478-2.2,3.5-2.085,7.093-.213,8.282,2.14,1.359,5.468.118,7.774-3.543,1.26-2,2.781-1.335,4.16-1.121,1.567.242.339,1.641.541,2.5.2.826-.617,2.215.7,2.371,1.76.209,1.029-1.45,1.162-2.288.568-3.587,1.974-6.661,5.109-8.77.691-.465,1.476-1.165,2.338-.606.984.639.292,1.533.016,2.282-.389,1.057-.939,2.059-1.294,3.126-.679,2.04-1.824,4.479.188,6.019,1.862,1.426,3.723-.4,5.376-1.49a6.56,6.56,0,0,1,.629-.329c1.99,3.285,3.635,3.21,8.044-.407,1.084,2.145,2.844,3.42,5.269,2.735,2.827-.8,5.229-1.838,8.387-.021,1.94,1.117,4.941-.264,6.293-2.69,1.3-2.327-.4-3.859-1.923-5.338-.544-.529-1.07-1.079-1.626-1.6-1.118-1.04-1.644-2.218-.324-3.371,1.241-1.085,2.676-1.148,3.733.286.6.816,1.1,1.51,2.245,1.213v-1.695C935.809,1294.865,935.6,1294.7,935.406,1294.506Zm-16.062,1.3c.636-.33,1.471-.849,2.085-.121a1.778,1.778,0,0,1-.14,2.326,5.766,5.766,0,0,1-5.416,2.479A6.518,6.518,0,0,1,919.344,1295.809Zm-36.561,10.032c-.77.438-1.548.831-2.372.277a1.933,1.933,0,0,1-.6-2.282,14.414,14.414,0,0,1,5.018-7.812c.275,1.252.377,2.085.644,2.864C886.49,1301.866,885.575,1304.254,882.782,1305.841Zm4.757-7.262a2.2,2.2,0,0,1-.193-2.6.756.756,0,0,1,.656-.031A1.806,1.806,0,0,1,887.539,1298.579Z" transform="translate(-67.189 -2.823)" fill="#fff"/>
    <path id="Path_6295" data-name="Path 6295" d="M856.134,1293.613c-1.378-.182-3.348.8-3.988-.267-.7-1.17.6-2.8,1.044-4.225.338-1.073.862-2.087,1.227-3.153.776-2.266,1.895-3.3,4.618-2.356a9.931,9.931,0,0,0,9.081-.927c.729-.488,1.645-1.04,1.061-1.973-.531-.848-1.341-.252-1.956.207a7.839,7.839,0,0,1-6.037,1.155c-2.452-.342-4.857-1-7.3-1.45-6.025-1.112-12-1.769-17.225,2.48-3.132,2.547-4.507,5.755-3.65,9.75.17.79.175,1.923,1.446,1.58,1.047-.282.567-1.159.421-1.884-.767-3.8.852-6.595,3.946-8.677,4.323-2.909,9.109-2.223,13.868-1.579,1.159.157.988.758.579,1.575a35.224,35.224,0,0,0-3.076,8.156,2.739,2.739,0,0,1-2.618,2.4,21.184,21.184,0,0,0-8.03,2.85c-5.663,3.445-5.933,8.025-.73,11.886h4.6c4.044-2.1,5.851-5.776,6.629-9.867.6-3.164,2.253-4.158,5.225-3.782.283.036.574.013.86.026.739.032,1.719.321,1.823-.753C858.078,1293.513,856.97,1293.724,856.134,1293.613Zm-7.411,3.42c-.886,2.956-1.511,6.023-3.647,8.45a5.775,5.775,0,0,1-4.233,1.775,4.166,4.166,0,0,1-3.442-1.931,3.294,3.294,0,0,1,.512-3.922c2.466-3.207,6.166-4.225,9.885-5.144C848.3,1296.136,849.026,1296.024,848.724,1297.033Z" transform="translate(-48.156)" fill="#fff"/>
    <path id="Path_6296" data-name="Path 6296" d="M759.876,1291.037a3.732,3.732,0,0,0-.5,5.685c.82.911,1.791,1.691,2.688,2.536,1.082,1.02,1.71,2.229.438,3.4a3.79,3.79,0,0,1-4.711.769c-1.77-1.014-.413-1.985.09-2.99.516-1.033,1.091-2.273-.441-2.857-1.408-.537-2.251.491-2.367,1.709-.169,1.773-1.35,2.626-2.675,3.386-.7.4-1.576,1.062-2.334.445-.623-.508-.28-1.439-.06-2.141.9-2.868,1.864-5.716,2.775-8.58.206-.649.717-1.973-.309-1.764-2.447.5-5.215-.834-7.394,1.5a16.731,16.731,0,0,0-4.277,6.567,6.537,6.537,0,0,1-3.364,3.973,15.11,15.11,0,0,1-7.923,2.089c-5.573.02-8.738-2.614-8.86-7.375-.18-7,5.949-14.323,12.943-15.548,1.958-.343,3.673-.156,4.76,1.631s.487,3.429-.848,4.874c-.487.527-1.375.94-.393,1.774.8.683,1.5.145,2.038-.316a4.633,4.633,0,0,0,1.52-2.651c.912-4.45-1.9-7.588-6.546-7.283-7.889.519-15.149,8.305-15.3,16.405-.123,6.731,3.383,10.254,10.271,10.385a17.326,17.326,0,0,0,9.794-2.643c.555-.349,1.047-1.426,1.982-.11,1.458,2.053,3.453,1.506,5.372.563.571-.281.972-1.342,1.815-.285,1.372,1.722,3.123,1.2,4.658.422,1.417-.724,2.351-1.31,3.785.252,1.2,1.307,3.17.935,4.889.413,4.169-1.266,5.024-4.292,2.043-7.374-.854-.885-1.764-1.717-2.612-2.607a1.8,1.8,0,0,1,.024-2.765,2.41,2.41,0,0,1,3.131-.476,4.2,4.2,0,0,1,.977,1.007c.4.51.734,1.278,1.548.783.979-.594.3-1.357-.05-1.947C765.24,1289.839,762.007,1289.442,759.876,1291.037Zm-14.684,11.869c-.718.387-1.525.869-2.394.212a2.185,2.185,0,0,1-.679-2.087,13.433,13.433,0,0,1,4.885-7.942,2.367,2.367,0,0,1,2.927-.184c1.043.723.017,1.553-.189,2.237C748.862,1298.074,748.285,1301.236,745.192,1302.906Z" transform="translate(0 -0.024)" fill="#fff"/>
    <path id="Path_6297" data-name="Path 6297" d="M820.147,1307.446a1,1,0,0,0-1.263.329,10.484,10.484,0,0,1-2.938,2.642c-.755.4-1.68,1.042-2.376.6-.8-.5-.348-1.561-.1-2.346.9-2.856,1.834-5.7,2.785-8.539.281-.838.514-2.161-.648-1.728-1.353.505-2.374-.081-3.539-.065a5.744,5.744,0,0,0-3.54,1.65,15.342,15.342,0,0,0-4.655,7.577c-.5,1.841-.55,3.586,1.136,4.858,1.611,1.215,3.229.627,4.788-.25.5-.281.748-.927,1.656-.335,2.972,1.935,7.8.107,8.928-3.225C820.54,1308.145,820.725,1307.719,820.147,1307.446Zm-11.528,3.262c-1.886,1.019-3.067.4-3.075-1.73a12.791,12.791,0,0,1,5.109-8.223,2.281,2.281,0,0,1,2.685-.045c.949.63.117,1.373-.083,1.986C812.282,1305.678,811.812,1308.983,808.619,1310.708Z" transform="translate(-35.815 -7.831)" fill="#fff"/>
  </g>
</svg>
