<svg xmlns="http://www.w3.org/2000/svg" width="107.99" height="100" viewBox="0 0 107.99 100">
  <path id="Path_6263" data-name="Path 6263" d="M903.031,393.713c.639-.04,1.024-.086,1.41-.086,12.319.009,24.64-.072,36.958.072a52.091,52.091,0,0,1,19.234,3.789c3.316,1.354,6.768.613,10.159.264,6-.617,9.537-4.29,11.578-9.654,1.1-2.895,3.523-4.651,6.1-4.221a5.751,5.751,0,0,1,4.6,6.147,10.714,10.714,0,0,0,3.033,8.126,9.831,9.831,0,0,0,6.634,2.9,8.909,8.909,0,0,1,8.27,8.289c.192,4.709-2.873,8.791-7.125,9.489-4.876.8-9.306-1.78-10.412-6.364a11.3,11.3,0,0,1,.057-5.128c1.538-6.332-1.976-11.886-8.414-12.873a4.556,4.556,0,0,0-2.628.2c-3.586,1.9-7.1,3.912-8.8,7.951a3.523,3.523,0,0,0,.555,4.044,7.329,7.329,0,0,1,1.19,8.309q-5.644,13.147-11.185,26.337c-.431,1.02-.771,2.078-1.089,2.945-4.68-10.878-9.391-21.773-14.03-32.7A2.108,2.108,0,0,0,946.779,410c-2.753.1-5.513.071-8.268.018-1.03-.02-1.338.375-1.412,1.359q-1.346,17.986-2.758,35.966c-.225,2.913-.465,5.825-.675,8.74-.106,1.465-.749,2.312-2.324,2.236-.606-.029-1.215,0-2.025,0,0,2.891-.029,5.63.044,8.367.007.277.627.764.969.77,3.036.049,6.079.116,9.11-.032,2.689-.132,4.158-1.468,4.437-4.19.555-5.421.943-10.86,1.335-16.3.428-5.928.783-11.862,1.14-17.333,1.861,4.351,3.87,9.133,5.949,13.886,1.889,4.32,3.883,8.594,5.762,12.918a1.878,1.878,0,0,0,2.063,1.284c1.911-.06,3.827-.079,5.736.006A1.934,1.934,0,0,0,968,456.278q5.813-13.8,11.719-27.562c.014-.033.1-.033.574-.168,0,5.676.3,11.255-.057,16.791-.99,15.289-8.461,26.6-21.85,33.934a38.565,38.565,0,0,1-19.317,4.484c-6.131-.07-12.269-.165-18.394.049-4.681.164-9.5-2.971-9.386-9.3.109-5.961.018-11.926.018-17.889q0-21.771,0-43.543c0-3.77-.915-4.862-4.608-5.509a3.947,3.947,0,0,1-3.663-4.271C903.011,400.155,903.031,397.013,903.031,393.713Z" transform="translate(-903.024 -383.812)" fill="#fff"/>
</svg>
