<svg xmlns="http://www.w3.org/2000/svg" width="100" height="27.211" viewBox="0 0 100 27.211">
  <g id="isca-logo" transform="translate(-14.579 -14.602)">
    <path id="Union_1" data-name="Union 1" d="M89.983,27.211l-2.69-2.74V17.224H85.244v7.247l-2.69,2.74h-10V14.1l2.321-4.988L100,6.92V27.211Zm-41.577,0-2.855-2.77V11.681l23.911-2.09v2.864H61.789v2.4h7.673V27.211Zm-29.979,0V18.234h4.617l-4.105-4.228,21.776-1.9,1.7,1.677V24.456l-2.87,2.755ZM0,27.211V15.665l15.251-1.336V27.211ZM0,.042H15.251V14.329L0,15.665ZM18.427,13.483V2.923L21.311.042h21.1V9.02H37.578L40.715,12.1l-21.776,1.9ZM45.551,2.963,48.417.083H69.462V9.591l-23.911,2.09ZM79.118,0H100V6.92l-25.121,2.2Z" transform="translate(14.579 14.602)" fill="#fff"/>
    <path id="Path_6288" data-name="Path 6288" d="M398.793,32.268" transform="translate(-340.094 -15.638)" fill="#ce190f"/>
  </g>
</svg>
