<svg xmlns="http://www.w3.org/2000/svg" width="100" height="31.407" viewBox="0 0 100 31.407">
  <path id="Path_6262" data-name="Path 6262" d="M485.078,98.712a3.471,3.471,0,1,0,2.461,1.017A3.312,3.312,0,0,0,485.078,98.712Zm-3,9.577h5.993v19.369h-5.993V108.289Zm25.95,4.494a13.27,13.27,0,0,0-3.1-1.338c-1.124-.321-2.14-.642-3.157-.963a8.418,8.418,0,0,1-2.408-1.177,2.254,2.254,0,0,1-.963-1.98,2.19,2.19,0,0,1,.375-1.338,3.283,3.283,0,0,1,1.017-.91,5.693,5.693,0,0,1,1.338-.482,6.536,6.536,0,0,1,1.391-.161,7.156,7.156,0,0,1,2.461.482,4.75,4.75,0,0,1,2.033,1.391l4.28-4.655a10.333,10.333,0,0,0-4.013-2.247,15.1,15.1,0,0,0-4.655-.7,14.272,14.272,0,0,0-4.013.589,11.111,11.111,0,0,0-3.478,1.712,8.424,8.424,0,0,0-3.317,6.9,6.779,6.779,0,0,0,.963,3.8,7.247,7.247,0,0,0,2.461,2.3,12.4,12.4,0,0,0,3.21,1.391c1.124.321,2.194.7,3.21,1.017a8.814,8.814,0,0,1,2.461,1.231,2.416,2.416,0,0,1,.963,2.033,2.19,2.19,0,0,1-.375,1.338,2.779,2.779,0,0,1-1.017.91,5.375,5.375,0,0,1-1.391.535,7.64,7.64,0,0,1-1.552.161,6.791,6.791,0,0,1-5.4-2.675l-4.441,4.869a13.635,13.635,0,0,0,4.387,2.729,15.579,15.579,0,0,0,5.083.856,17.832,17.832,0,0,0,4.173-.535,10.567,10.567,0,0,0,3.478-1.712,7.8,7.8,0,0,0,2.354-2.889,9,9,0,0,0,.856-4.12,7.229,7.229,0,0,0-.963-3.959,5.734,5.734,0,0,0-2.247-2.408Zm15.2-10.273h-5.993v5.725h-3.852v4.815h3.852v9.2a6.059,6.059,0,0,0,.535,2.729,4.986,4.986,0,0,0,1.5,1.819,6.167,6.167,0,0,0,2.247,1.017,11.347,11.347,0,0,0,2.782.321c.7,0,1.391-.054,2.14-.107a14.679,14.679,0,0,0,2.087-.482v-4.976a2.179,2.179,0,0,1-1.177.482c-.535.054-.963.107-1.284.107a4.253,4.253,0,0,1-1.552-.268,1.947,1.947,0,0,1-.856-.749,2.545,2.545,0,0,1-.375-1.124,11.4,11.4,0,0,1-.107-1.445v-6.528h5.243v-4.815h-5.243v-5.725h.053ZM544.2,117.92c0,.642-.053,1.231-.107,1.819a5.105,5.105,0,0,1-.482,1.605,2.709,2.709,0,0,1-1.07,1.124,3.876,3.876,0,0,1-1.873.428,2.883,2.883,0,0,1-1.766-.482,2.968,2.968,0,0,1-.91-1.231,5.379,5.379,0,0,1-.375-1.659c-.053-.589-.053-1.177-.053-1.712v-9.524h-5.993v10.7a25.831,25.831,0,0,0,.268,3.638,7.7,7.7,0,0,0,1.017,2.889,5.142,5.142,0,0,0,2.194,1.926,8.267,8.267,0,0,0,3.692.7,7.7,7.7,0,0,0,1.98-.268,6.313,6.313,0,0,0,1.605-.7,5.664,5.664,0,0,0,1.231-1.017,7.3,7.3,0,0,0,.8-1.124h.053v2.622h5.725V108.289h-5.992Zm33.012-15.249a3.1,3.1,0,0,1,2.14-.642,5.926,5.926,0,0,1,1.017.107,5.038,5.038,0,0,1,.963.321l.267-5.083a16.379,16.379,0,0,0-1.712-.268c-.589-.054-1.177-.107-1.766-.107a9.906,9.906,0,0,0-3.906.642,5.12,5.12,0,0,0-2.3,1.712,5.62,5.62,0,0,0-1.07,2.515,17.835,17.835,0,0,0-.267,3v3.424h-8.133v-3.05a3.432,3.432,0,0,1,.7-2.515,3.1,3.1,0,0,1,2.14-.642,5.927,5.927,0,0,1,1.017.107,5.039,5.039,0,0,1,.963.321l.268-5.083c-.589-.107-1.124-.214-1.712-.268s-1.177-.107-1.766-.107a10.382,10.382,0,0,0-3.959.642,5.12,5.12,0,0,0-2.3,1.712,5.621,5.621,0,0,0-1.07,2.515,17.835,17.835,0,0,0-.268,3v3.424h-3.959v4.815h3.959v14.607h5.993V113.051h8.079v14.607h5.993V113.051h4.441v-4.815h-4.441v-3.05A3.367,3.367,0,0,1,577.213,102.671Z" transform="translate(-481.6 -97)" fill="#fff"/>
</svg>
