<svg xmlns="http://www.w3.org/2000/svg" width="150" height="31.558" viewBox="0 0 150 31.558">
  <g id="Group_61" data-name="Group 61" transform="translate(-693.333 -2013.088)">
    <g id="Group_58" data-name="Group 58" transform="translate(693.89 2013.088)">
      <path id="Path_6305" data-name="Path 6305" d="M704.68,2030.469a.848.848,0,0,0-.319.546q-.054.333-.133.652a1.276,1.276,0,0,1-.279.546.845.845,0,0,1-.705.2q-.107.133-.04.16t.12.24a.794.794,0,0,0-.532.053,1.174,1.174,0,0,1-.4.16,2.107,2.107,0,0,1-1.025-.679,5.963,5.963,0,0,1-.719-1.078,10.154,10.154,0,0,1-.532-1.2,8.9,8.9,0,0,0-.466-1.065c0-.071.031-.1.093-.093a1.191,1.191,0,0,0,.173.013,2.378,2.378,0,0,1-.2-.6,1.152,1.152,0,0,0-.253-.546q.772-1.65,1.65-3.447t1.77-3.647q.892-1.85,1.783-3.726t1.717-3.687a12.4,12.4,0,0,1,1.451.625,7.183,7.183,0,0,1,1.291.839,4.935,4.935,0,0,1,1,1.1,3.65,3.65,0,0,1,.546,1.424c-.036.106-.08.142-.133.106s-.1-.017-.133.053a.692.692,0,0,1,.146.226.233.233,0,0,1-.013.133.471.471,0,0,0-.027.173.572.572,0,0,0,.133.293.179.179,0,0,0-.186.04q-.054.067-.186.013a1.07,1.07,0,0,1,.08.586,1.368,1.368,0,0,1-.16.386,1.771,1.771,0,0,0-.173.373.924.924,0,0,0,.04.546.206.206,0,0,0-.146.04.356.356,0,0,0-.067.093.353.353,0,0,1-.067.093c-.027.027-.076.031-.146.013a9.2,9.2,0,0,1,.053,1.4q-.027.706-.053,1.437t0,1.5a8.55,8.55,0,0,0,.213,1.6,5.494,5.494,0,0,0,1.85-1.73,9.4,9.4,0,0,0,1.118-2.369,18.452,18.452,0,0,0,.639-2.795q.226-1.49.466-3.034a2.144,2.144,0,0,0,.466-.719,7.273,7.273,0,0,0,.293-.878q.12-.452.24-.918a3.372,3.372,0,0,1,.333-.838,1.774,1.774,0,0,1,.812.279,4.922,4.922,0,0,1,.626.506,6.765,6.765,0,0,0,.612.519,1.8,1.8,0,0,0,.8.319q.372.533.692,1.025a2.932,2.932,0,0,1,.426,1.1,2.141,2.141,0,0,0-.24.586q-.08.319-.173.639a2.5,2.5,0,0,1-.253.585,1.376,1.376,0,0,1-.453.453,11.9,11.9,0,0,1-.24,1.49q-.16.693-.293,1.357t-.24,1.384a8.825,8.825,0,0,0-.08,1.57q-.24.772-.532,1.584a10.042,10.042,0,0,0-.426,1.5,2.878,2.878,0,0,0-.8.985q-.293.586-.612,1.171-.133.107-.16.04t-.24-.093c.018.16-.013.262-.093.306s-.076.173.013.386a2.819,2.819,0,0,0-.8.559,5.888,5.888,0,0,1-.759.639,2.3,2.3,0,0,1-.958.386,2.917,2.917,0,0,1-1.424-.226,13.133,13.133,0,0,1-2.342-2.209,9.725,9.725,0,0,1-1.65-2.955.641.641,0,0,0-.4.346,5.24,5.24,0,0,0-.24.559q-.107.293-.213.532a.343.343,0,0,1-.319.24,1.168,1.168,0,0,1-.2.439q-.147.2-.279.4a1.508,1.508,0,0,0-.2.439A.77.77,0,0,0,704.68,2030.469Z" transform="translate(-699.463 -2013.088)" fill="#fff"/>
      <path id="Path_6306" data-name="Path 6306" d="M916.384,2066.427a4.275,4.275,0,0,1-.466.918,3.976,3.976,0,0,1-1.637,1.424,2.774,2.774,0,0,1-1.065.266,1.312,1.312,0,0,1-.466-.173,2.5,2.5,0,0,0-.253-.173c-.053-.035-.1-.067-.146-.093s-.084-.049-.12-.066l-.319-.133.106-.346a.41.41,0,0,0-.027-.333,2.036,2.036,0,0,0-.319-.333l-.16-.16a1.045,1.045,0,0,1-.133-.16l-.453-.506.719-.186a1.689,1.689,0,0,0,.892-.479,1.456,1.456,0,0,0,.173-.985,2.206,2.206,0,0,0-.892-.027q-.359.08-.732.187-.479.133-.971.226a5.779,5.779,0,0,1-1.078.093c-.142,0-.275,0-.4-.013s-.257-.022-.4-.04l-.266-.053a.715.715,0,0,0-.107-.333.93.93,0,0,1-.106-.093,2.16,2.16,0,0,1-.279-.359.721.721,0,0,1-.066-.573,1.262,1.262,0,0,1-.16-.479,2.987,2.987,0,0,0-.24.666l-.106.266-.266.053a.179.179,0,0,0-.08.12.566.566,0,0,0-.027.146l-.133.453a1.028,1.028,0,0,1-.107.093.975.975,0,0,0-.107.093,4.9,4.9,0,0,1-.133.479q-.08.24-.16.453-.133.346-.226.679a1.83,1.83,0,0,0-.066.652l-.107.293a1.115,1.115,0,0,1-.293.253q-.16.093-.319.173a.465.465,0,0,1-.146.093c-.062.027-.111.049-.146.067l-.08.293-.319.053q-.293.053-.413.08a1.31,1.31,0,0,1-.279.027l-.266-.027q-.293-.24-.452-.386a2.611,2.611,0,0,0-.373-.28,1.333,1.333,0,0,1-.266-.479q-.026-.16-.053-.293a1.474,1.474,0,0,1-.067-.266.265.265,0,0,0-.067-.16l-.346-.319.293-.24.027-.452q.533-1.358,1.131-2.609t1.238-2.555q.213-.426.413-.852t.413-.852a.587.587,0,0,1-.027-.186.652.652,0,0,1,.053-.24q.293-.452.479-.812t.373-.732q.213-.452.439-.878a6.389,6.389,0,0,1,.572-.878l.426-.186c.053-.018.115-.04.186-.067a.677.677,0,0,1,.24-.04l.4.053a3.978,3.978,0,0,0,1.3-.971,13.488,13.488,0,0,0,1.145-1.5l.266-.373.346.213a1.537,1.537,0,0,0,.373.146q.239.067.506.146.479.107.905.24a1.663,1.663,0,0,1,.692.4,3.166,3.166,0,0,1,.186.639,3.47,3.47,0,0,0,.08.426q.08.453.146.905t.093,1.011q.133.453.226.892t.173.892q.133.639.266,1.238a7.272,7.272,0,0,0,.346,1.131.785.785,0,0,1,.266.027,1.453,1.453,0,0,1,.279-.08q.146-.026.333-.053l.293-.027.107.266c.017.089.106.177.266.266a.978.978,0,0,1,.506.146,2.764,2.764,0,0,1,.293.253.813.813,0,0,0,.213.16l.4.16-.213.4a3.571,3.571,0,0,1-.759.918,4.684,4.684,0,0,1-1.1.732c.018.106.031.209.04.306a1.332,1.332,0,0,0,.066.306q.08.453.133.932a4.587,4.587,0,0,1,0,.985Zm-7.692-4.6q.8-.053,1.451-.12t1.451-.226q-.187-.8-.4-1.664t-.452-1.717l-.16.266a11.33,11.33,0,0,0-1.025,1.251,14.924,14.924,0,0,0-.838,1.3l-.319.479q-.16.24-.293.479a1.88,1.88,0,0,1,.306-.027A1.4,1.4,0,0,0,908.691,2061.822Z" transform="translate(-883.245 -2048.779)" fill="#fff"/>
      <path id="Path_6307" data-name="Path 6307" d="M1094.552,2069.715a7.411,7.411,0,0,1-1.051-.027,2.3,2.3,0,0,0-1.158.186,18.188,18.188,0,0,1-2.875-.346,20.294,20.294,0,0,1-2.688-.719q-.266-.293-.532-.546a1.533,1.533,0,0,0-.719-.359,4,4,0,0,1-1.038-1.238,7.753,7.753,0,0,1-.639-1.557,9.021,9.021,0,0,1-.319-1.69,13.346,13.346,0,0,1-.053-1.664,6.176,6.176,0,0,1,1.131-2.063q.732-.865,1.5-1.717a1.806,1.806,0,0,0,.519-.333,3.272,3.272,0,0,1,.373-.319l.4-.293a1.716,1.716,0,0,0,.359-.359,3.308,3.308,0,0,0,.972-.386q.412-.253.812-.532t.825-.519a3.8,3.8,0,0,1,.985-.373,1.664,1.664,0,0,1,.506-.386q.293-.146.6-.293t.586-.306a1.189,1.189,0,0,0,.439-.426.3.3,0,0,0,.373.146q.24-.066.453-.146a.254.254,0,0,1,.226.053q.093.08.173.16a.307.307,0,0,0,.146.093c.044.009.084-.031.12-.12.089,0,.115.045.08.133s-.062.151-.08.187a.455.455,0,0,1,.359.093.847.847,0,0,0,.466.146c.071.089.089.156.053.2a.367.367,0,0,0-.053.226,1.445,1.445,0,0,1,1.011.759,1.506,1.506,0,0,1,.027,1.078,2.661,2.661,0,0,1-.666,1.038,2.4,2.4,0,0,1-1.038.639q-1.278.346-2.409.759a10.206,10.206,0,0,1-2.981,1.7,7.065,7.065,0,0,0-.932.692q-.439.386-.825.8t-.812.812a.853.853,0,0,1-.12.572q-.146.2-.28.413a2.622,2.622,0,0,0,.186.705q.133.306.293.6a16.7,16.7,0,0,0,3.74.665q1.983.134,3.979.16a2.838,2.838,0,0,0,.439.492,4.8,4.8,0,0,1,.466.479,2.282,2.282,0,0,1,.346.559,1.32,1.32,0,0,1,.053.759,5.942,5.942,0,0,1-.825.732Q1095,2069.369,1094.552,2069.715Z" transform="translate(-1048.584 -2049.779)" fill="#fff"/>
      <path id="Path_6308" data-name="Path 6308" d="M1258.205,2066.533a2.069,2.069,0,0,1-.093,1.251,1.528,1.528,0,0,1-.639.679,2.168,2.168,0,0,1-.945.253,4.722,4.722,0,0,1-1.011-.053,4.131,4.131,0,0,1-.479-.932q-.213-.559-.4-1.158t-.333-1.185q-.147-.585-.253-1.038a2.532,2.532,0,0,0,.173-.732q.04-.412.053-.838t.027-.865a8.132,8.132,0,0,1,.066-.839,12.483,12.483,0,0,1,.546-2.129,14.664,14.664,0,0,0,.572-2.1.717.717,0,0,0-.04-.452.577.577,0,0,1-.04-.4.208.208,0,0,1,.16-.146.213.213,0,0,0,.16-.173,1.044,1.044,0,0,0,.04-.479.7.7,0,0,1,.093-.453,6.975,6.975,0,0,0,.333-.625,1.535,1.535,0,0,0,.146-.865,2.967,2.967,0,0,0,.453-.373,4.413,4.413,0,0,1,.439-.386,2.852,2.852,0,0,1,.506-.306,1.571,1.571,0,0,1,.679-.133,1.382,1.382,0,0,1,.28.586q.066.319.133.639a2.612,2.612,0,0,0,.2.6.947.947,0,0,0,.453.439v.532q0,.32.027.625a2.121,2.121,0,0,0,.12.559.52.52,0,0,0,.306.333q-.479,1.278-.892,2.529a23.391,23.391,0,0,0-.679,2.515,16.428,16.428,0,0,0-.333,2.542A11.046,11.046,0,0,0,1258.205,2066.533Z" transform="translate(-1203.667 -2048.513)" fill="#fff"/>
      <path id="Path_6309" data-name="Path 6309" d="M1346.008,2055.882a1.751,1.751,0,0,0,.053.612,4.393,4.393,0,0,0,.2.572q.12.279.226.572a3.677,3.677,0,0,1,.16.585,3.123,3.123,0,0,1,0,.812,4.593,4.593,0,0,1-.186.852,3.207,3.207,0,0,1-.346.745,1.409,1.409,0,0,1-.506.492,2.619,2.619,0,0,1-.9.745,5.208,5.208,0,0,0-.985.639,2.022,2.022,0,0,1-.652.266q-.359.08-.732.16-.294.159-.692.333t-.825.319a4.951,4.951,0,0,1-.852.213,3.162,3.162,0,0,1-.745.04,7.021,7.021,0,0,1-1.557.386,5.468,5.468,0,0,1-1.77-.12,4.5,4.5,0,0,1-1.77-.08,4.129,4.129,0,0,1-1.437-.679,5,5,0,0,1-1.091-1.118,6.7,6.7,0,0,1-.759-1.371,7.051,7.051,0,0,1,.106-2.755,9.3,9.3,0,0,1,.918-2.289,12.145,12.145,0,0,1,1.371-1.943q.772-.891,1.491-1.743a.271.271,0,0,0,.253-.013.7.7,0,0,0,.173-.186,2.191,2.191,0,0,1,.173-.226.4.4,0,0,1,.226-.133,1.282,1.282,0,0,1,.546-.6,1.478,1.478,0,0,0,.572-.572,1.167,1.167,0,0,0,.4-.16,2.577,2.577,0,0,0,.306-.24q.146-.133.306-.253a1.034,1.034,0,0,1,.373-.173v-.293a1.864,1.864,0,0,0,.705-.492q.226-.279.546-.679a3.771,3.771,0,0,1,.386-.027,2.69,2.69,0,0,0,.439-.053,3.1,3.1,0,0,1,.386-.559,2.522,2.522,0,0,1,.519-.4,2.248,2.248,0,0,0,.705.213,1.17,1.17,0,0,1,.679.346.7.7,0,0,0,.16.413,2.085,2.085,0,0,0,.293.266q.16.12.306.253a.7.7,0,0,1,.2.373c.071.018.12.009.146-.027s.075-.044.146-.027a1.169,1.169,0,0,0,.186.492,1.365,1.365,0,0,1,.213.466,2.493,2.493,0,0,0-.2.546.6.6,0,0,1-.333.412c-.018.125.017.191.107.2a.167.167,0,0,1,.16.146.41.41,0,0,1-.08.346,17.737,17.737,0,0,1,1.145,2.2A17.651,17.651,0,0,0,1346.008,2055.882Zm-3.327,2.529a1.387,1.387,0,0,1,.279-.479.9.9,0,0,0,.2-.559,1.165,1.165,0,0,1-.16-.333,1.953,1.953,0,0,1-.027-.386,10.448,10.448,0,0,1-1.011-1.77,13.543,13.543,0,0,0-.958-1.77.67.67,0,0,1-.186.213q-.133.107-.293-.053a.506.506,0,0,1-.186.306.431.431,0,0,1-.293.08,1.194,1.194,0,0,1-.333-.08,1.126,1.126,0,0,1-.306-.173q-.772.613-1.544,1.2a7.712,7.712,0,0,0-1.384,1.357c-.071.036-.116.049-.133.04s-.071,0-.16.04a4.4,4.4,0,0,1-.519.918q-.306.413-.6.839a5.587,5.587,0,0,0-.506.905,3.04,3.04,0,0,0-.24,1.118,2.055,2.055,0,0,0,1.065.452,5.977,5.977,0,0,0,1.264.027,11.958,11.958,0,0,0,1.278-.173,6.182,6.182,0,0,1,1.158-.12,7.65,7.65,0,0,0,1.917-.705Q1341.8,2058.863,1342.681,2058.411Z" transform="translate(-1273.396 -2043.984)" fill="#fff"/>
      <path id="Path_6310" data-name="Path 6310" d="M1518.015,2062.486a.481.481,0,0,0-.346.28q-.107.227-.2.466t-.186.439a.3.3,0,0,1-.279.2.769.769,0,0,1-.146.373c-.08.106-.156.218-.226.333a1.376,1.376,0,0,0-.16.373.736.736,0,0,0,.053.466.7.7,0,0,0-.266.452q-.054.293-.12.559a1.088,1.088,0,0,1-.226.452.686.686,0,0,1-.586.16c-.053.071-.062.115-.027.133s.062.08.08.186a.618.618,0,0,0-.439.04.864.864,0,0,1-.359.12,1.755,1.755,0,0,1-.839-.559,4.812,4.812,0,0,1-.586-.892q-.253-.492-.453-1t-.386-.878a1.254,1.254,0,0,0,.027-.572,1.165,1.165,0,0,0-.186-.466q1.3-2.768,2.848-5.909t2.928-6.2q.612.24,1.211.546a6.238,6.238,0,0,1,1.091.705,4.123,4.123,0,0,1,.838.918,2.936,2.936,0,0,1,.453,1.158q-.054.16-.12.12t-.12.04a.681.681,0,0,1,.12.186.221.221,0,0,1,0,.106.524.524,0,0,0,.067.4q-.107-.026-.146.027c-.027.036-.084.036-.173,0a.9.9,0,0,1,.067.479,1.224,1.224,0,0,1-.12.333,1.721,1.721,0,0,0-.133.319.765.765,0,0,0,.027.439.163.163,0,0,0-.12.04.506.506,0,0,0-.067.08.541.541,0,0,1-.067.08.11.11,0,0,1-.12.013,6.511,6.511,0,0,1,.053,1.171q-.027.586-.04,1.185t.013,1.251a7.262,7.262,0,0,0,.186,1.344,4.5,4.5,0,0,0,1.53-1.437,8.394,8.394,0,0,0,.932-1.969,14.143,14.143,0,0,0,.546-2.342q.186-1.251.4-2.555a1.661,1.661,0,0,0,.373-.585q.133-.346.24-.732t.213-.772a3.849,3.849,0,0,1,.266-.705,1.484,1.484,0,0,1,.679.253,4.923,4.923,0,0,1,.519.426,5.763,5.763,0,0,0,.506.426,1.394,1.394,0,0,0,.666.253q.319.453.585.878a2.46,2.46,0,0,1,.346.905,1.635,1.635,0,0,0-.2.479q-.067.267-.146.532a2.231,2.231,0,0,1-.213.492,1.189,1.189,0,0,1-.373.386q-.08.693-.2,1.264t-.24,1.131q-.12.559-.2,1.158a7.8,7.8,0,0,0-.053,1.318q-.214.613-.453,1.3t-.373,1.251a2.489,2.489,0,0,0-.665.825q-.24.479-.506.958c-.071.071-.116.089-.133.053s-.08-.062-.186-.08a.245.245,0,0,1,0,.16.357.357,0,0,1-.067.093.214.214,0,0,0-.053.12.411.411,0,0,0,.04.213,2.1,2.1,0,0,0-.665.453,5.11,5.11,0,0,1-.626.532,1.9,1.9,0,0,1-.8.319,2.493,2.493,0,0,1-1.211-.186,10.234,10.234,0,0,1-1.93-1.836A8.725,8.725,0,0,1,1518.015,2062.486Z" transform="translate(-1438.323 -2047.448)" fill="#fff"/>
      <path id="Path_6311" data-name="Path 6311" d="M1693.045,2066.427a4.283,4.283,0,0,1-.466.918,3.976,3.976,0,0,1-1.637,1.424,2.773,2.773,0,0,1-1.065.266,1.311,1.311,0,0,1-.466-.173,2.483,2.483,0,0,0-.253-.173c-.053-.035-.1-.067-.146-.093s-.084-.049-.12-.066l-.319-.133.107-.346a.411.411,0,0,0-.027-.333,2.041,2.041,0,0,0-.319-.333l-.16-.16a1.037,1.037,0,0,1-.133-.16l-.453-.506.719-.186a1.69,1.69,0,0,0,.892-.479,1.458,1.458,0,0,0,.173-.985,2.207,2.207,0,0,0-.892-.027q-.359.08-.732.187-.479.133-.972.226a5.781,5.781,0,0,1-1.078.093c-.142,0-.275,0-.4-.013s-.257-.022-.4-.04l-.266-.053a.719.719,0,0,0-.106-.333.905.905,0,0,1-.106-.093,2.151,2.151,0,0,1-.28-.359.721.721,0,0,1-.067-.573,1.264,1.264,0,0,1-.16-.479,2.992,2.992,0,0,0-.239.666l-.107.266-.266.053a.179.179,0,0,0-.08.12.568.568,0,0,0-.027.146l-.133.453a1.028,1.028,0,0,1-.106.093.953.953,0,0,0-.106.093,4.936,4.936,0,0,1-.133.479q-.08.24-.16.453-.133.346-.226.679a1.824,1.824,0,0,0-.067.652l-.107.293a1.113,1.113,0,0,1-.293.253q-.16.093-.319.173a.463.463,0,0,1-.146.093c-.062.027-.111.049-.146.067l-.08.293-.319.053c-.2.035-.333.062-.412.08a1.312,1.312,0,0,1-.28.027l-.266-.027q-.293-.24-.452-.386a2.614,2.614,0,0,0-.373-.28,1.334,1.334,0,0,1-.266-.479q-.026-.16-.053-.293a1.478,1.478,0,0,1-.067-.266.267.267,0,0,0-.066-.16l-.346-.319.293-.24.027-.452q.533-1.358,1.131-2.609t1.238-2.555q.213-.426.412-.852t.413-.852a.584.584,0,0,1-.027-.186.648.648,0,0,1,.053-.24q.292-.452.479-.812t.373-.732q.213-.452.439-.878a6.368,6.368,0,0,1,.572-.878l.426-.186c.053-.018.115-.04.186-.067a.675.675,0,0,1,.24-.04l.4.053a3.978,3.978,0,0,0,1.3-.971,13.481,13.481,0,0,0,1.145-1.5l.266-.373.346.213a1.535,1.535,0,0,0,.373.146q.24.067.506.146.479.107.905.24a1.664,1.664,0,0,1,.692.4,3.173,3.173,0,0,1,.186.639,3.47,3.47,0,0,0,.08.426q.08.453.146.905t.093,1.011q.133.453.226.892t.173.892q.133.639.266,1.238a7.246,7.246,0,0,0,.346,1.131.785.785,0,0,1,.266.027,1.452,1.452,0,0,1,.28-.08q.146-.026.333-.053l.293-.027.106.266c.017.089.106.177.266.266a.979.979,0,0,1,.506.146,2.787,2.787,0,0,1,.293.253.811.811,0,0,0,.213.16l.4.16-.213.4a3.573,3.573,0,0,1-.759.918,4.689,4.689,0,0,1-1.1.732c.017.106.031.209.04.306a1.323,1.323,0,0,0,.067.306q.08.453.133.932a4.611,4.611,0,0,1,0,.985Zm-7.692-4.6q.8-.053,1.451-.12t1.451-.226q-.186-.8-.4-1.664t-.453-1.717l-.16.266a11.316,11.316,0,0,0-1.025,1.251,14.894,14.894,0,0,0-.838,1.3l-.319.479q-.16.24-.293.479a1.881,1.881,0,0,1,.306-.027A1.405,1.405,0,0,0,1685.352,2061.822Z" transform="translate(-1589.344 -2048.779)" fill="#fff"/>
      <path id="Path_6312" data-name="Path 6312" d="M1869.879,2067.038q-.745.24-1.624.479a6.652,6.652,0,0,1-1.757.24,3.114,3.114,0,0,1-2.1-.665,1.467,1.467,0,0,0-.24-.4,1.887,1.887,0,0,1-.146-.226.926.926,0,0,1-.093-.333,2.871,2.871,0,0,1-.506-.865,4.419,4.419,0,0,1-.253-1.011,5.346,5.346,0,0,1,.146-2.063.668.668,0,0,0,.067-.213q.013-.106.04-.24.106-.426.226-.825a2.278,2.278,0,0,1,.333-.692.69.69,0,0,1,0-.532,3.654,3.654,0,0,1,.24-.532q.372-1.011.625-1.717t.519-1.4q.452-1.2.852-2.369t.719-2.529q.213-.133.319-.186c.107-.035.2-.062.266-.08a9.9,9.9,0,0,0,1.118.466,3.321,3.321,0,0,0,1.065.226,1.257,1.257,0,0,1,.266.2,1.366,1.366,0,0,0,.106.12,5.257,5.257,0,0,1,.506.705,1.446,1.446,0,0,1,.133.945q-.16.24-.24.24a7.556,7.556,0,0,1-.28.905q-.147.373-.306.745-.187.4-.346.8a5.162,5.162,0,0,0-.266.985.919.919,0,0,0-.146.24q-.04.107-.093.24t-.12.28a.684.684,0,0,1-.2.253,4.369,4.369,0,0,1-.253,1.118q-.174.426-.359.852-.319.772-.572,1.544a6.809,6.809,0,0,0-.306,1.757.687.687,0,0,1,.253-.053h.226a2.346,2.346,0,0,1,.559.08,4.47,4.47,0,0,1,1.744-.506q.944-.08,1.876-.106h.745a4.2,4.2,0,0,0,.692-.053,1.53,1.53,0,0,0,.306.146,1.06,1.06,0,0,0,.2.013,1.672,1.672,0,0,1,.319.027,2.381,2.381,0,0,0,.612.426,6.122,6.122,0,0,0,.612.24q.293.107.572.226a2.377,2.377,0,0,1,.546.333l.186,1.145q.186.24.16.319a.434.434,0,0,1-.107.32l.053.293a1.51,1.51,0,0,0-.546.186,2.374,2.374,0,0,0-.279.24,2.738,2.738,0,0,1-.306.027h-.173a3.85,3.85,0,0,0-.905.133,4.685,4.685,0,0,0-1.491-.24c-.2,0-.4.009-.612.027l-.639.053q-.32.054-.652.08t-.679.027Z" transform="translate(-1757.395 -2047.448)" fill="#fff"/>
      <path id="Path_6313" data-name="Path 6313" d="M2166.248,2029.111q.639.32.652.8a1.4,1.4,0,0,1-.293.892,1.923,1.923,0,0,1-.8.625.928.928,0,0,1-.892-.027.371.371,0,0,1-.226.279.362.362,0,0,0-.226.253q-2.582.4-5.27.985a51.286,51.286,0,0,1-5.377.878,10.886,10.886,0,0,1-3.46-.612,2.961,2.961,0,0,1-.838-1.2,5.08,5.08,0,0,1-.333-1.517,7.509,7.509,0,0,1,.053-1.557,6.053,6.053,0,0,1,.319-1.318q1.384-1.757,2.888-3.367a18.47,18.47,0,0,1,3.42-2.861,5.721,5.721,0,0,1,1.3-1.184,8.69,8.69,0,0,0,1.357-1.1,4.836,4.836,0,0,0-1.677-.293,10.225,10.225,0,0,0-1.73.146,15.263,15.263,0,0,0-1.6.359q-.746.213-1.3.319a2.473,2.473,0,0,0-1-.24,4.154,4.154,0,0,1-1.131-.213,1.35,1.35,0,0,1-.439-.692,4.1,4.1,0,0,1-.146-.878q-.027-.452-.027-.865a1.857,1.857,0,0,0-.106-.679q.213-.346.386-.692a3.412,3.412,0,0,1,.413-.639,23.406,23.406,0,0,1,2.768-.572,18.6,18.6,0,0,1,3.061-.2,13.19,13.19,0,0,1,2.981.386,7.192,7.192,0,0,1,2.555,1.184,2.209,2.209,0,0,0,.559,1.185,2.884,2.884,0,0,0,1.038.679,9.219,9.219,0,0,1,.506,1.078,4.945,4.945,0,0,1,.293,1.158,6.623,6.623,0,0,1-1.5,2.382,25.418,25.418,0,0,1-1.956,1.77,6.171,6.171,0,0,1-1.145.772,4.737,4.737,0,0,0-1.065.745.484.484,0,0,0-.133.28.372.372,0,0,1-.133.253,6.21,6.21,0,0,1-1.064.759,6.244,6.244,0,0,0-1.065.759,2.954,2.954,0,0,0-.572.639,2.307,2.307,0,0,1-.6.612,2.509,2.509,0,0,0,.945.133,9.246,9.246,0,0,0,.958-.106q.492-.08,1.011-.16a5.4,5.4,0,0,1,1.078-.053,14.7,14.7,0,0,1,1.7-.466,6.972,6.972,0,0,1,1.863-.146,8.789,8.789,0,0,1,1.531-.466,4.425,4.425,0,0,1,1.4-.067.949.949,0,0,1,.519.479.938.938,0,0,0,.546.479.853.853,0,0,0-.04.426A1.929,1.929,0,0,1,2166.248,2029.111Z" transform="translate(-2017.457 -2013.86)" fill="#fff"/>
    </g>
    <g id="Group_60" data-name="Group 60" transform="translate(693.333 2037.112)">
      <path id="Path_6314" data-name="Path 6314" d="M867.029,2279.113c-.006.031-.02.048-.042.051s-.039.02-.051.051q-.037.1-.046.125a.055.055,0,0,1-.018.028.081.081,0,0,0-.023.023.69.69,0,0,0-.051.111,1.893,1.893,0,0,1-.162.263.7.7,0,0,0-.125.263q-.129.111-.318.281a1.2,1.2,0,0,1-.355.235l-.263-.115a2.259,2.259,0,0,1-.341-.185.913.913,0,0,1-.245-.221.162.162,0,0,1,.018-.226,1.775,1.775,0,0,0,.291-.42,4.075,4.075,0,0,0,.221-.526,5.765,5.765,0,0,0,.166-.581q.069-.3.125-.577a.073.073,0,0,0,.078.023.184.184,0,0,0,.074-.046.587.587,0,0,0,.065-.078l.051-.074a.979.979,0,0,0,.189.111q.134.065.281.125c.1.04.191.075.277.106a1.249,1.249,0,0,0,.185.055.7.7,0,0,1,.12.318,1.791,1.791,0,0,0,.046.3.214.214,0,0,0-.065.152q-.009.106-.018.152c-.006.049-.017.079-.032.088a.138.138,0,0,0-.042.079.072.072,0,0,0,0,.055A.074.074,0,0,1,867.029,2279.113Z" transform="translate(-849.36 -2277.517)" fill="#fff"/>
      <g id="Group_59" data-name="Group 59" transform="translate(0 0.304)">
        <path id="Path_6315" data-name="Path 6315" d="M693.424,2286.534l.014-.055c0-.012-.008-.028-.032-.046q-.019-.064.028-.083l.092-.037a4.672,4.672,0,0,1,.189-1.01q.143-.457.314-.891t.341-.872a6.232,6.232,0,0,0,.281-.955,1.01,1.01,0,0,0,.2-.286q.078-.166.157-.337a2.286,2.286,0,0,1,.185-.328.821.821,0,0,1,.291-.258.752.752,0,0,1,.152.032q.069.023.134.051a.884.884,0,0,0,.138.046.638.638,0,0,0,.157.019.525.525,0,0,1,.065.106.363.363,0,0,0,.074.106l.166-.028a1.031,1.031,0,0,1,.212.254,1.064,1.064,0,0,1,.129.314.6.6,0,0,1-.009.314.387.387,0,0,1-.212.235.189.189,0,0,1,0,.083.272.272,0,0,1-.023.051.089.089,0,0,0-.014.046.1.1,0,0,0,.037.06.936.936,0,0,0-.185.208,1.427,1.427,0,0,0-.138.263,1.927,1.927,0,0,0-.088.277,1.7,1.7,0,0,0-.042.258,3.793,3.793,0,0,1,.628-.517q.36-.24.627-.452.212-.148.374-.281t.328-.249q.166-.115.346-.221t.365-.235a.211.211,0,0,1,.143-.019.568.568,0,0,1,.1.046c.006-.043,0-.069-.028-.079s-.034-.038-.028-.088a1.57,1.57,0,0,0,.281-.111q.125-.064.263-.12.092.1.185.217a.328.328,0,0,0,.249.125.465.465,0,0,0,.134.18q.078.06.157.115a.563.563,0,0,1,.134.134.478.478,0,0,1,.065.244c-.025.049-.054.1-.088.162a.948.948,0,0,0-.088.217,3.855,3.855,0,0,1-.448.355q-.226.152-.461.291t-.48.286a5.089,5.089,0,0,0-.494.341.626.626,0,0,1-.138.148q-.083.065-.171.125t-.166.125a.475.475,0,0,0-.125.157.385.385,0,0,0-.065,0l-.065.014a.307.307,0,0,1-.106.12.247.247,0,0,0-.1.12,1.3,1.3,0,0,0,.434.544,1.817,1.817,0,0,0,.6.268,3.266,3.266,0,0,0,.72.092q.388.01.8.009c.031-.006.044-.023.042-.051s.014-.038.051-.032a.9.9,0,0,1,.231.111,1.938,1.938,0,0,1,.175.138q.083.074.161.152a2.357,2.357,0,0,0,.18.161,1.117,1.117,0,0,1-.254.706,1.683,1.683,0,0,1-.623.438,6.248,6.248,0,0,1-.932-.028,2.994,2.994,0,0,1-.784-.2.1.1,0,0,1-.051-.055.273.273,0,0,0-.042-.064.257.257,0,0,0-.166-.037.315.315,0,0,1-.157-.019,2.029,2.029,0,0,1-.272-.166q-.189-.129-.346-.24-.194-.157-.374-.309a2.052,2.052,0,0,1-.318-.337.087.087,0,0,0-.078-.046.184.184,0,0,1-.1-.028,1.92,1.92,0,0,0-.54.5q-.217.3-.42.609a6.433,6.433,0,0,1-.429.581,1.5,1.5,0,0,1-.568.42.436.436,0,0,1-.175-.032.644.644,0,0,1-.138-.083c-.043-.034-.086-.066-.129-.1a.4.4,0,0,0-.148-.065.6.6,0,0,0-.051-.244q-.051-.115-.1-.212a.842.842,0,0,1-.074-.189.206.206,0,0,1,.051-.184,1.665,1.665,0,0,0-.194-.138.161.161,0,0,0,.06-.12.3.3,0,0,0-.032-.111.516.516,0,0,1-.042-.115.177.177,0,0,1,.032-.134c.024-.006.035-.018.032-.037A.044.044,0,0,1,693.424,2286.534Z" transform="translate(-693.333 -2281.329)" fill="#fff"/>
        <path id="Path_6316" data-name="Path 6316" d="M779.933,2299.044c-.062.031-.118.059-.171.083a.417.417,0,0,1-.18.037,1.12,1.12,0,0,1-.374-.932,5.908,5.908,0,0,1,.281-1.689.119.119,0,0,0,.046-.111l-.083-.093a.253.253,0,0,0-.069.009c-.022.006-.039.028-.051.065q-.24.175-.526.365a6.723,6.723,0,0,1-.6.351,3.941,3.941,0,0,1-.627.263,2.038,2.038,0,0,1-.623.1,1.241,1.241,0,0,1-1.163-.784l-.074-.138-.074.12a1.084,1.084,0,0,0-.083.152q-.055.116-.111.263t-.1.3a.772.772,0,0,0-.032.263q-.083.083-.175.194a.758.758,0,0,0-.138.249.18.18,0,0,0,.018.138.209.209,0,0,1-.083.129,1.024,1.024,0,0,1-.078.088.461.461,0,0,0-.069.088.332.332,0,0,0-.023.092c0,.031-.008.062-.014.092a.379.379,0,0,1-.018.12,1.892,1.892,0,0,1-.249.42.328.328,0,0,1-.249.1,1.676,1.676,0,0,1-.24-.028,1.236,1.236,0,0,1-.217-.355,2.406,2.406,0,0,1-.148-.484,2.457,2.457,0,0,1-.046-.521,1.207,1.207,0,0,1,.088-.457q0-.009.074-.185l.189-.452q.115-.277.263-.614t.3-.655q.147-.318.281-.586a4,4,0,0,1,.226-.406q.074-.111.134-.208l.115-.189a3.825,3.825,0,0,1,.318-.475,1.015,1.015,0,0,1,.447-.3.744.744,0,0,1,.3.194l.018.1q.037.092.111.092.1.028.171.051c.046.015.1.029.152.042a.979.979,0,0,1,.12.175l.143.217a1.178,1.178,0,0,1,.111.212.672.672,0,0,1,.046.217.576.576,0,0,1-.042.231l.009.092a.346.346,0,0,1,.018.231.936.936,0,0,0-.009.134.7.7,0,0,0,.018.152.505.505,0,0,0,.3.129.552.552,0,0,0,.272-.069q.125-.069.235-.143a1.33,1.33,0,0,1,.148-.1.407.407,0,0,1,.148-.051q.166-.157.3-.277t.281-.24a6.493,6.493,0,0,0,.535-.48,1.917,1.917,0,0,0,.415-.646.37.37,0,0,1,.194-.055.551.551,0,0,1,.212.046c.074.031.144.062.212.092a.268.268,0,0,0,.051.028l.042.019a.2.2,0,0,0,.074.157c.025.019.04.031.046.037a.1.1,0,0,0,.028.019.4.4,0,0,1,.175.148.573.573,0,0,0,.231.323.351.351,0,0,0,0,.171,1.26,1.26,0,0,0,.06.161l.018.055a.468.468,0,0,0,.028.064l-.175-.018.028.175a.721.721,0,0,1-.023.286.972.972,0,0,1-.1.249q.009.24.014.374a1.3,1.3,0,0,1-.014.249,1.519,1.519,0,0,1-.051.217,1.943,1.943,0,0,1-.088.221,2.706,2.706,0,0,1-.134,1.075q-.171.484-.355.909-.019.047-.042.092c-.015.031-.029.062-.042.092a1.142,1.142,0,0,0-.148.06Z" transform="translate(-766.306 -2292.317)" fill="#fff"/>
        <path id="Path_6317" data-name="Path 6317" d="M879.537,2295.6a.812.812,0,0,1,.208-.332,1.539,1.539,0,0,1,.314-.235,2.172,2.172,0,0,1,.355-.162q.185-.064.351-.111.369-.157.789-.3t.858-.254a5.149,5.149,0,0,1,.9-.143,2.769,2.769,0,0,1,.969.115.653.653,0,0,0,.083.175c.037.055.075.111.115.166s.075.109.106.162a.405.405,0,0,1,.055.161.729.729,0,0,1,.148.18.345.345,0,0,1,.018.254q-.092.074-.18.134a1.238,1.238,0,0,1-.189.106,2.186,2.186,0,0,0-.692-.055q-.351.028-.627.046a.27.27,0,0,0-.2-.083.849.849,0,0,0-.24.037l-.249.074a.515.515,0,0,1-.235.019.485.485,0,0,1-.226.1q-.134.023-.291.042c-.006.031,0,.051.018.06s.021.029.009.06a.3.3,0,0,0,.143.092c.058.019.12.037.185.055a.792.792,0,0,1,.171.069.217.217,0,0,1,.1.134.438.438,0,0,1,.24.065.583.583,0,0,1,.166.157.705.705,0,0,1,.1.2.661.661,0,0,1,.032.189q.028.074.065.065c.025-.006.052.006.083.037a.567.567,0,0,0,.138.244,1.034,1.034,0,0,1,.175.272q.018.231.028.411a.859.859,0,0,1-.065.365,2.024,2.024,0,0,1-.383.609,3.052,3.052,0,0,1-.554.475,3.886,3.886,0,0,1-.66.355,7.137,7.137,0,0,1-.683.249.151.151,0,0,0-.074,0c-.025.006-.031-.009-.018-.046a.359.359,0,0,1-.162.083.752.752,0,0,1-.189.014q-.1,0-.208-.014a.7.7,0,0,0-.2.009q-.065-.064-.115-.125a.415.415,0,0,1-.078-.152c-.031,0-.045-.015-.042-.046s-.008-.046-.032-.046q.055-.092.051-.106a.044.044,0,0,0-.028-.023.175.175,0,0,1-.042-.023.033.033,0,0,1-.009-.042.31.31,0,0,0,.028-.171c-.006-.065-.012-.131-.018-.2a.574.574,0,0,1,.014-.194.231.231,0,0,1,.134-.148,1.817,1.817,0,0,0,.6-.023,2.671,2.671,0,0,0,.531-.171,5.19,5.19,0,0,0,.475-.24q.226-.129.448-.23a.377.377,0,0,1,.078-.138,1.069,1.069,0,0,1,.106-.1.806.806,0,0,0,.1-.1.322.322,0,0,0,.065-.138q.009-.064-.032-.078a.064.064,0,0,1-.042-.069l-.1-.028a1.959,1.959,0,0,0-.4-.171,2.26,2.26,0,0,1-.378-.152.238.238,0,0,1-.189.028,2.218,2.218,0,0,0-.226-.055,6.056,6.056,0,0,1-.6-.065,2.188,2.188,0,0,1-.558-.166.368.368,0,0,0-.046-.083c-.018-.025-.052-.031-.1-.019-.037-.049-.074-.1-.111-.143a1.072,1.072,0,0,1-.1-.152c.012-.074.022-.137.028-.189a.194.194,0,0,0-.055-.152c.024-.08.043-.145.055-.194A.508.508,0,0,0,879.537,2295.6Z" transform="translate(-862.57 -2292.86)" fill="#fff"/>
        <path id="Path_6318" data-name="Path 6318" d="M971.135,2297.366c-.006.031-.012.057-.019.079s-.012.042-.018.06a.222.222,0,0,0-.009.069v.106a2.779,2.779,0,0,1-.7.821,5.42,5.42,0,0,1-.923.586,11.138,11.138,0,0,1-1.047.461q-.545.207-1.061.448a.651.651,0,0,1-.337-.185.884.884,0,0,1-.175-.3,1.7,1.7,0,0,1-.083-.378q-.023-.208-.042-.429a.516.516,0,0,1,.078-.171.332.332,0,0,0,.051-.2q.074-.24.148-.47a2.062,2.062,0,0,0,.092-.471.165.165,0,0,1,.1-.1,4.626,4.626,0,0,0,0-.9,4.783,4.783,0,0,0-.152-.854.686.686,0,0,1,.023-.134c.009-.028.008-.047,0-.06-.006-.049.011-.074.051-.074h.125a.8.8,0,0,0-.051-.277q-.051-.138-.1-.314a.958.958,0,0,0,.083-.272.582.582,0,0,1,.083-.235,7.023,7.023,0,0,1,.955.378,4.253,4.253,0,0,0,.9.323q.332.24.683.475a4.426,4.426,0,0,1,.637.517,2.674,2.674,0,0,1,.48.641A2.03,2.03,0,0,1,971.135,2297.366Zm-2.187.508q.194-.074.383-.157a2.382,2.382,0,0,0,.351-.189,1.6,1.6,0,0,0,.291-.245,1.142,1.142,0,0,0,.212-.332.718.718,0,0,0-.148-.2q-.092-.088-.185-.166t-.18-.161a.651.651,0,0,1-.143-.2.638.638,0,0,1-.212-.069q-.092-.051-.18-.1t-.185-.1a.63.63,0,0,0-.226-.055,2.166,2.166,0,0,0-.365-.148.623.623,0,0,1-.245-.12.165.165,0,0,0-.1.028,6.266,6.266,0,0,1,.138.66,4.676,4.676,0,0,1,.051.618,4.924,4.924,0,0,1-.032.632q-.037.323-.1.7a.6.6,0,0,0,.171-.042c.052-.021.1-.045.157-.069s.108-.048.166-.069a.775.775,0,0,1,.208-.042.252.252,0,0,1,.078-.092A.817.817,0,0,0,968.948,2297.873Z" transform="translate(-941.885 -2292.964)" fill="#fff"/>
        <path id="Path_6319" data-name="Path 6319" d="M1021.952,2295.124a.383.383,0,0,1,0,.1l-.009.06a.346.346,0,0,0,0,.06.385.385,0,0,0,.018.1,1.058,1.058,0,0,1-.447.429,2.233,2.233,0,0,1-.549.166l-.6.106a1.8,1.8,0,0,0-.614.24.267.267,0,0,0-.217,0,.545.545,0,0,1-.281.028.308.308,0,0,1-.138.078q-.083.023-.166.051a.37.37,0,0,1,.032.171.285.285,0,0,0,.023.143,4.022,4.022,0,0,0,.715-.009q.392-.037.77-.046c.006.031,0,.051-.009.06s-.015.026-.009.051a.874.874,0,0,1,.129.115q.065.069.129.134a.7.7,0,0,0,.134.106.257.257,0,0,0,.161.032.558.558,0,0,1,.051.161.34.34,0,0,1-.023.18q-.148.1-.3.208a2.454,2.454,0,0,1-.309.189,1.834,1.834,0,0,1-.341.134,1.277,1.277,0,0,1-.4.042h-.069a.111.111,0,0,1-.06-.028.307.307,0,0,1-.208.028.31.31,0,0,0-.208.028.547.547,0,0,0-.245-.042.723.723,0,0,1-.254-.032,3.164,3.164,0,0,0-.268.415,3.613,3.613,0,0,0-.212.47,2.817,2.817,0,0,0,.521.037q.208-.009.392-.032l.378-.046a3.449,3.449,0,0,1,.489-.014,1.227,1.227,0,0,1,.438-.134,2.293,2.293,0,0,0,.466-.106.3.3,0,0,1,.129.1c.037.046.072.089.106.129a.84.84,0,0,0,.106.106.175.175,0,0,0,.138.037.2.2,0,0,1,.051.088q.014.051.023.1a.2.2,0,0,0,.032.079.073.073,0,0,0,.078.023,1.39,1.39,0,0,1-.318.466,1.232,1.232,0,0,1-.411.244,2.894,2.894,0,0,1-.512.129q-.282.046-.623.111a.23.23,0,0,1-.138,0,.334.334,0,0,0-.129-.023q-.212.046-.508.083a3.911,3.911,0,0,1-.6.028,2.728,2.728,0,0,1-.581-.078.948.948,0,0,1-.452-.245.3.3,0,0,1-.1-.152.206.206,0,0,0-.125-.134,2.526,2.526,0,0,0-.037-.267q-.028-.148-.055-.309t-.042-.318a.965.965,0,0,1,.014-.286.579.579,0,0,1,.115-.249.277.277,0,0,0,.06-.24.064.064,0,0,0,.055-.051c.006-.028.031-.038.074-.032q.055-.166.12-.314t.134-.286q.069-.138.138-.281t.134-.318a.758.758,0,0,1-.189-.263,1.448,1.448,0,0,1-.088-.286q-.028-.143-.046-.3a1.928,1.928,0,0,0-.065-.309.791.791,0,0,1,.226-.226,1.341,1.341,0,0,1,.291-.143,2.509,2.509,0,0,1,.341-.092q.184-.037.388-.083.369-.12.66-.185t.572-.106q.281-.042.586-.079t.692-.111a.233.233,0,0,0,.157.083q.037-.083.088-.051t.042-.051a.87.87,0,0,0,.235.263A1.513,1.513,0,0,0,1021.952,2295.124Z" transform="translate(-987.499 -2293.426)" fill="#fff"/>
        <path id="Path_6320" data-name="Path 6320" d="M1112.423,2300.5a2.562,2.562,0,0,1-.365-.009.8.8,0,0,0-.4.064,6.305,6.305,0,0,1-1-.12,7.008,7.008,0,0,1-.932-.249q-.092-.1-.184-.189a.534.534,0,0,0-.249-.125,1.387,1.387,0,0,1-.36-.429,2.693,2.693,0,0,1-.221-.54,3.121,3.121,0,0,1-.111-.586,4.62,4.62,0,0,1-.018-.577,2.143,2.143,0,0,1,.392-.715q.254-.3.521-.595a.629.629,0,0,0,.18-.115,1.137,1.137,0,0,1,.129-.111l.138-.1a.593.593,0,0,0,.125-.125,1.149,1.149,0,0,0,.337-.134q.143-.088.281-.185t.286-.18a1.313,1.313,0,0,1,.341-.129.576.576,0,0,1,.175-.134l.208-.1q.106-.051.2-.106a.412.412,0,0,0,.152-.147.106.106,0,0,0,.129.051c.055-.015.107-.032.157-.051a.089.089,0,0,1,.078.018c.021.019.042.037.06.055a.106.106,0,0,0,.051.032c.015,0,.029-.011.042-.042.031,0,.04.016.028.046s-.022.052-.028.065a.158.158,0,0,1,.125.032.292.292,0,0,0,.161.051c.024.031.031.054.018.069a.127.127,0,0,0-.018.078.5.5,0,0,1,.351.263.521.521,0,0,1,.009.374.921.921,0,0,1-.231.36.834.834,0,0,1-.36.222q-.443.12-.835.263a3.547,3.547,0,0,1-1.033.591,2.441,2.441,0,0,0-.323.24q-.152.134-.286.277t-.281.281a.3.3,0,0,1-.042.2c-.034.046-.066.094-.1.143a.911.911,0,0,0,.065.245q.046.106.1.208a5.781,5.781,0,0,0,1.3.231q.687.047,1.38.055a.976.976,0,0,0,.152.171,1.668,1.668,0,0,1,.161.166.8.8,0,0,1,.12.194.457.457,0,0,1,.018.263,2.065,2.065,0,0,1-.286.254Q1112.579,2300.379,1112.423,2300.5Z" transform="translate(-1070.855 -2293.588)" fill="#fff"/>
        <path id="Path_6321" data-name="Path 6321" d="M1168.312,2295.7a.606.606,0,0,0,.018.212,1.509,1.509,0,0,0,.069.2q.042.1.078.2a1.267,1.267,0,0,1,.055.2,1.074,1.074,0,0,1,0,.281,1.592,1.592,0,0,1-.065.3,1.121,1.121,0,0,1-.12.258.488.488,0,0,1-.175.171.91.91,0,0,1-.314.258,1.807,1.807,0,0,0-.341.221.694.694,0,0,1-.226.092l-.254.055q-.1.055-.24.115t-.286.111a1.7,1.7,0,0,1-.3.074,1.106,1.106,0,0,1-.258.014,2.442,2.442,0,0,1-.54.134,1.9,1.9,0,0,1-.614-.042,1.561,1.561,0,0,1-.614-.028,1.433,1.433,0,0,1-.5-.235,1.737,1.737,0,0,1-.378-.388,2.322,2.322,0,0,1-.263-.475,2.443,2.443,0,0,1,.037-.955,3.218,3.218,0,0,1,.318-.793,4.192,4.192,0,0,1,.475-.674q.267-.309.517-.6a.094.094,0,0,0,.088,0,.242.242,0,0,0,.06-.064.743.743,0,0,1,.06-.079.139.139,0,0,1,.078-.046.445.445,0,0,1,.189-.208.512.512,0,0,0,.2-.2.409.409,0,0,0,.138-.055.881.881,0,0,0,.106-.083c.034-.031.069-.06.106-.088a.36.36,0,0,1,.129-.06v-.1a.646.646,0,0,0,.245-.171l.189-.235a1.282,1.282,0,0,1,.134-.009.948.948,0,0,0,.152-.018,1.068,1.068,0,0,1,.134-.194.874.874,0,0,1,.18-.138.78.78,0,0,0,.245.074.408.408,0,0,1,.235.12.241.241,0,0,0,.055.143.744.744,0,0,0,.1.092c.037.028.072.057.106.088a.241.241,0,0,1,.069.129c.024.006.042,0,.051-.009s.026-.015.051-.009a.4.4,0,0,0,.065.171.474.474,0,0,1,.074.162.861.861,0,0,0-.069.189.207.207,0,0,1-.115.143c-.006.043.006.066.037.069a.058.058,0,0,1,.055.051.142.142,0,0,1-.028.12,6.127,6.127,0,0,1,.4.761A6.11,6.11,0,0,0,1168.312,2295.7Zm-1.153.877a.482.482,0,0,1,.1-.166.309.309,0,0,0,.069-.194.406.406,0,0,1-.055-.115.678.678,0,0,1-.009-.134,3.624,3.624,0,0,1-.351-.614,4.68,4.68,0,0,0-.332-.614.233.233,0,0,1-.065.074c-.031.025-.065.019-.1-.019a.176.176,0,0,1-.064.106.149.149,0,0,1-.1.028.412.412,0,0,1-.115-.028.39.39,0,0,1-.106-.06q-.268.212-.535.415a2.672,2.672,0,0,0-.48.471c-.025.012-.04.017-.046.014s-.025,0-.055.014a1.527,1.527,0,0,1-.18.318q-.106.143-.208.291a1.945,1.945,0,0,0-.175.313,1.053,1.053,0,0,0-.083.388.71.71,0,0,0,.369.157,2.058,2.058,0,0,0,.438.009,4.152,4.152,0,0,0,.443-.06,2.131,2.131,0,0,1,.4-.042,2.652,2.652,0,0,0,.664-.245Q1166.854,2296.737,1167.159,2296.58Z" transform="translate(-1120.35 -2291.578)" fill="#fff"/>
        <path id="Path_6322" data-name="Path 6322" d="M1227.941,2297.993a.167.167,0,0,0-.12.1c-.025.052-.048.106-.069.162s-.043.106-.065.152a.1.1,0,0,1-.1.069.268.268,0,0,1-.051.129q-.042.055-.078.115a.482.482,0,0,0-.055.129.257.257,0,0,0,.019.162.24.24,0,0,0-.092.157c-.012.068-.026.132-.042.194a.377.377,0,0,1-.078.157.238.238,0,0,1-.2.055c-.018.025-.022.04-.009.046s.021.028.028.065a.214.214,0,0,0-.152.014.3.3,0,0,1-.125.042.606.606,0,0,1-.291-.194,1.652,1.652,0,0,1-.2-.309,3.774,3.774,0,0,1-.157-.346q-.069-.175-.134-.3a.434.434,0,0,0,.009-.2.4.4,0,0,0-.065-.161q.452-.959.987-2.049t1.015-2.15q.212.083.42.189a2.166,2.166,0,0,1,.378.244,1.439,1.439,0,0,1,.291.318,1.02,1.02,0,0,1,.157.4q-.019.056-.042.042c-.016-.009-.029,0-.042.014a.24.24,0,0,1,.042.065.078.078,0,0,1,0,.037.209.209,0,0,0,0,.051.211.211,0,0,0,.028.088c-.025-.006-.042,0-.051.009s-.029.012-.06,0a.312.312,0,0,1,.023.166.425.425,0,0,1-.042.115.6.6,0,0,0-.046.111.266.266,0,0,0,.009.152.057.057,0,0,0-.042.014.172.172,0,0,0-.023.028.184.184,0,0,1-.023.028.038.038,0,0,1-.042,0,2.252,2.252,0,0,1,.018.406q-.009.2-.014.411t0,.434a2.508,2.508,0,0,0,.065.466,1.559,1.559,0,0,0,.531-.5,2.917,2.917,0,0,0,.323-.683,4.905,4.905,0,0,0,.189-.812q.064-.434.138-.886a.573.573,0,0,0,.129-.2q.046-.12.083-.254l.074-.268a1.334,1.334,0,0,1,.092-.244.515.515,0,0,1,.235.087,1.7,1.7,0,0,1,.18.148,1.977,1.977,0,0,0,.175.148.482.482,0,0,0,.231.088q.111.157.2.3a.855.855,0,0,1,.12.314.573.573,0,0,0-.069.166q-.023.093-.051.185a.774.774,0,0,1-.074.171.413.413,0,0,1-.129.134q-.028.24-.069.438t-.083.392q-.042.194-.069.4a2.714,2.714,0,0,0-.018.457l-.157.452c-.055.16-.1.3-.129.434a.861.861,0,0,0-.231.286q-.083.166-.175.332c-.025.025-.04.031-.046.018s-.028-.021-.065-.028a.084.084,0,0,1,0,.055.122.122,0,0,1-.023.032.075.075,0,0,0-.018.042.143.143,0,0,0,.014.074.736.736,0,0,0-.231.157,1.765,1.765,0,0,1-.217.185.655.655,0,0,1-.277.111.865.865,0,0,1-.42-.064,3.545,3.545,0,0,1-.669-.637A3.021,3.021,0,0,1,1227.941,2297.993Z" transform="translate(-1177.524 -2292.779)" fill="#fff"/>
        <path id="Path_6323" data-name="Path 6323" d="M1295.4,2298.14a.734.734,0,0,1-.06.245,1.3,1.3,0,0,1-.125.221,2.039,2.039,0,0,1-.161.2,2.27,2.27,0,0,1-.171.171.327.327,0,0,1,0,.18.433.433,0,0,0-.014.18.815.815,0,0,1-.42.494.509.509,0,0,1-.531-.051.627.627,0,0,1-.171-.189.293.293,0,0,0-.189-.143.609.609,0,0,0-.028-.314q-.055-.157-.12-.166a4.156,4.156,0,0,0-.083-.415q-.055-.222-.1-.448t-.078-.443a2.01,2.01,0,0,1-.023-.4.276.276,0,0,0-.032-.166.557.557,0,0,1-.06-.175,1.95,1.95,0,0,1-.023-.448q.014-.235.014-.448t-.023-.438q-.023-.235-.042-.452t-.019-.4a.693.693,0,0,1,.046-.281.482.482,0,0,1,.152-.18,1.428,1.428,0,0,0,.18-.152.452.452,0,0,1,.323.166.331.331,0,0,1,.092.277.93.93,0,0,1,.309.309,1.767,1.767,0,0,1,.185.425,2.8,2.8,0,0,1,.1.5q.028.263.046.517t.037.485a1.7,1.7,0,0,0,.074.4q.341-.489.572-.872t.471-.734q.24-.35.535-.71a9.63,9.63,0,0,1,.766-.812.49.49,0,0,1,.152.037c.04.019.075.034.106.046a.672.672,0,0,0,.111.032.49.49,0,0,0,.175,0c.025.062.043.106.055.134s.023.055.032.083.021.063.037.106.042.1.078.185a.077.077,0,0,1,.018.074c-.006.031-.011.06-.014.088a.555.555,0,0,0,0,.06c0,.012.015.012.046,0a.688.688,0,0,1-.1.235.406.406,0,0,0-.06.254q-.213.277-.466.572t-.507.609q-.254.314-.484.66a4.735,4.735,0,0,0-.4.724.084.084,0,0,0-.069.028.416.416,0,0,0-.042.06.422.422,0,0,1-.042.06A.075.075,0,0,1,1295.4,2298.14Z" transform="translate(-1238.465 -2292.871)" fill="#fff"/>
        <path id="Path_6324" data-name="Path 6324" d="M1342.687,2295.124a.377.377,0,0,1,0,.1c0,.022-.006.042-.009.06a.353.353,0,0,0,0,.06.382.382,0,0,0,.018.1,1.058,1.058,0,0,1-.448.429,2.231,2.231,0,0,1-.549.166l-.6.106a1.8,1.8,0,0,0-.614.24.268.268,0,0,0-.217,0,.545.545,0,0,1-.281.028.308.308,0,0,1-.138.078q-.083.023-.166.051a.369.369,0,0,1,.032.171.283.283,0,0,0,.023.143,4.022,4.022,0,0,0,.715-.009q.392-.037.771-.046c.006.031,0,.051-.009.06s-.015.026-.009.051a.883.883,0,0,1,.129.115c.043.046.086.091.129.134a.7.7,0,0,0,.134.106.257.257,0,0,0,.161.032.558.558,0,0,1,.051.161.338.338,0,0,1-.023.18q-.148.1-.3.208a2.467,2.467,0,0,1-.309.189,1.84,1.84,0,0,1-.341.134,1.277,1.277,0,0,1-.4.042h-.069a.111.111,0,0,1-.06-.028.307.307,0,0,1-.208.028.31.31,0,0,0-.208.028.547.547,0,0,0-.245-.042.723.723,0,0,1-.254-.032,3.164,3.164,0,0,0-.268.415,3.606,3.606,0,0,0-.212.47,2.818,2.818,0,0,0,.521.037q.208-.009.392-.032l.378-.046a3.449,3.449,0,0,1,.489-.014,1.227,1.227,0,0,1,.438-.134,2.294,2.294,0,0,0,.466-.106.3.3,0,0,1,.129.1q.055.069.106.129a.828.828,0,0,0,.106.106.175.175,0,0,0,.138.037.2.2,0,0,1,.051.088c.009.034.017.066.023.1a.2.2,0,0,0,.032.079.073.073,0,0,0,.078.023,1.387,1.387,0,0,1-.318.466,1.232,1.232,0,0,1-.411.244,2.892,2.892,0,0,1-.512.129q-.281.046-.623.111a.23.23,0,0,1-.138,0,.334.334,0,0,0-.129-.023q-.212.046-.508.083a3.911,3.911,0,0,1-.6.028,2.73,2.73,0,0,1-.581-.078.949.949,0,0,1-.452-.245.3.3,0,0,1-.1-.152.206.206,0,0,0-.125-.134,2.542,2.542,0,0,0-.037-.267q-.028-.148-.055-.309t-.042-.318a.961.961,0,0,1,.014-.286.578.578,0,0,1,.115-.249.277.277,0,0,0,.06-.24.064.064,0,0,0,.055-.051c.006-.028.031-.038.074-.032q.055-.166.12-.314t.134-.286q.069-.138.138-.281t.134-.318a.756.756,0,0,1-.189-.263,1.435,1.435,0,0,1-.088-.286q-.028-.143-.046-.3a1.934,1.934,0,0,0-.065-.309.792.792,0,0,1,.226-.226,1.345,1.345,0,0,1,.291-.143,2.507,2.507,0,0,1,.341-.092q.185-.037.388-.083.369-.12.66-.185t.572-.106q.281-.042.586-.079t.692-.111a.233.233,0,0,0,.157.083q.037-.083.088-.051t.042-.051a.872.872,0,0,0,.235.263A1.517,1.517,0,0,0,1342.687,2295.124Z" transform="translate(-1279.093 -2293.426)" fill="#fff"/>
        <path id="Path_6325" data-name="Path 6325" d="M1392.242,2298.528a5.073,5.073,0,0,1-.18.558,1.737,1.737,0,0,1-.235.392.191.191,0,0,0-.166.028.66.66,0,0,1-.1.083.191.191,0,0,1-.12,0,.326.326,0,0,1-.065-.042.43.43,0,0,0-.069-.046.264.264,0,0,0-.125-.023q-.019-.074-.042-.138t-.125-.046a.3.3,0,0,0,.009-.125.661.661,0,0,0-.023-.092.826.826,0,0,1-.023-.083.219.219,0,0,1,.009-.106c-.031,0-.055-.021-.074-.064a1.33,1.33,0,0,0-.065-.129q.028-.166.055-.313a2.27,2.27,0,0,1,.069-.277q.041-.129.069-.259a.454.454,0,0,0-.028-.268c.024.019.043.014.055-.014a.408.408,0,0,0,.028-.111,1.055,1.055,0,0,0,.009-.138.6.6,0,0,0-.009-.115,3.848,3.848,0,0,0,.152-.494q.06-.254.111-.5t.106-.489a2.35,2.35,0,0,1,.148-.443.456.456,0,0,1,.226.023.234.234,0,0,1,.152.106,2.033,2.033,0,0,0,.425-.448q.184-.263.378-.512a2.78,2.78,0,0,1,.429-.443,1.087,1.087,0,0,1,.6-.231q.184.138.411.281a1.208,1.208,0,0,1,.374.374.668.668,0,0,1,.125.079,1.2,1.2,0,0,0,.125.088v.111a.844.844,0,0,1,.18.235,2.449,2.449,0,0,1,.125.286l.111.3a2.242,2.242,0,0,0,.129.291.218.218,0,0,0-.019.079.2.2,0,0,0,.014.069.688.688,0,0,1,.023.074.277.277,0,0,1,0,.1,1.021,1.021,0,0,1-.263.655,1.937,1.937,0,0,1-.568.411,4.555,4.555,0,0,1-.71.272,6.249,6.249,0,0,0-.683.24c0,.025.011.037.032.037s.029.015.023.046l.351.221a2.248,2.248,0,0,0,.245.138,1.779,1.779,0,0,0,.249.1q.134.041.374.1l.374.088q.133.033.245.055c.074.015.149.028.226.037s.186.02.328.032a.8.8,0,0,1,.143.2.766.766,0,0,1,.078.231.911.911,0,0,1,.009.221.294.294,0,0,1-.065.171.033.033,0,0,0,.042.023.179.179,0,0,1,.069,0,.326.326,0,0,0-.092.092l-.074.111a.518.518,0,0,1-.083.1.228.228,0,0,1-.129.051,1.246,1.246,0,0,1-.72.014,7.953,7.953,0,0,1-1.1-.355q-.332-.129-.54-.226a3.129,3.129,0,0,1-.36-.194,2.131,2.131,0,0,1-.277-.208Zm1.319-3.165a1.724,1.724,0,0,1-.226.268q-.125.12-.24.245a1.7,1.7,0,0,0-.208.277,1.031,1.031,0,0,0-.129.355,2.547,2.547,0,0,0,.674-.18l.664-.272a.816.816,0,0,0-.2-.461A.8.8,0,0,0,1393.562,2295.363Z" transform="translate(-1327.477 -2292.595)" fill="#fff"/>
        <path id="Path_6326" data-name="Path 6326" d="M1447.169,2295.6a.815.815,0,0,1,.208-.332,1.541,1.541,0,0,1,.314-.235,2.165,2.165,0,0,1,.355-.162q.184-.064.351-.111.369-.157.789-.3t.858-.254a5.152,5.152,0,0,1,.9-.143,2.769,2.769,0,0,1,.969.115.654.654,0,0,0,.083.175c.037.055.075.111.115.166s.075.109.106.162a.4.4,0,0,1,.055.161.73.73,0,0,1,.148.18.344.344,0,0,1,.018.254q-.092.074-.18.134a1.236,1.236,0,0,1-.189.106,2.186,2.186,0,0,0-.692-.055q-.351.028-.628.046a.27.27,0,0,0-.2-.083.849.849,0,0,0-.24.037l-.249.074a.515.515,0,0,1-.235.019.484.484,0,0,1-.226.1q-.134.023-.291.042c-.006.031,0,.051.018.06s.021.029.009.06a.3.3,0,0,0,.143.092c.058.019.12.037.185.055a.79.79,0,0,1,.171.069.217.217,0,0,1,.1.134.438.438,0,0,1,.24.065.585.585,0,0,1,.166.157.708.708,0,0,1,.1.2.661.661,0,0,1,.032.189q.028.074.065.065c.024-.006.052.006.083.037a.57.57,0,0,0,.138.244,1.032,1.032,0,0,1,.175.272q.018.231.028.411a.859.859,0,0,1-.065.365,2.024,2.024,0,0,1-.383.609,3.054,3.054,0,0,1-.554.475,3.891,3.891,0,0,1-.66.355,7.16,7.16,0,0,1-.683.249.152.152,0,0,0-.074,0c-.025.006-.031-.009-.018-.046a.359.359,0,0,1-.161.083.752.752,0,0,1-.189.014q-.1,0-.208-.014a.7.7,0,0,0-.2.009q-.065-.064-.115-.125a.414.414,0,0,1-.078-.152c-.031,0-.045-.015-.042-.046s-.008-.046-.032-.046q.055-.092.051-.106a.044.044,0,0,0-.028-.023.176.176,0,0,1-.042-.023.034.034,0,0,1-.009-.042.311.311,0,0,0,.028-.171c-.006-.065-.012-.131-.018-.2a.578.578,0,0,1,.014-.194.231.231,0,0,1,.134-.148,1.817,1.817,0,0,0,.6-.023,2.668,2.668,0,0,0,.531-.171,5.191,5.191,0,0,0,.475-.24q.226-.129.448-.23a.377.377,0,0,1,.078-.138,1.049,1.049,0,0,1,.106-.1.815.815,0,0,0,.1-.1.324.324,0,0,0,.065-.138c.006-.043,0-.069-.032-.078a.064.064,0,0,1-.042-.069l-.1-.028a1.953,1.953,0,0,0-.4-.171,2.26,2.26,0,0,1-.378-.152.238.238,0,0,1-.189.028,2.228,2.228,0,0,0-.226-.055,6.064,6.064,0,0,1-.6-.065,2.189,2.189,0,0,1-.558-.166.363.363,0,0,0-.046-.083q-.028-.037-.1-.019c-.037-.049-.074-.1-.111-.143a1.067,1.067,0,0,1-.1-.152c.012-.074.021-.137.028-.189a.193.193,0,0,0-.055-.152c.024-.08.043-.145.055-.194A.506.506,0,0,0,1447.169,2295.6Z" transform="translate(-1378.63 -2292.86)" fill="#fff"/>
        <path id="Path_6327" data-name="Path 6327" d="M1496.821,2299.358a1.488,1.488,0,0,1-.161.318,1.383,1.383,0,0,1-.568.494.959.959,0,0,1-.369.092.454.454,0,0,1-.161-.06.867.867,0,0,0-.088-.06l-.051-.032-.042-.023-.111-.046.037-.12a.142.142,0,0,0-.009-.115.708.708,0,0,0-.111-.115l-.055-.055a.356.356,0,0,1-.046-.055l-.157-.175.249-.065a.585.585,0,0,0,.309-.166.505.505,0,0,0,.06-.341.759.759,0,0,0-.309-.009q-.125.028-.254.064-.166.047-.337.079a2.02,2.02,0,0,1-.374.032c-.049,0-.1,0-.138,0s-.089-.008-.138-.014l-.092-.018a.249.249,0,0,0-.037-.115.284.284,0,0,1-.037-.032.752.752,0,0,1-.1-.125.25.25,0,0,1-.023-.2.437.437,0,0,1-.055-.166,1.04,1.04,0,0,0-.083.231l-.037.092-.092.018a.063.063,0,0,0-.028.042.194.194,0,0,0-.009.051l-.046.157a.359.359,0,0,1-.037.032.338.338,0,0,0-.037.032,1.723,1.723,0,0,1-.046.166c-.018.055-.037.108-.055.157q-.046.12-.078.235a.634.634,0,0,0-.023.226l-.037.1a.388.388,0,0,1-.1.088q-.055.032-.111.06a.165.165,0,0,1-.051.032l-.051.023-.028.1-.111.019-.143.028a.454.454,0,0,1-.1.009l-.092-.009c-.068-.055-.12-.1-.157-.134a.9.9,0,0,0-.129-.1.459.459,0,0,1-.092-.166c-.006-.037-.012-.071-.018-.1a.5.5,0,0,1-.023-.092.092.092,0,0,0-.023-.055l-.12-.111.1-.083.009-.157q.185-.471.392-.9t.429-.886q.074-.148.143-.3c.046-.1.094-.2.143-.3a.2.2,0,0,1-.009-.064.226.226,0,0,1,.019-.083q.1-.157.166-.281t.129-.254q.074-.157.152-.3a2.2,2.2,0,0,1,.2-.3l.148-.065.065-.023a.233.233,0,0,1,.083-.014l.138.019a1.382,1.382,0,0,0,.452-.337,4.679,4.679,0,0,0,.4-.521l.092-.129.12.074a.544.544,0,0,0,.129.051l.175.051q.166.037.314.083a.575.575,0,0,1,.24.138,1.081,1.081,0,0,1,.065.221,1.2,1.2,0,0,0,.028.147q.028.157.051.314t.032.351c.031.1.057.208.078.309s.042.2.06.309q.046.222.092.429a2.526,2.526,0,0,0,.12.392.281.281,0,0,1,.092.009.519.519,0,0,1,.1-.028l.115-.019.1-.009.037.092c.006.031.037.062.092.092a.341.341,0,0,1,.175.051,1.009,1.009,0,0,1,.1.088.28.28,0,0,0,.074.055l.139.055-.074.138a1.24,1.24,0,0,1-.263.318,1.624,1.624,0,0,1-.383.254q.009.056.014.106a.464.464,0,0,0,.023.106q.028.157.046.323a1.6,1.6,0,0,1,0,.342Zm-2.667-1.6q.277-.019.5-.042t.5-.079q-.065-.277-.139-.577t-.157-.6l-.055.092a3.924,3.924,0,0,0-.355.434,5.138,5.138,0,0,0-.291.452l-.111.166q-.055.083-.1.166a.651.651,0,0,1,.106-.009A.5.5,0,0,0,1494.154,2297.762Z" transform="translate(-1419.166 -2293.24)" fill="#fff"/>
        <path id="Path_6328" data-name="Path 6328" d="M1599.2,2297.366c-.006.031-.012.057-.018.079s-.012.042-.019.06a.224.224,0,0,0-.009.069v.106a2.777,2.777,0,0,1-.7.821,5.418,5.418,0,0,1-.923.586,11.136,11.136,0,0,1-1.047.461q-.545.207-1.061.448a.651.651,0,0,1-.337-.185.881.881,0,0,1-.175-.3,1.693,1.693,0,0,1-.083-.378q-.023-.208-.042-.429a.515.515,0,0,1,.078-.171.332.332,0,0,0,.051-.2q.074-.24.148-.47a2.055,2.055,0,0,0,.092-.471.166.166,0,0,1,.1-.1,4.631,4.631,0,0,0,0-.9,4.772,4.772,0,0,0-.152-.854.686.686,0,0,1,.023-.134c.009-.028.008-.047,0-.06-.006-.049.011-.074.051-.074h.125a.8.8,0,0,0-.051-.277q-.051-.138-.1-.314a.956.956,0,0,0,.083-.272.58.58,0,0,1,.083-.235,7.017,7.017,0,0,1,.955.378,4.255,4.255,0,0,0,.9.323q.332.24.683.475a4.423,4.423,0,0,1,.637.517,2.673,2.673,0,0,1,.48.641A2.029,2.029,0,0,1,1599.2,2297.366Zm-2.187.508q.194-.074.383-.157a2.384,2.384,0,0,0,.351-.189,1.6,1.6,0,0,0,.291-.245,1.142,1.142,0,0,0,.212-.332.72.72,0,0,0-.148-.2q-.092-.088-.185-.166t-.18-.161a.651.651,0,0,1-.143-.2.638.638,0,0,1-.212-.069q-.092-.051-.18-.1t-.185-.1a.63.63,0,0,0-.226-.055,2.166,2.166,0,0,0-.365-.148.624.624,0,0,1-.245-.12.165.165,0,0,0-.1.028,6.3,6.3,0,0,1,.139.66,4.718,4.718,0,0,1,.051.618,4.958,4.958,0,0,1-.032.632q-.037.323-.1.7a.6.6,0,0,0,.171-.042c.052-.021.1-.045.157-.069s.108-.048.166-.069a.775.775,0,0,1,.208-.042.252.252,0,0,1,.078-.092A.817.817,0,0,0,1597.01,2297.873Z" transform="translate(-1512.886 -2292.964)" fill="#fff"/>
        <path id="Path_6329" data-name="Path 6329" d="M1650.014,2295.124a.389.389,0,0,1,0,.1c0,.022-.006.042-.009.06a.352.352,0,0,0,0,.06.388.388,0,0,0,.018.1,1.057,1.057,0,0,1-.447.429,2.234,2.234,0,0,1-.549.166l-.6.106a1.8,1.8,0,0,0-.614.24.267.267,0,0,0-.217,0,.545.545,0,0,1-.281.028.308.308,0,0,1-.138.078q-.083.023-.166.051a.369.369,0,0,1,.032.171.285.285,0,0,0,.023.143,4.022,4.022,0,0,0,.715-.009q.392-.037.771-.046.009.046-.009.06c-.012.009-.016.026-.009.051a.877.877,0,0,1,.129.115q.064.069.129.134a.7.7,0,0,0,.134.106.257.257,0,0,0,.161.032.558.558,0,0,1,.051.161.34.34,0,0,1-.023.18q-.148.1-.3.208a2.449,2.449,0,0,1-.309.189,1.833,1.833,0,0,1-.341.134,1.277,1.277,0,0,1-.4.042h-.069a.111.111,0,0,1-.06-.028.307.307,0,0,1-.208.028.31.31,0,0,0-.208.028.547.547,0,0,0-.245-.042.723.723,0,0,1-.254-.032,3.177,3.177,0,0,0-.268.415,3.621,3.621,0,0,0-.212.47,2.816,2.816,0,0,0,.521.037c.139-.006.269-.017.392-.032l.378-.046a3.449,3.449,0,0,1,.489-.014,1.227,1.227,0,0,1,.438-.134,2.294,2.294,0,0,0,.466-.106.3.3,0,0,1,.129.1q.055.069.106.129a.836.836,0,0,0,.106.106.175.175,0,0,0,.138.037.2.2,0,0,1,.051.088q.014.051.023.1a.2.2,0,0,0,.032.079.073.073,0,0,0,.078.023,1.391,1.391,0,0,1-.318.466,1.233,1.233,0,0,1-.411.244,2.9,2.9,0,0,1-.512.129q-.282.046-.623.111a.23.23,0,0,1-.138,0,.334.334,0,0,0-.129-.023q-.212.046-.507.083a3.912,3.912,0,0,1-.6.028,2.73,2.73,0,0,1-.581-.078.948.948,0,0,1-.452-.245.3.3,0,0,1-.1-.152.207.207,0,0,0-.125-.134,2.511,2.511,0,0,0-.037-.267q-.028-.148-.055-.309t-.042-.318a.965.965,0,0,1,.014-.286.579.579,0,0,1,.115-.249.277.277,0,0,0,.06-.24.064.064,0,0,0,.055-.051c.006-.028.031-.038.074-.032q.055-.166.12-.314t.134-.286q.069-.138.138-.281t.134-.318a.756.756,0,0,1-.189-.263,1.452,1.452,0,0,1-.088-.286q-.028-.143-.046-.3a1.908,1.908,0,0,0-.065-.309.791.791,0,0,1,.226-.226,1.341,1.341,0,0,1,.291-.143,2.509,2.509,0,0,1,.341-.092q.185-.037.388-.083.369-.12.66-.185t.572-.106q.281-.042.586-.079t.692-.111a.234.234,0,0,0,.157.083q.037-.083.088-.051t.042-.051a.872.872,0,0,0,.235.263A1.514,1.514,0,0,0,1650.014,2295.124Z" transform="translate(-1558.499 -2293.426)" fill="#fff"/>
        <path id="Path_6330" data-name="Path 6330" d="M1736.954,2286.893a.294.294,0,0,0-.111.189c-.012.077-.028.152-.046.226a.443.443,0,0,1-.1.189.293.293,0,0,1-.245.069c-.025.031-.029.049-.014.055s.029.034.042.083a.275.275,0,0,0-.185.019.4.4,0,0,1-.138.055.729.729,0,0,1-.355-.235,2.066,2.066,0,0,1-.249-.374,3.509,3.509,0,0,1-.185-.415,3.09,3.09,0,0,0-.161-.369q0-.037.032-.032a.412.412,0,0,0,.06,0,.819.819,0,0,1-.069-.208.4.4,0,0,0-.088-.189q.268-.572.572-1.2t.614-1.264q.309-.641.618-1.292t.6-1.278a4.294,4.294,0,0,1,.5.217,2.5,2.5,0,0,1,.448.291,1.714,1.714,0,0,1,.346.383,1.264,1.264,0,0,1,.189.494c-.012.037-.028.049-.046.037s-.034-.006-.046.019a.24.24,0,0,1,.051.078.081.081,0,0,1,0,.046.162.162,0,0,0-.009.06.2.2,0,0,0,.046.1.062.062,0,0,0-.065.014c-.012.015-.034.017-.065,0a.372.372,0,0,1,.028.2.478.478,0,0,1-.055.134.611.611,0,0,0-.06.129.32.32,0,0,0,.014.189.072.072,0,0,0-.051.014.126.126,0,0,0-.023.032.123.123,0,0,1-.023.032c-.009.009-.026.011-.051,0a3.186,3.186,0,0,1,.018.484q-.009.245-.018.5t0,.521a2.972,2.972,0,0,0,.074.554,1.906,1.906,0,0,0,.641-.6,3.261,3.261,0,0,0,.388-.821,6.4,6.4,0,0,0,.221-.969q.078-.517.161-1.052a.745.745,0,0,0,.161-.249,2.532,2.532,0,0,0,.1-.3q.042-.157.083-.318a1.176,1.176,0,0,1,.115-.291.616.616,0,0,1,.281.1,1.689,1.689,0,0,1,.217.175,2.367,2.367,0,0,0,.212.18.622.622,0,0,0,.277.111q.129.185.24.355a1.015,1.015,0,0,1,.148.383.745.745,0,0,0-.083.2q-.028.111-.06.221a.855.855,0,0,1-.088.2.474.474,0,0,1-.157.157,4.109,4.109,0,0,1-.083.517q-.055.24-.1.47t-.083.48a3.046,3.046,0,0,0-.028.544q-.083.268-.185.549a3.475,3.475,0,0,0-.148.521,1,1,0,0,0-.277.342q-.1.2-.212.406c-.031.024-.049.029-.055.014s-.034-.026-.083-.032c.006.055,0,.091-.032.106s-.026.06,0,.134a.976.976,0,0,0-.277.194,2.04,2.04,0,0,1-.263.221.791.791,0,0,1-.332.134,1.01,1.01,0,0,1-.494-.078,4.556,4.556,0,0,1-.812-.766,3.372,3.372,0,0,1-.572-1.024.222.222,0,0,0-.138.12,1.8,1.8,0,0,0-.083.194c-.025.068-.049.129-.074.185a.119.119,0,0,1-.111.083.4.4,0,0,1-.069.152q-.051.069-.1.138a.52.52,0,0,0-.069.152A.268.268,0,0,0,1736.954,2286.893Z" transform="translate(-1640.493 -2280.868)" fill="#fff"/>
        <path id="Path_6331" data-name="Path 6331" d="M1814.148,2295.7a.606.606,0,0,0,.018.212,1.475,1.475,0,0,0,.069.2q.041.1.078.2a1.266,1.266,0,0,1,.055.2,1.074,1.074,0,0,1,0,.281,1.582,1.582,0,0,1-.065.3,1.111,1.111,0,0,1-.12.258.488.488,0,0,1-.175.171.909.909,0,0,1-.314.258,1.811,1.811,0,0,0-.341.221.7.7,0,0,1-.226.092l-.254.055q-.1.055-.24.115t-.286.111a1.7,1.7,0,0,1-.3.074,1.107,1.107,0,0,1-.258.014,2.44,2.44,0,0,1-.54.134,1.9,1.9,0,0,1-.614-.042,1.561,1.561,0,0,1-.614-.028,1.434,1.434,0,0,1-.5-.235,1.737,1.737,0,0,1-.378-.388,2.31,2.31,0,0,1-.263-.475,2.441,2.441,0,0,1,.037-.955,3.222,3.222,0,0,1,.318-.793,4.207,4.207,0,0,1,.475-.674q.268-.309.517-.6a.094.094,0,0,0,.088,0,.244.244,0,0,0,.06-.064.758.758,0,0,1,.06-.079.14.14,0,0,1,.078-.046.446.446,0,0,1,.189-.208.513.513,0,0,0,.2-.2.408.408,0,0,0,.138-.055.88.88,0,0,0,.106-.083c.034-.031.069-.06.106-.088a.359.359,0,0,1,.129-.06v-.1a.648.648,0,0,0,.245-.171l.189-.235a1.286,1.286,0,0,1,.134-.009.945.945,0,0,0,.152-.018,1.074,1.074,0,0,1,.134-.194.874.874,0,0,1,.18-.138.779.779,0,0,0,.245.074.408.408,0,0,1,.235.12.241.241,0,0,0,.055.143.737.737,0,0,0,.1.092q.055.041.106.088a.24.24,0,0,1,.069.129c.025.006.042,0,.051-.009s.026-.015.051-.009a.4.4,0,0,0,.065.171.474.474,0,0,1,.074.162.861.861,0,0,0-.069.189.207.207,0,0,1-.115.143c-.006.043.006.066.037.069a.058.058,0,0,1,.055.051.141.141,0,0,1-.028.12,6.16,6.16,0,0,1,.4.761A6.109,6.109,0,0,0,1814.148,2295.7Zm-1.153.877a.482.482,0,0,1,.1-.166.309.309,0,0,0,.069-.194.406.406,0,0,1-.055-.115.688.688,0,0,1-.009-.134,3.607,3.607,0,0,1-.351-.614,4.68,4.68,0,0,0-.332-.614.235.235,0,0,1-.065.074c-.031.025-.065.019-.1-.019a.176.176,0,0,1-.065.106.149.149,0,0,1-.1.028.413.413,0,0,1-.115-.028.4.4,0,0,1-.106-.06q-.268.212-.535.415a2.665,2.665,0,0,0-.48.471c-.025.012-.04.017-.046.014s-.025,0-.055.014a1.527,1.527,0,0,1-.18.318q-.106.143-.208.291a1.946,1.946,0,0,0-.175.313,1.053,1.053,0,0,0-.083.388.711.711,0,0,0,.369.157,2.06,2.06,0,0,0,.438.009,4.152,4.152,0,0,0,.443-.06,2.128,2.128,0,0,1,.4-.042,2.652,2.652,0,0,0,.664-.245Q1812.69,2296.737,1812.994,2296.58Z" transform="translate(-1707.509 -2291.578)" fill="#fff"/>
        <path id="Path_6332" data-name="Path 6332" d="M1875.679,2298.528a5.1,5.1,0,0,1-.18.558,1.738,1.738,0,0,1-.235.392.191.191,0,0,0-.166.028.655.655,0,0,1-.1.083.19.19,0,0,1-.12,0,.323.323,0,0,1-.065-.042.43.43,0,0,0-.069-.046.264.264,0,0,0-.125-.023q-.019-.074-.042-.138t-.125-.046a.3.3,0,0,0,.009-.125.7.7,0,0,0-.023-.092.8.8,0,0,1-.023-.083.218.218,0,0,1,.009-.106c-.031,0-.055-.021-.074-.064a1.3,1.3,0,0,0-.065-.129q.028-.166.055-.313a2.293,2.293,0,0,1,.069-.277q.042-.129.069-.259a.454.454,0,0,0-.028-.268c.024.019.043.014.055-.014a.413.413,0,0,0,.028-.111,1.076,1.076,0,0,0,.009-.138.616.616,0,0,0-.009-.115,3.867,3.867,0,0,0,.152-.494q.06-.254.111-.5t.106-.489a2.35,2.35,0,0,1,.148-.443.455.455,0,0,1,.226.023.234.234,0,0,1,.152.106,2.03,2.03,0,0,0,.424-.448q.185-.263.378-.512a2.786,2.786,0,0,1,.429-.443,1.088,1.088,0,0,1,.6-.231q.184.138.411.281a1.206,1.206,0,0,1,.374.374.668.668,0,0,1,.125.079,1.2,1.2,0,0,0,.125.088v.111a.842.842,0,0,1,.18.235,2.428,2.428,0,0,1,.125.286l.111.3a2.259,2.259,0,0,0,.129.291.218.218,0,0,0-.018.079.2.2,0,0,0,.014.069.688.688,0,0,1,.023.074.277.277,0,0,1,0,.1,1.021,1.021,0,0,1-.263.655,1.937,1.937,0,0,1-.568.411,4.552,4.552,0,0,1-.711.272,6.268,6.268,0,0,0-.683.24c0,.025.011.037.032.037s.029.015.023.046l.351.221a2.247,2.247,0,0,0,.245.138,1.781,1.781,0,0,0,.249.1q.133.041.374.1l.374.088q.134.033.245.055t.226.037q.115.014.328.032a.8.8,0,0,1,.143.2.765.765,0,0,1,.078.231.911.911,0,0,1,.009.221.294.294,0,0,1-.065.171.033.033,0,0,0,.042.023.179.179,0,0,1,.069,0,.323.323,0,0,0-.092.092l-.074.111a.523.523,0,0,1-.083.1.228.228,0,0,1-.129.051,1.246,1.246,0,0,1-.72.014,7.948,7.948,0,0,1-1.1-.355q-.332-.129-.54-.226a3.149,3.149,0,0,1-.36-.194,2.138,2.138,0,0,1-.277-.208Zm1.319-3.165a1.723,1.723,0,0,1-.226.268q-.125.12-.24.245a1.707,1.707,0,0,0-.208.277,1.036,1.036,0,0,0-.129.355,2.547,2.547,0,0,0,.674-.18l.664-.272a.817.817,0,0,0-.2-.461A.794.794,0,0,0,1877,2295.363Z" transform="translate(-1766.992 -2292.595)" fill="#fff"/>
        <path id="Path_6333" data-name="Path 6333" d="M1931.637,2295.234a4.184,4.184,0,0,0-.5.032q-.268.032-.526.069-.185.028-.355.046t-.309.028q-.065.2-.129.36t-.138.3q-.074.157-.134.318t-.115.346a2.852,2.852,0,0,0-.152.272,1.359,1.359,0,0,0-.1.281,1.023,1.023,0,0,0-.166.291,2.7,2.7,0,0,0-.083.263l-.037.111a.245.245,0,0,0-.065.088.118.118,0,0,1-.046.06.52.52,0,0,1-.065.2.548.548,0,0,0-.028.088.325.325,0,0,0-.009.06c0,.062-.015.1-.046.12a.264.264,0,0,1,0,.1c-.006.034-.012.066-.019.1a.483.483,0,0,0-.018.175c.018.025.035.046.051.065a.163.163,0,0,1,.032.074.4.4,0,0,0,.083.046.746.746,0,0,0,.111.064l.083.092a.5.5,0,0,1-.083.425.566.566,0,0,1-.471.175h-.111a.226.226,0,0,1-.055-.074l-.12-.046a.185.185,0,0,1-.083-.074q-.12-.055-.194-.092l-.083-.046v-.111a.584.584,0,0,1-.1-.185,1.6,1.6,0,0,1-.051-.2q-.019-.083-.042-.157a.513.513,0,0,0-.06-.129,2.649,2.649,0,0,1,.1-.9q.12-.369.249-.71.074-.185.148-.374a3.921,3.921,0,0,0,.129-.392l.083-.092q.064-.148.106-.245t.088-.2c.019-.043.035-.084.051-.125s.029-.075.042-.106a.994.994,0,0,0-.1,0c-.031,0-.062.008-.092.014s-.071.011-.1.014a.9.9,0,0,1-.092,0,.326.326,0,0,1-.092-.009.525.525,0,0,1-.221.046h-.092a.251.251,0,0,1-.051,0,.227.227,0,0,0-.042,0,.331.331,0,0,0-.148.028h-.3a.278.278,0,0,0-.046,0,.28.28,0,0,1-.046,0,.749.749,0,0,1-.138-.014.521.521,0,0,1-.157-.06q-.111-.148-.148-.157l-.083-.111a.619.619,0,0,0-.028-.106c-.012-.034-.025-.072-.037-.115q-.037-.092-.069-.2a.871.871,0,0,1-.032-.254.232.232,0,0,1,.037-.111c.018-.025.034-.046.046-.065l.028-.138.12.009h.258q.3,0,.6-.023t.627-.051l.374-.037.392-.037c.024-.055.049-.107.074-.157l.092-.046a.376.376,0,0,1,.235.042,1.071,1.071,0,0,1,.115.1q.2-.018.411-.042t.42-.06q.313-.046.632-.083a5.316,5.316,0,0,1,.614-.037c.086,0,.169,0,.249.009a2.194,2.194,0,0,1,.221.028l.092.064a.346.346,0,0,0,.078.1c.034.031.069.062.106.092a2.164,2.164,0,0,1,.221.24.546.546,0,0,1,.083.406.429.429,0,0,1-.111.129l-.083.111-.092-.009a.35.35,0,0,0-.1.014q-.046.014-.092.032a.76.76,0,0,1-.074.032.506.506,0,0,1-.083.023c-.055,0-.1,0-.134,0S1931.674,2295.234,1931.637,2295.234Z" transform="translate(-1814.36 -2292.779)" fill="#fff"/>
        <path id="Path_6334" data-name="Path 6334" d="M1982.327,2295.124a.389.389,0,0,1,0,.1c0,.022-.006.042-.009.06a.352.352,0,0,0,0,.06.382.382,0,0,0,.018.1,1.058,1.058,0,0,1-.448.429,2.232,2.232,0,0,1-.549.166l-.6.106a1.8,1.8,0,0,0-.614.24.268.268,0,0,0-.217,0,.545.545,0,0,1-.281.028.309.309,0,0,1-.138.078q-.083.023-.166.051a.369.369,0,0,1,.032.171.285.285,0,0,0,.023.143,4.022,4.022,0,0,0,.715-.009q.392-.037.771-.046c.006.031,0,.051-.009.06s-.016.026-.009.051a.883.883,0,0,1,.129.115q.064.069.129.134a.7.7,0,0,0,.134.106.257.257,0,0,0,.161.032.554.554,0,0,1,.051.161.338.338,0,0,1-.023.18q-.148.1-.3.208a2.467,2.467,0,0,1-.309.189,1.84,1.84,0,0,1-.341.134,1.277,1.277,0,0,1-.4.042h-.069a.111.111,0,0,1-.06-.028.307.307,0,0,1-.208.028.31.31,0,0,0-.208.028.547.547,0,0,0-.245-.042.723.723,0,0,1-.254-.032,3.177,3.177,0,0,0-.268.415,3.606,3.606,0,0,0-.212.47,2.818,2.818,0,0,0,.521.037q.208-.009.392-.032l.378-.046a3.449,3.449,0,0,1,.489-.014,1.227,1.227,0,0,1,.438-.134,2.294,2.294,0,0,0,.466-.106.3.3,0,0,1,.129.1q.055.069.106.129a.836.836,0,0,0,.106.106.175.175,0,0,0,.138.037.2.2,0,0,1,.051.088c.009.034.017.066.023.1a.2.2,0,0,0,.032.079.073.073,0,0,0,.078.023,1.387,1.387,0,0,1-.318.466,1.233,1.233,0,0,1-.411.244,2.893,2.893,0,0,1-.512.129q-.282.046-.623.111a.231.231,0,0,1-.139,0,.334.334,0,0,0-.129-.023q-.213.046-.508.083a3.912,3.912,0,0,1-.6.028,2.727,2.727,0,0,1-.581-.078.948.948,0,0,1-.452-.245.3.3,0,0,1-.1-.152.207.207,0,0,0-.125-.134,2.542,2.542,0,0,0-.037-.267q-.028-.148-.055-.309t-.042-.318a.961.961,0,0,1,.014-.286.577.577,0,0,1,.115-.249.277.277,0,0,0,.06-.24.064.064,0,0,0,.055-.051c.006-.028.031-.038.074-.032q.055-.166.12-.314t.134-.286q.069-.138.138-.281t.134-.318a.756.756,0,0,1-.189-.263,1.435,1.435,0,0,1-.088-.286q-.028-.143-.046-.3a1.934,1.934,0,0,0-.065-.309.791.791,0,0,1,.226-.226,1.341,1.341,0,0,1,.291-.143,2.5,2.5,0,0,1,.341-.092q.184-.037.387-.083.369-.12.66-.185t.572-.106q.281-.042.586-.079t.692-.111a.234.234,0,0,0,.157.083c.024-.055.054-.072.088-.051s.048,0,.042-.051a.869.869,0,0,0,.235.263A1.511,1.511,0,0,0,1982.327,2295.124Z" transform="translate(-1860.62 -2293.426)" fill="#fff"/>
        <path id="Path_6335" data-name="Path 6335" d="M2071.461,2299.358a1.482,1.482,0,0,1-.161.318,1.383,1.383,0,0,1-.568.494.958.958,0,0,1-.369.092.457.457,0,0,1-.162-.06.852.852,0,0,0-.088-.06l-.051-.032-.042-.023-.111-.046.037-.12a.142.142,0,0,0-.009-.115.7.7,0,0,0-.111-.115l-.055-.055a.356.356,0,0,1-.046-.055l-.157-.175.249-.065a.585.585,0,0,0,.309-.166.5.5,0,0,0,.06-.341.758.758,0,0,0-.309-.009q-.125.028-.254.064-.166.047-.337.079a2.021,2.021,0,0,1-.374.032c-.049,0-.1,0-.138,0s-.089-.008-.138-.014l-.092-.018a.251.251,0,0,0-.037-.115.293.293,0,0,1-.037-.032.745.745,0,0,1-.1-.125.25.25,0,0,1-.023-.2.434.434,0,0,1-.055-.166,1.022,1.022,0,0,0-.083.231l-.037.092-.092.018a.062.062,0,0,0-.028.042.2.2,0,0,0-.009.051l-.046.157a.359.359,0,0,1-.037.032.338.338,0,0,0-.037.032q-.019.083-.046.166c-.019.055-.037.108-.055.157-.031.08-.057.158-.078.235a.634.634,0,0,0-.023.226l-.037.1a.383.383,0,0,1-.1.088q-.055.032-.111.06a.165.165,0,0,1-.051.032l-.051.023-.028.1-.111.019-.143.028a.452.452,0,0,1-.1.009l-.092-.009c-.068-.055-.12-.1-.157-.134a.9.9,0,0,0-.129-.1.459.459,0,0,1-.092-.166c-.006-.037-.012-.071-.019-.1a.513.513,0,0,1-.023-.092.093.093,0,0,0-.023-.055l-.12-.111.1-.083.009-.157q.185-.471.392-.9t.429-.886q.074-.148.143-.3c.046-.1.094-.2.143-.3a.2.2,0,0,1-.009-.064.226.226,0,0,1,.019-.083q.1-.157.166-.281t.129-.254q.074-.157.152-.3a2.181,2.181,0,0,1,.2-.3l.147-.065.065-.023a.232.232,0,0,1,.083-.014l.138.019a1.381,1.381,0,0,0,.452-.337,4.694,4.694,0,0,0,.4-.521l.092-.129.12.074a.541.541,0,0,0,.129.051l.175.051q.166.037.314.083a.575.575,0,0,1,.24.138,1.108,1.108,0,0,1,.065.221,1.151,1.151,0,0,0,.028.147q.028.157.051.314c.015.1.026.222.032.351.031.1.057.208.078.309s.042.2.06.309q.046.222.092.429a2.526,2.526,0,0,0,.12.392.28.28,0,0,1,.092.009.522.522,0,0,1,.1-.028l.115-.019.1-.009.037.092c.006.031.037.062.092.092a.341.341,0,0,1,.175.051,1.024,1.024,0,0,1,.1.088.276.276,0,0,0,.074.055l.138.055-.074.138a1.24,1.24,0,0,1-.263.318,1.623,1.623,0,0,1-.383.254c.006.037.01.073.014.106a.471.471,0,0,0,.023.106q.027.157.046.323a1.6,1.6,0,0,1,0,.342Zm-2.667-1.6q.277-.019.5-.042t.5-.079q-.064-.277-.138-.577t-.157-.6l-.055.092a3.952,3.952,0,0,0-.355.434,5.141,5.141,0,0,0-.291.452l-.111.166q-.055.083-.1.166a.651.651,0,0,1,.106-.009A.5.5,0,0,0,2068.794,2297.762Z" transform="translate(-1941.598 -2293.24)" fill="#fff"/>
        <path id="Path_6336" data-name="Path 6336" d="M2168.947,2283.6c.019-.092.031-.167.037-.226a.278.278,0,0,0-.064-.189c.024-.1.044-.175.06-.231a.617.617,0,0,0,0-.23,1.022,1.022,0,0,1,.254-.406,1.824,1.824,0,0,1,.374-.281,2.654,2.654,0,0,1,.424-.194q.222-.078.415-.134a.033.033,0,0,0-.037-.037c-.025,0-.031-.015-.019-.046a6.8,6.8,0,0,0,1-.268q.5-.175,1.029-.314a5.481,5.481,0,0,1,1.08-.171,3.463,3.463,0,0,1,1.163.143.967.967,0,0,0,.1.212q.064.1.134.2c.046.064.088.128.125.189a.457.457,0,0,1,.065.194.984.984,0,0,1,.18.217.408.408,0,0,1,.023.309q-.1.074-.212.148c-.074.049-.151.1-.231.138a2.723,2.723,0,0,0-.83-.074q-.415.028-.748.065a.3.3,0,0,0-.24-.106,1.292,1.292,0,0,0-.291.046l-.3.083a.664.664,0,0,1-.277.023.543.543,0,0,1-.268.125q-.166.033-.351.051a.057.057,0,0,0,.018.065c.019.012.021.037.009.074a.333.333,0,0,0,.175.115q.111.032.226.06a.846.846,0,0,1,.208.078.243.243,0,0,1,.12.162.57.57,0,0,1,.286.088.8.8,0,0,1,.2.189.74.74,0,0,1,.12.235.613.613,0,0,1,.028.226q.037.092.078.074t.1.046a.744.744,0,0,0,.171.291,1.209,1.209,0,0,1,.208.328q.018.277.032.5a.931.931,0,0,1-.079.434,2.3,2.3,0,0,1-.452.729,3.482,3.482,0,0,1-.669.568,5.229,5.229,0,0,1-.789.424,7.151,7.151,0,0,1-.821.3.2.2,0,0,0-.088,0c-.034.006-.042-.012-.023-.055a.379.379,0,0,1-.189.092,1.109,1.109,0,0,1-.231.014q-.125,0-.249-.014a1.072,1.072,0,0,0-.244.009,1.919,1.919,0,0,1-.134-.147.592.592,0,0,1-.1-.175.049.049,0,0,1-.042-.06c0-.034-.011-.051-.042-.051a.131.131,0,0,1,.009-.055l.019-.037c.024-.018.035-.032.032-.042a.06.06,0,0,0-.028-.028.388.388,0,0,1-.046-.032.039.039,0,0,1-.014-.046.32.32,0,0,0,.032-.2c-.009-.077-.017-.155-.023-.235a.682.682,0,0,1,.019-.226.3.3,0,0,1,.157-.18,2.282,2.282,0,0,0,.715-.037,3.482,3.482,0,0,0,.637-.2,6.225,6.225,0,0,0,.572-.281q.272-.152.531-.281a.386.386,0,0,1,.088-.157q.06-.065.125-.125a1.179,1.179,0,0,0,.12-.129.462.462,0,0,0,.083-.171.084.084,0,0,0,0-.055.093.093,0,0,0-.028-.032.338.338,0,0,1-.037-.032.075.075,0,0,1-.019-.055l-.051-.019a.123.123,0,0,0-.042-.009,3.408,3.408,0,0,0-.507-.2,2.435,2.435,0,0,1-.452-.185.244.244,0,0,1-.222.037q-.111-.037-.268-.074a6.635,6.635,0,0,1-.733-.074,2.818,2.818,0,0,1-.669-.194.415.415,0,0,0-.046-.1c-.019-.028-.062-.035-.129-.023a2.031,2.031,0,0,0-.134-.171A.972.972,0,0,1,2168.947,2283.6Z" transform="translate(-2034.857 -2280.864)" fill="#fff"/>
        <path id="Path_6337" data-name="Path 6337" d="M2238.017,2294.7a1.7,1.7,0,0,0,.064.351q.046.148.1.286t.088.254a1.448,1.448,0,0,1,.06.3,3.24,3.24,0,0,0-.106.443q-.032.2-.069.425-.148.323-.286.572t-.221.434a.442.442,0,0,0-.078.106c-.022.04-.045.082-.069.125a.826.826,0,0,0-.046.083.318.318,0,0,1-.046.074l-.185-.065-.037.231-.129.037-.092.111a2.782,2.782,0,0,1-.369.512,2.418,2.418,0,0,1-.438.369,3.89,3.89,0,0,1-.554.3q-.309.138-.7.3-.157-.018-.272-.023t-.217-.014a4.167,4.167,0,0,1-.434-.028.176.176,0,0,0-.083-.1.231.231,0,0,0-.1-.028.5.5,0,0,1-.235-.217q-.079-.143-.152-.309c-.031-.068-.062-.131-.092-.189s-.065-.118-.1-.18l.157-.046-.2-.221a.237.237,0,0,0-.046-.051.231.231,0,0,1-.046-.051l-.009-.148q-.028-.636-.023-1.167a3.067,3.067,0,0,1,.143-.946v-.1q.028-.2.055-.337t.046-.254a2.248,2.248,0,0,1,.083-.378.332.332,0,0,0,.194-.106c.043-.052.08-.1.111-.143a.226.226,0,0,1,.175.037.514.514,0,0,1,.092.147q.046.083.115.185a.441.441,0,0,0,.208.157,1.061,1.061,0,0,0,.051.152l.069.171a3.475,3.475,0,0,1,.134.327,1.211,1.211,0,0,1,.069.328,1.6,1.6,0,0,0-.143.406,2.973,2.973,0,0,0-.065.466,2.741,2.741,0,0,0,.009.452,1.5,1.5,0,0,0,.078.365l.055.12.157-.018a4.855,4.855,0,0,0,.5-.162,2.553,2.553,0,0,0,.42-.208,2.438,2.438,0,0,0,.369-.281q.175-.161.369-.374a2.307,2.307,0,0,0,.337-.485,3.685,3.685,0,0,0,.24-.568,4.225,4.225,0,0,0,.148-.586q.051-.291.069-.549a.216.216,0,0,0,.157-.221l-.019-.1a.121.121,0,0,1,0-.129.442.442,0,0,1,.258-.268,1.63,1.63,0,0,1,.263.2Q2237.915,2294.588,2238.017,2294.7Z" transform="translate(-2093.159 -2293.056)" fill="#fff"/>
        <path id="Path_6338" data-name="Path 6338" d="M2292.015,2299.571q-.259.083-.563.166a2.3,2.3,0,0,1-.609.083,1.08,1.08,0,0,1-.729-.23.507.507,0,0,0-.083-.138.666.666,0,0,1-.051-.079.316.316,0,0,1-.032-.115.987.987,0,0,1-.175-.3,1.52,1.52,0,0,1-.088-.351,1.777,1.777,0,0,1-.009-.364,1.821,1.821,0,0,1,.06-.351.231.231,0,0,0,.023-.074c0-.024.008-.052.014-.083q.037-.148.078-.286a.788.788,0,0,1,.115-.24.238.238,0,0,1,0-.184,1.292,1.292,0,0,1,.083-.185q.129-.351.217-.6t.18-.484q.157-.415.3-.821t.249-.877c.049-.031.086-.052.111-.064s.068-.021.092-.028a3.49,3.49,0,0,0,.387.161,1.153,1.153,0,0,0,.369.078.44.44,0,0,1,.092.069.483.483,0,0,0,.037.042,1.8,1.8,0,0,1,.175.244.5.5,0,0,1,.046.328c-.037.055-.065.083-.083.083a2.6,2.6,0,0,1-.1.314q-.051.129-.106.258c-.043.092-.083.185-.12.277a1.807,1.807,0,0,0-.092.342.308.308,0,0,0-.051.083l-.032.083c-.012.031-.026.063-.042.1a.237.237,0,0,1-.069.088,1.517,1.517,0,0,1-.087.388c-.04.1-.082.2-.125.3q-.111.268-.2.535a2.357,2.357,0,0,0-.106.609.238.238,0,0,1,.088-.018h.078a.82.82,0,0,1,.194.028,1.545,1.545,0,0,1,.6-.175q.327-.028.65-.037h.259a1.444,1.444,0,0,0,.24-.019.521.521,0,0,0,.106.051.37.37,0,0,0,.069,0,.58.58,0,0,1,.111.009.828.828,0,0,0,.212.148,2.189,2.189,0,0,0,.212.083c.068.025.134.051.2.078a.814.814,0,0,1,.189.115l.065.4c.043.055.061.092.055.111a.151.151,0,0,1-.037.111l.019.1a.527.527,0,0,0-.189.065.811.811,0,0,0-.1.083.933.933,0,0,1-.106.009h-.06a1.326,1.326,0,0,0-.314.046,1.623,1.623,0,0,0-.517-.083c-.068,0-.138,0-.212.009l-.221.019c-.074.012-.149.022-.226.028s-.156.009-.235.009Z" transform="translate(-2144.637 -2292.779)" fill="#fff"/>
      </g>
    </g>
  </g>
</svg>
