<svg xmlns="http://www.w3.org/2000/svg" width="150" height="27.931" viewBox="0 0 150 27.931">
  <g id="Group_13" data-name="Group 13" transform="translate(-153.42 -45.491)">
    <path id="Path_15" data-name="Path 15" d="M165.831,51q-.141.312-.327.683t-.417.824q-.362.352-.784.754L162.083,54h-5.618v6.874h2v.332H153.42v-.332h1.99V46.084h-1.99v-.332h8.663q.161.05.714.236l1.507.507.784.754q.141.292.326.668t.417.839Zm-1.055-.08v-2.08l-.693-1.377-.683-.683-1.377-.693h-5.557v7.588h5.557l1.377-.694.683-.683Z" transform="translate(0 -0.201)" fill="#fff"/>
    <path id="Path_16" data-name="Path 16" d="M228.7,61.007h-5.045v-.332h1.99V50.918h-1.99V50.6H226.7v10.08h2Zm-1.94-14.572-.945.945-.945-.945.945-.944Z" transform="translate(-54.058)" fill="#fff"/>
    <path id="Path_17" data-name="Path 17" d="M271.572,70.758l-.884.884-.955-.945.824-.844.251.241-.623.6.5.493.553-.553v-.6q-.281-.291-.623-.633t-.754-.724l-1.387-.7h-2.07l-.668.337-.719.367-1.4,1.377-.7,2.1v1.4q.171.492.342,1.01t.362,1.091q.291.3.633.648t.764.739q.613.322,1.387.693h1.377q.161-.05.678-.226t1.422-.467l1.4-1.427.251.251-1.487,1.457-2.221.744h-1.487q-.161-.05-.714-.236l-1.507-.507-1.5-1.5-.744-2.221V72.115q.05-.16.236-.713l.507-1.507,1.5-1.507,2.221-.733h2.231l1.5.733,1.507,1.528Z" transform="translate(-83.471 -17.057)" fill="#fff"/>
    <path id="Path_18" data-name="Path 18" d="M330.983,74.7l-.784.8q-.291.141-.663.327l-.834.417h-2.965q-.281-.13-.653-.311t-.844-.432l-.583-.573-.925,1.839V72.5l.683,1.357q.09.191.342.683l.683.683,1.377.693h2.8q.261-.121.6-.291t.774-.4l.663-.643V73.266q-.231-.251-.663-.633l-.156-.08-.306-.161-.935-.482-2.4-.955q-.593-.231-1.136-.472t-1.055-.493c-.087-.033-.173-.07-.256-.111a2.242,2.242,0,0,1-.236-.131l-.784-.8V67.377l.784-.8q.291-.141.663-.327t.834-.407h2.965q.291.131.668.317l.839.417q.131.141.271.281l.3.3.925-1.859v4.281l-.683-1.357q-.05-.091-.131-.256t-.211-.417q-.241-.251-.412-.417t-.271-.267l-1.377-.7H325.1q-.261.121-.608.3t-.779.407l-.306.307q-.166.166-.347.337V68.1a3.54,3.54,0,0,0,.276.287q.166.156.377.347l.156.08c.077.04.182.094.316.161l.935.482,2.4.965q1.276.512,2.181.955a4.759,4.759,0,0,1,.492.241q.181.181.377.382t.407.422Z" transform="translate(-130.31 -15.244)" fill="#fff"/>
    <path id="Path_19" data-name="Path 19" d="M387.006,72.306h-8.653v1.246q.171.492.342,1.01t.362,1.091q.291.3.633.648t.764.739q.613.322,1.387.693h1.377q.161-.05.678-.226t1.422-.467l1.4-1.427.251.251-1.487,1.457-2.221.744H381.77q-.161-.05-.714-.236l-1.507-.507-1.5-1.5-.744-2.221V72.115q.05-.16.236-.713l.508-1.507,1.5-1.507,2.221-.733H384l1.5.733.764.764q.141.292.327.668t.417.839Zm-1.055-.331v-1.96l-.673-1.357-1.367-.683h-2.07l-.668.337-.719.367-1.4,1.377-.633,1.92Z" transform="translate(-172.314 -17.057)" fill="#fff"/>
    <path id="Path_20" data-name="Path 20" d="M440.812,61.208h-5.045v-.332h1.99V46.084h-1.99v-.332h3.045V60.877h2Z" transform="translate(-217.306 -0.201)" fill="#fff"/>
    <path id="Path_21" data-name="Path 21" d="M472.109,65.6l-4.432-11.859a5.4,5.4,0,0,0-.925-1.764,1.65,1.65,0,0,0-1.146-.518v-.432h5.427v.432a3.174,3.174,0,0,0-1.151.206.561.561,0,0,0-.287.538,1.72,1.72,0,0,0,.065.377q.065.256.176.568l3.115,8.311,2.342-6.3-.824-2.181a2.521,2.521,0,0,0-.724-1.161,2.409,2.409,0,0,0-1.246-.357v-.432h5.819v.432A5.046,5.046,0,0,0,477,51.7a.487.487,0,0,0-.352.452,2.371,2.371,0,0,0,.1.588q.1.357.276.859l2.965,7.859,2.844-7.8a6.954,6.954,0,0,0,.236-.8,2.838,2.838,0,0,0,.085-.578.613.613,0,0,0-.307-.553,2.711,2.711,0,0,0-1.07-.271v-.432h3.728v.422a1.28,1.28,0,0,0-.869.508,6.116,6.116,0,0,0-.779,1.663L479.636,65.6H479.2l-3.417-9.055L472.521,65.6Z" transform="translate(-240.272 -4.264)" fill="#fff"/>
    <path id="Path_22" data-name="Path 22" d="M556.785,57.106a7.316,7.316,0,0,1,2.019-5.4,8.059,8.059,0,0,1,10.7,0,7.317,7.317,0,0,1,2.019,5.4,7.365,7.365,0,0,1-2.019,5.417,8.029,8.029,0,0,1-10.7,0A7.365,7.365,0,0,1,556.785,57.106Zm2.452,0a8.027,8.027,0,0,0,1.33,4.874,4.47,4.47,0,0,0,7.168,0,8.025,8.025,0,0,0,1.331-4.874,7.965,7.965,0,0,0-1.331-4.849,4.477,4.477,0,0,0-7.168,0A7.967,7.967,0,0,0,559.237,57.106Z" transform="translate(-310.447 -3.223)" fill="#fff"/>
    <path id="Path_23" data-name="Path 23" d="M628.2,65.271v-.432h.261a2.022,2.022,0,0,0,1.487-.432,2.317,2.317,0,0,0,.412-1.588V53.252a1.774,1.774,0,0,0-.432-1.4,2.978,2.978,0,0,0-1.728-.392v-.432h7.226a6.065,6.065,0,0,1,3.668.945,3.527,3.527,0,0,1,.372,5.055,5.191,5.191,0,0,1-2.623,1.326q2.784,3.578,4.14,5t1.99,1.482v.432h-3.226q-1.327-1.427-2.658-3.045t-2.678-3.437h-1.3a.627.627,0,0,0-.427.116.522.522,0,0,0-.126.4v3.517A2.223,2.223,0,0,0,633,64.407a2.279,2.279,0,0,0,1.6.432h.181v.432Zm4.361-7.758a.542.542,0,0,0,.131.412.61.61,0,0,0,.422.121,6.889,6.889,0,0,0,3.728-.774A2.76,2.76,0,0,0,638,54.8a2.666,2.666,0,0,0-.965-2.281,5.13,5.13,0,0,0-3.055-.724A2.092,2.092,0,0,0,632.8,52a1.253,1.253,0,0,0-.236.92Z" transform="translate(-365.411 -4.264)" fill="#fff"/>
    <path id="Path_24" data-name="Path 24" d="M695.908,65.271v-.432h.191a2.057,2.057,0,0,0,1.472-.417,2.022,2.022,0,0,0,.417-1.452V53.544a2.344,2.344,0,0,0-.422-1.648,2.432,2.432,0,0,0-1.628-.432l-.01-.432h6.382v.422a2.505,2.505,0,0,0-1.638.437,2.343,2.343,0,0,0-.422,1.653v4.341a.688.688,0,0,0,.312-.07,1.778,1.778,0,0,0,.392-.322l3.537-3.538a9.794,9.794,0,0,0,.965-1.105,1.426,1.426,0,0,0,.332-.713.512.512,0,0,0-.332-.487,3.216,3.216,0,0,0-1.105-.2v-.422h5.557v.422a4.146,4.146,0,0,0-1.809.437,6.633,6.633,0,0,0-1.728,1.362L702.521,57.2l6.211,6.281a6.284,6.284,0,0,0,1.276,1.035,2.288,2.288,0,0,0,1.085.322l.01.432H704.45v-.432a4.863,4.863,0,0,0,1.337-.206.424.424,0,0,0,.251-.407.678.678,0,0,0-.116-.357,3.218,3.218,0,0,0-.437-.507l-4.472-4.573a.284.284,0,0,1-.03-.04.824.824,0,0,0-.563-.291.545.545,0,0,0-.075.01.548.548,0,0,1-.1.01V63.03a1.863,1.863,0,0,0,.412,1.417,2.608,2.608,0,0,0,1.588.392v.432Z" transform="translate(-417.522 -4.264)" fill="#fff"/>
    <path id="Path_25" data-name="Path 25" d="M763.919,64.522l-.784-4.593h.432a7.645,7.645,0,0,0,1.879,2.864,3.567,3.567,0,0,0,2.422,1.025,2.672,2.672,0,0,0,1.9-.724,2.381,2.381,0,0,0,.769-1.809,2.435,2.435,0,0,0-.513-1.482,5.193,5.193,0,0,0-1.588-1.311l-2.221-1.347a6.542,6.542,0,0,1-2.065-1.734,3.456,3.456,0,0,1-.628-2.045,3.4,3.4,0,0,1,1.156-2.658,4.361,4.361,0,0,1,3.015-1.03,5.83,5.83,0,0,1,1.834.322,6.42,6.42,0,0,0,1.151.322.456.456,0,0,0,.367-.161.915.915,0,0,0,.176-.482h.372l.472,4.3h-.432a6.559,6.559,0,0,0-1.588-2.663,3.158,3.158,0,0,0-2.221-.915,2.488,2.488,0,0,0-1.724.6,1.975,1.975,0,0,0-.668,1.542,2.145,2.145,0,0,0,.462,1.337,5.717,5.717,0,0,0,1.578,1.276l2.472,1.457a6.827,6.827,0,0,1,2.125,1.8,3.633,3.633,0,0,1,.608,2.11,3.734,3.734,0,0,1-1.241,2.94,4.84,4.84,0,0,1-3.331,1.1,7.652,7.652,0,0,1-2.01-.281Q765.064,64,764.964,64a.742.742,0,0,0-.462.131.616.616,0,0,0-.221.392Z" transform="translate(-469.262 -3.223)" fill="#fff"/>
    <path id="Path_26" data-name="Path 26" d="M371.728,144.179h-.146v-3.633h-3.558v3.633h-.151v-6.668h.151V140.4h3.558v-2.889h.146Z" transform="translate(-165.053 -70.822)" fill="#fff"/>
    <path id="Path_27" data-name="Path 27" d="M393.764,137.878h-.151v-.367h.151Zm0,6.3h-.151v-4.447h.151Z" transform="translate(-184.863 -70.822)" fill="#fff"/>
    <path id="Path_28" data-name="Path 28" d="M404.074,144.244a.824.824,0,0,1-.583-.236.779.779,0,0,1-.236-.573v-5.924h.151v5.924a.66.66,0,0,0,.2.478.643.643,0,0,0,.472.2Z" transform="translate(-192.283 -70.822)" fill="#fff"/>
    <path id="Path_29" data-name="Path 29" d="M419.239,141.558H417.42a1.667,1.667,0,0,1-.729-.161,1.2,1.2,0,0,1-.02-2.03,1.516,1.516,0,0,1,.749-.171h1.668v-.8a1.135,1.135,0,0,0-.513-1.025,1.57,1.57,0,0,0-.895-.246h-1.11v-.146h1.11a1.772,1.772,0,0,1,.975.266,1.268,1.268,0,0,1,.583,1.151Zm-.151-.136v-2.075H417.42q-1.146,0-1.146,1.035a.926.926,0,0,0,.487.889,1.356,1.356,0,0,0,.658.151Zm-.623-7.276-1.482,1.105-.085-.116,1.477-1.115Z" transform="translate(-202.188 -68.136)" fill="#fff"/>
    <path id="Path_30" data-name="Path 30" d="M441.012,147.661h-.151v-.668h-2.075v4.372h-.151v-4.517h2.377Z" transform="translate(-219.513 -78.008)" fill="#fff"/>
    <path id="Path_31" data-name="Path 31" d="M458.091,137.878h-.151v-.367h.151Zm0,6.3h-.151v-4.447h.151Z" transform="translate(-234.371 -70.822)" fill="#fff"/>
    <path id="Path_32" data-name="Path 32" d="M470.7,149.882a1.49,1.49,0,0,1-.457,1.1,1.584,1.584,0,0,1-2.206,0,1.5,1.5,0,0,1-.452-1.1V148.4a1.558,1.558,0,0,1,3.115,0Zm-.151,0V148.4a1.362,1.362,0,0,0-.412-1,1.345,1.345,0,0,0-.995-.412,1.362,1.362,0,0,0-1,.412,1.381,1.381,0,0,0-.407,1v1.477a1.4,1.4,0,0,0,1.407,1.412,1.345,1.345,0,0,0,.995-.412A1.362,1.362,0,0,0,470.546,149.882Z" transform="translate(-241.791 -78.008)" fill="#fff"/>
    <path id="Path_33" data-name="Path 33" d="M506.816,142.46a1.547,1.547,0,0,1-.387,1.015,1.464,1.464,0,0,1-1.171.517,3.746,3.746,0,0,1-1.181-.211,4.441,4.441,0,0,1-1.085-.538l.085-.115a7.04,7.04,0,0,0,2.181.728,1.346,1.346,0,0,0,1.06-.477,1.381,1.381,0,0,0,.352-.92,1.283,1.283,0,0,0-.392-.95,3.421,3.421,0,0,0-.864-.563l-1.115-.558q-.362-.181-.769-.437a1.514,1.514,0,0,1-.568-1.211,1.539,1.539,0,0,1,.377-1.02,1.571,1.571,0,0,1,1.256-.538,3.537,3.537,0,0,1,1.819.447l-.08.126a6.385,6.385,0,0,0-1.739-.422,1.42,1.42,0,0,0-1.141.482,1.386,1.386,0,0,0-.342.925,1.461,1.461,0,0,0,.924,1.367q.1.045.332.151.412.2,1.447.724A1.63,1.63,0,0,1,506.816,142.46Z" transform="translate(-269.022 -70.571)" fill="#fff"/>
    <path id="Path_34" data-name="Path 34" d="M528.852,137.878H528.7v-.367h.151Zm0,6.3H528.7v-4.447h.151Z" transform="translate(-288.832 -70.822)" fill="#fff"/>
    <path id="Path_35" data-name="Path 35" d="M539.161,144.244a.825.825,0,0,1-.583-.236.78.78,0,0,1-.236-.573v-5.924h.151v5.924a.661.661,0,0,0,.2.478.644.644,0,0,0,.472.2Z" transform="translate(-296.252 -70.822)" fill="#fff"/>
    <path id="Path_36" data-name="Path 36" d="M554.339,147.11l-1.477,4.422h-.156l-1.472-4.422.141-.045,1.412,4.231,1.412-4.231Z" transform="translate(-306.174 -78.176)" fill="#fff"/>
    <path id="Path_37" data-name="Path 37" d="M576.838,151.43h-1.819a1.666,1.666,0,0,1-.728-.161,1.2,1.2,0,0,1-.02-2.03,1.517,1.517,0,0,1,.749-.171h1.668v-.8a1.135,1.135,0,0,0-.513-1.025,1.568,1.568,0,0,0-.894-.246H574.17v-.146h1.111a1.771,1.771,0,0,1,.975.266,1.268,1.268,0,0,1,.583,1.151Zm-.151-.136v-2.075h-1.668q-1.146,0-1.146,1.035a.926.926,0,0,0,.487.889,1.356,1.356,0,0,0,.658.151Z" transform="translate(-323.483 -78.008)" fill="#fff"/>
  </g>
</svg>
