<svg xmlns="http://www.w3.org/2000/svg" width="150" height="34.588" viewBox="0 0 150 34.588">
  <g id="Group_64" data-name="Group 64" transform="translate(-979.13 -1559.967)">
    <g id="Group_62" data-name="Group 62" transform="translate(1021.738 1559.967)">
      <path id="Path_6339" data-name="Path 6339" d="M1210.953,1563.074v-3.107h-15.681v14.915h15.681v-3.107h-12.574v-2.8h9.467v-3.107h-9.467v-2.8Z" transform="translate(-1103.562 -1559.967)" fill="#fff"/>
      <path id="Path_6340" data-name="Path 6340" d="M1169.48,1559.967h-3.107v14.915h3.107v-5.9h5.593v5.9h3.107v-5.9h3.107v-9.011H1169.48Zm8.7,5.9h-8.7v-2.8h8.7Z" transform="translate(-1092.621 -1559.967)" fill="#fff"/>
      <path id="Path_6341" data-name="Path 6341" d="M1139.965,1559.967h-3.107v14.915h3.107v-5.9h8.7v5.9h3.107v-14.915h-11.807Zm8.7,5.9h-8.7v-2.8h8.7Z" transform="translate(-1081.448 -1559.967)" fill="#fff"/>
      <path id="Path_6342" data-name="Path 6342" d="M1080.317,1559.967h-3.107v14.915h9.322v-3.107h-6.214v-8.7h9.467v11.807h3.107v-14.915h-12.574Z" transform="translate(-1058.868 -1559.967)" fill="#fff"/>
      <path id="Path_6343" data-name="Path 6343" d="M1119.358,1571.774h-8.909v-11.807h-3.107v14.915h15.123v-14.915h-3.107Z" transform="translate(-1070.275 -1559.967)" fill="#fff"/>
      <path id="Path_6344" data-name="Path 6344" d="M1047.694,1559.967v9.011h12.574v2.8h-12.574v3.107h15.681v-9.011H1050.8v-2.8h12.574v-3.107h-15.681Z" transform="translate(-1047.694 -1559.967)" fill="#fff"/>
      <rect id="Rectangle_11" data-name="Rectangle 11" width="3.107" height="3.107" transform="translate(91.711 19.673)" fill="#fff"/>
      <rect id="Rectangle_12" data-name="Rectangle 12" width="3.107" height="3.107" transform="translate(97.998 28.824)" fill="#fff"/>
      <rect id="Rectangle_13" data-name="Rectangle 13" width="3.107" height="3.107" transform="translate(94.89 25.717)" fill="#fff"/>
      <path id="Path_6345" data-name="Path 6345" d="M1113.382,1597.668v-3.107h-2.932v-2.937h-3.107v14.915h3.107v-8.87h2.9v3.107h3.107v-3.107Z" transform="translate(-1070.275 -1571.951)" fill="#fff"/>
      <rect id="Rectangle_14" data-name="Rectangle 14" width="3.107" height="3.107" transform="translate(101.105 25.717)" fill="#fff"/>
      <path id="Path_6346" data-name="Path 6346" d="M1169.48,1591.624h-3.107v14.915h3.107v-5.763h8.7v5.763h3.107v-14.915H1169.48Zm8.7,6.044h-8.7v-2.937h8.7Z" transform="translate(-1092.621 -1571.951)" fill="#fff"/>
      <path id="Path_6347" data-name="Path 6347" d="M1080.317,1591.624h-3.107v14.915h3.107v-5.763h9.467v5.763h3.107v-14.915h-12.574Zm9.467,6.044h-9.467v-2.937h9.467Z" transform="translate(-1058.868 -1571.951)" fill="#fff"/>
      <path id="Path_6348" data-name="Path 6348" d="M1050.8,1591.624h-3.107v14.915h3.107v-5.763h12.574v-9.151H1050.8Zm9.467,6.044H1050.8v-2.937h9.467Z" transform="translate(-1047.694 -1571.951)" fill="#fff"/>
      <rect id="Rectangle_15" data-name="Rectangle 15" width="3.107" height="8.7" transform="translate(67.217 22.78)" fill="#fff"/>
      <path id="Path_6349" data-name="Path 6349" d="M1124.911,1600.775h-2.9v3.107h2.9v2.656h3.107v-14.915h-3.107Z" transform="translate(-1075.827 -1571.951)" fill="#fff"/>
      <path id="Path_6350" data-name="Path 6350" d="M1139.965,1594.731h8.7v-3.107h-11.807v14.915h11.807v-3.107h-8.7Z" transform="translate(-1081.448 -1571.951)" fill="#fff"/>
      <rect id="Rectangle_16" data-name="Rectangle 16" width="3.107" height="3.107" transform="translate(104.285 19.673)" fill="#fff"/>
    </g>
    <path id="Path_6351" data-name="Path 6351" d="M979.13,1559.967v34.587h34.587v-34.587Zm3.593,5.423h3.758v4.094h-3.758Zm23.644,23.979H986.481v-19.886h19.886Zm3.758-19.886h-3.758v-4.094h3.758Z" transform="translate(0 0)" fill="#fff"/>
    <g id="Group_63" data-name="Group 63" transform="translate(990.787 1573.348)">
      <rect id="Rectangle_17" data-name="Rectangle 17" width="3.758" height="4.093" transform="translate(7.516 0)" fill="#fff"/>
      <rect id="Rectangle_18" data-name="Rectangle 18" width="3.758" height="4.093" transform="translate(0 0)" fill="#fff"/>
      <rect id="Rectangle_19" data-name="Rectangle 19" width="3.758" height="4.093" transform="translate(3.758 4.093)" fill="#fff"/>
      <rect id="Rectangle_20" data-name="Rectangle 20" width="0.672" height="0.626" transform="translate(3.758 11.204)" fill="#fff"/>
      <rect id="Rectangle_21" data-name="Rectangle 21" width="0.672" height="0.626" transform="translate(6.844 11.204)" fill="#fff"/>
      <rect id="Rectangle_22" data-name="Rectangle 22" width="0.672" height="0.626" transform="translate(6.172 10.577)" fill="#fff"/>
      <rect id="Rectangle_23" data-name="Rectangle 23" width="0.672" height="0.626" transform="translate(4.43 10.577)" fill="#fff"/>
      <rect id="Rectangle_24" data-name="Rectangle 24" width="1.07" height="0.626" transform="translate(5.102 9.951)" fill="#fff"/>
    </g>
  </g>
</svg>
