<svg xmlns="http://www.w3.org/2000/svg" width="150" height="27.031" viewBox="0 0 150 27.031">
  <g id="Group_57" data-name="Group 57" transform="translate(-48.742 -48.742)">
    <path id="Path_6298" data-name="Path 6298" d="M217.5,75.574l-10.287-13.64h-4.5v13.64h-2.285V48.9h9.1a7.228,7.228,0,0,1,5.182,1.716,6.55,6.55,0,0,1,0,9.6,6.894,6.894,0,0,1-4.763,1.713l10.287,13.64Zm-8.078-15.812a4.913,4.913,0,0,0,3.7-1.142,4.336,4.336,0,0,0,0-6.4,4.9,4.9,0,0,0-3.7-1.145h-6.705v8.686Z" transform="translate(-100.782 -0.108)" fill="#fff"/>
    <path id="Path_6299" data-name="Path 6299" d="M272.571,65.336h-2.285V48.9h2.285Z" transform="translate(-147.197 -0.108)" fill="#fff"/>
    <path id="Path_6300" data-name="Path 6300" d="M314.346,73.059c-2.172,1.6-4.953,2.516-9.182,2.516h-7.619V48.9h7.619c4.23,0,7.011.915,9.182,2.516a13.7,13.7,0,0,1,0,21.638Zm-1.182-19.733c-1.9-1.486-4.38-2.249-8.115-2.249H299.83V73.4h5.219c3.735,0,6.21-.763,8.115-2.249a11.576,11.576,0,0,0,0-17.828Z" transform="translate(-165.308 -0.108)" fill="#fff"/>
    <path id="Path_6301" data-name="Path 6301" d="M453.756,75.574,443.47,61.934h-4.5v13.64h-2.285V48.9h9.1a7.228,7.228,0,0,1,5.182,1.716,6.546,6.546,0,0,1,0,9.6,6.892,6.892,0,0,1-4.763,1.713L456.5,75.574Zm-8.078-15.812a4.915,4.915,0,0,0,3.7-1.142,4.336,4.336,0,0,0,0-6.4,4.9,4.9,0,0,0-3.7-1.145h-6.705v8.686Z" transform="translate(-257.756 -0.108)" fill="#fff"/>
    <path id="Path_6302" data-name="Path 6302" d="M52.169,73.032c-2.208-1.981-3.427-4.8-3.427-8.872V48.742h5.14v15.8c0,2.436.648,3.921,1.751,4.947a6.844,6.844,0,0,0,9.061,0c1.1-1.026,1.751-2.511,1.751-4.947V59.034h5.14v5.127c0,4.073-1.219,6.891-3.427,8.872a12.067,12.067,0,0,1-7.994,2.74A12.065,12.065,0,0,1,52.169,73.032Z" fill="#fff"/>
    <path id="Path_6303" data-name="Path 6303" d="M172.44,79.411h5.14V95.769h-5.14Z" transform="translate(-82.187 -20.377)" fill="#fff"/>
    <circle id="Ellipse_1" data-name="Ellipse 1" cx="2.57" cy="2.57" r="2.57" transform="translate(90.254 48.742)" fill="#fff"/>
    <rect id="Rectangle_8" data-name="Rectangle 8" width="11.81" height="2.171" transform="translate(159.111 59.654)" fill="#fff"/>
    <rect id="Rectangle_9" data-name="Rectangle 9" width="14.476" height="2.171" transform="translate(159.111 48.797)" fill="#fff"/>
    <rect id="Rectangle_10" data-name="Rectangle 10" width="14.858" height="2.171" transform="translate(159.111 73.294)" fill="#fff"/>
    <circle id="Ellipse_2" data-name="Ellipse 2" cx="1.142" cy="1.142" r="1.142" transform="translate(123.089 73.107)" fill="#fff"/>
    <circle id="Ellipse_3" data-name="Ellipse 3" cx="1.142" cy="1.142" r="1.142" transform="translate(123.089 69.148)" fill="#fff"/>
    <path id="Path_6304" data-name="Path 6304" d="M117.3,60.428a6.951,6.951,0,0,0,1.714-4.451,7.11,7.11,0,0,0-2.475-5.369c-1.294-1.144-2.97-1.866-5.976-1.866H101.5v4.569h8.755a3.472,3.472,0,0,1,2.857.952,2.761,2.761,0,0,1,0,3.807,3.472,3.472,0,0,1-2.857.951H101.5V63.59h10.279a4.225,4.225,0,0,1,3.427,1.181,3.595,3.595,0,0,1,0,4.873,4.235,4.235,0,0,1-3.427,1.178h-1.724v4.569h1.838c3.425,0,5.482-.914,6.967-2.4a8.053,8.053,0,0,0,2.436-5.747A7.623,7.623,0,0,0,117.3,60.428Z" transform="translate(-35.053)" fill="#fff"/>
  </g>
</svg>
